<svg width="73" height="72" viewBox="0 0 73 72" fill="none" xmlns="http://www.w3.org/2000/svg">
<g clip-path="url(#clip0_9_4739)">
<path d="M40.0268 12.5892C39.9026 12.589 39.7816 12.5503 39.6804 12.4783C39.5791 12.4064 39.5027 12.3049 39.4616 12.1877C39.4206 12.0705 39.4168 11.9435 39.451 11.8241C39.4852 11.7047 39.5555 11.5989 39.6524 11.5212L42.9776 8.86561L36.8372 12.4116C36.7058 12.4873 36.5507 12.5104 36.4029 12.4763C36.2552 12.4422 36.1258 12.3535 36.0409 12.2279C35.9559 12.1024 35.9216 11.9493 35.9449 11.7995C35.9682 11.6497 36.0473 11.5142 36.1664 11.4204L40.034 8.38681L36.8372 10.2324C36.706 10.3076 36.5512 10.3304 36.4038 10.2964C36.2565 10.2623 36.1274 10.1739 36.0425 10.0488C35.9575 9.92364 35.923 9.77105 35.9457 9.62153C35.9685 9.47202 36.0469 9.33661 36.1652 9.24241L37.4 8.26561L36.8372 8.59081C36.7106 8.66133 36.5628 8.68375 36.4209 8.65394C36.2791 8.62412 36.1528 8.54408 36.0653 8.42854C35.9778 8.31301 35.935 8.16976 35.9448 8.02516C35.9545 7.88056 36.0162 7.74436 36.1184 7.64161L37.2476 6.53641L36.8372 6.77281C36.736 6.83111 36.62 6.85863 36.5034 6.85198C36.3869 6.84533 36.2747 6.80481 36.1809 6.73538C36.087 6.66595 36.0154 6.57063 35.9749 6.46111C35.9344 6.35159 35.9267 6.23263 35.9528 6.11881L36.3152 4.54081C36.2104 4.49906 36.1195 4.42862 36.053 4.33758C35.9864 4.24654 35.9469 4.13859 35.9388 4.02609C35.9308 3.9136 35.9547 3.80112 36.0077 3.70157C36.0606 3.60201 36.1406 3.5194 36.2384 3.46321L36.8384 3.11641C36.9395 3.05752 37.0556 3.02954 37.1725 3.03593C37.2893 3.04232 37.4017 3.0828 37.4958 3.15238C37.5899 3.22195 37.6615 3.31756 37.7019 3.4274C37.7422 3.53723 37.7495 3.65648 37.7228 3.77041L37.4312 5.04481L40.7696 3.11761C40.8962 3.04456 41.0452 3.02025 41.1884 3.04926C41.3317 3.07826 41.4595 3.15857 41.5477 3.27511C41.636 3.39165 41.6787 3.5364 41.6677 3.68218C41.6568 3.82795 41.593 3.96473 41.4884 4.06681L40.3592 5.17081L43.916 3.11761C44.0472 3.04242 44.202 3.01957 44.3493 3.05362C44.4967 3.08767 44.6258 3.17611 44.7107 3.30124C44.7956 3.42637 44.8302 3.57897 44.8074 3.72848C44.7847 3.878 44.7063 4.01341 44.588 4.10761L43.352 5.08561L46.7612 3.11761C46.8926 3.04195 47.0477 3.01883 47.1955 3.05291C47.3432 3.08698 47.4725 3.17572 47.5575 3.30128C47.6425 3.42683 47.6768 3.57991 47.6535 3.72972C47.6302 3.87953 47.5511 4.01497 47.432 4.10881L43.5644 7.14241L49.2752 3.84481C49.4061 3.77047 49.5602 3.74807 49.7068 3.78204C49.8535 3.81601 49.982 3.90388 50.0669 4.02821C50.1518 4.15253 50.1869 4.30423 50.1652 4.4532C50.1434 4.60217 50.0665 4.73753 49.9496 4.83241L46.6244 7.48801L49.364 5.90641C49.4904 5.83354 49.6389 5.80921 49.782 5.83797C49.925 5.86672 50.0526 5.94658 50.141 6.06262C50.2294 6.17866 50.2725 6.32293 50.2622 6.46844C50.2519 6.61395 50.189 6.75073 50.0852 6.85321L47.7824 9.13201L49.3628 8.21881C49.4831 8.14883 49.624 8.12284 49.7613 8.14529C49.8987 8.16775 50.0239 8.23725 50.1157 8.3419C50.2074 8.44654 50.2599 8.57983 50.2642 8.71893C50.2685 8.85804 50.2243 8.99431 50.1392 9.10441L49.478 9.96481C49.6087 9.92208 49.7501 9.92572 49.8784 9.97512C50.0067 10.0245 50.1141 10.1167 50.1824 10.236C50.2221 10.3042 50.2479 10.3795 50.2584 10.4577C50.2688 10.5359 50.2637 10.6154 50.2433 10.6915C50.2229 10.7677 50.1876 10.8391 50.1394 10.9016C50.0913 10.9641 50.0313 11.0164 49.9628 11.0556L47.4824 12.4884C47.3621 12.5568 47.2218 12.5816 47.0853 12.5586C46.9488 12.5356 46.8244 12.4662 46.7332 12.3621C46.6419 12.258 46.5894 12.1256 46.5845 11.9873C46.5795 11.849 46.6224 11.7132 46.706 11.6028L47.3468 10.7688L44.3516 12.498C44.2252 12.5709 44.0766 12.5952 43.9336 12.5665C43.7906 12.5377 43.663 12.4578 43.5746 12.3418C43.4862 12.2258 43.4431 12.0815 43.4534 11.936C43.4636 11.7905 43.5266 11.6537 43.6304 11.5512L45.9332 9.27361L40.3268 12.51C40.2355 12.5626 40.1321 12.5891 40.0268 12.5892Z" fill="#EA3446"/>
<path d="M6.5204 71.364C6.39227 71.3638 6.26757 71.3226 6.16456 71.2464C6.06155 71.1702 5.98564 71.063 5.94795 70.9405C5.91026 70.818 5.91276 70.6867 5.95509 70.5658C5.99743 70.4449 6.07736 70.3406 6.1832 70.2684L7.0892 69.6516L4.2848 71.2704C4.15106 71.3463 3.99329 71.3679 3.84406 71.3309C3.69483 71.2938 3.56553 71.2008 3.48285 71.0712C3.40017 70.9415 3.37042 70.7851 3.39973 70.6342C3.42905 70.4832 3.5152 70.3493 3.6404 70.26L9.3644 66.246L3.2384 69.7824C3.10351 69.8541 2.94641 69.8717 2.799 69.8317C2.6516 69.7917 2.52494 69.6971 2.44474 69.5671C2.36455 69.4371 2.33684 69.2815 2.36724 69.1318C2.39763 68.9821 2.48386 68.8496 2.6084 68.7612L3.1064 68.436C2.97025 68.4769 2.82401 68.4681 2.69375 68.4111C2.56349 68.3542 2.45767 68.2529 2.39513 68.1253C2.3326 67.9976 2.31742 67.8519 2.35231 67.7141C2.38719 67.5763 2.46986 67.4554 2.5856 67.3728L11.0048 61.29L3.2372 65.7732C3.10418 65.8582 2.94296 65.8873 2.78864 65.854C2.63432 65.8207 2.49937 65.7279 2.41316 65.5956C2.32695 65.4634 2.29645 65.3025 2.32829 65.1478C2.36014 64.9932 2.45175 64.8574 2.5832 64.77L11.5208 58.236L3.2372 63.018C3.10244 63.0961 2.9426 63.1188 2.79145 63.0811C2.6403 63.0435 2.50971 62.9486 2.42727 62.8165C2.34483 62.6843 2.31701 62.5253 2.34969 62.373C2.38238 62.2207 2.473 62.0871 2.6024 62.0004L6.098 59.6472L3.2372 61.2984C3.10327 61.3753 2.94486 61.3975 2.79493 61.3606C2.645 61.3236 2.51509 61.2303 2.43223 61.1C2.34938 60.9696 2.31996 60.8124 2.35009 60.661C2.38022 60.5095 2.46758 60.3755 2.594 60.2868L7.5836 56.8128L3.2372 59.322C3.10266 59.3987 2.94368 59.4204 2.79352 59.3825C2.64335 59.3447 2.51363 59.2503 2.43149 59.119C2.34934 58.9877 2.32114 58.8298 2.35277 58.6782C2.3844 58.5266 2.47342 58.3931 2.6012 58.3056L3.0764 57.984C2.94499 58.0137 2.80742 57.9984 2.68575 57.9405C2.56408 57.8827 2.46537 57.7856 2.40545 57.665C2.34554 57.5443 2.32788 57.407 2.35533 57.2751C2.38277 57.1432 2.45373 57.0244 2.5568 56.9376L6.9392 53.3148L3.2384 55.4508C3.10675 55.526 2.95154 55.5485 2.80396 55.5139C2.65639 55.4792 2.52738 55.39 2.44288 55.2642C2.35838 55.1384 2.32464 54.9852 2.34844 54.8355C2.37225 54.6858 2.45183 54.5506 2.5712 54.4572L3.0512 54.0864C2.93357 54.1092 2.81181 54.0962 2.70161 54.0492C2.59141 54.0022 2.49781 53.9232 2.43288 53.8225C2.36794 53.7218 2.33464 53.604 2.33727 53.4842C2.33989 53.3644 2.37832 53.2482 2.4476 53.1504L3.8888 51.1188L3.2372 51.4944C3.1314 51.556 3.00927 51.5836 2.88727 51.5737C2.76526 51.5637 2.64925 51.5166 2.55485 51.4386C2.46044 51.3607 2.39219 51.2557 2.35929 51.1378C2.32638 51.0199 2.3304 50.8948 2.3708 50.7792L2.612 50.082C2.52544 50.0262 2.45468 49.9491 2.40655 49.8581C2.35842 49.767 2.33453 49.6651 2.33718 49.5622C2.33983 49.4592 2.36894 49.3587 2.42169 49.2703C2.47445 49.1818 2.54908 49.1085 2.6384 49.0572L3.2408 48.7104C3.34689 48.6508 3.46855 48.6247 3.58977 48.6355C3.71098 48.6464 3.82606 48.6937 3.91985 48.7713C4.01364 48.8488 4.08174 48.953 4.11518 49.07C4.14863 49.187 4.14584 49.3114 4.1072 49.4268L4.0304 49.6524L5.6684 48.7068C5.78691 48.6384 5.92524 48.6126 6.06046 48.6336C6.19567 48.6546 6.31964 48.7212 6.41181 48.8223C6.50398 48.9234 6.55881 49.053 6.56721 49.1896C6.57562 49.3262 6.53708 49.4615 6.458 49.5732L5.0168 51.6048L10.0496 48.6984C10.1813 48.6233 10.3365 48.6008 10.484 48.6354C10.6316 48.67 10.7606 48.7592 10.8451 48.885C10.9296 49.0109 10.9634 49.164 10.9396 49.3137C10.9158 49.4635 10.8362 49.5986 10.7168 49.692L10.43 49.914L12.5444 48.6936C12.6746 48.6198 12.8277 48.5972 12.9737 48.6305C13.1196 48.6637 13.2479 48.7503 13.3333 48.8733C13.4186 48.9962 13.455 49.1467 13.4351 49.2951C13.4153 49.4434 13.3407 49.579 13.226 49.6752L8.846 53.2956L16.8332 48.684C16.9677 48.6073 17.1267 48.5857 17.2769 48.6235C17.4271 48.6613 17.5568 48.7558 17.6389 48.887C17.7211 49.0183 17.7493 49.1763 17.7176 49.3279C17.686 49.4794 17.597 49.6129 17.4692 49.7004L17.2808 49.8276L19.2704 48.6792C19.4043 48.6024 19.5627 48.5801 19.7127 48.6171C19.8626 48.654 19.9925 48.7474 20.0754 48.8777C20.1582 49.008 20.1876 49.1652 20.1575 49.3167C20.1274 49.4681 20.04 49.6021 19.9136 49.6908L14.9276 53.1624L20.5664 49.9068C20.7012 49.8287 20.861 49.8061 21.0122 49.8437C21.1633 49.8813 21.2939 49.9762 21.3763 50.1084C21.4588 50.2405 21.4866 50.3995 21.4539 50.5518C21.4212 50.7041 21.3306 50.8377 21.2012 50.9244L17.6996 53.2812L20.5676 51.6264C20.7004 51.5515 20.8568 51.5299 21.0049 51.5661C21.153 51.6023 21.2818 51.6935 21.3651 51.8213C21.4484 51.949 21.4799 52.1037 21.4533 52.2538C21.4266 52.404 21.3438 52.5383 21.2216 52.6296L12.2852 59.1624L20.5688 54.3804C20.702 54.304 20.8594 54.2815 21.0086 54.3176C21.1578 54.3538 21.2875 54.4457 21.371 54.5745C21.4545 54.7034 21.4854 54.8593 21.4574 55.0103C21.4294 55.1612 21.3446 55.2957 21.2204 55.386L12.8036 61.4676L20.57 56.9844C20.7053 56.9034 20.8672 56.8789 21.0204 56.9163C21.1737 56.9536 21.3061 57.0499 21.3889 57.1841C21.4717 57.3184 21.4984 57.4799 21.463 57.6336C21.4276 57.7874 21.3332 57.921 21.2 58.0056L20.7008 58.332C20.8369 58.2933 20.9824 58.3039 21.1115 58.3619C21.2406 58.4199 21.3451 58.5216 21.4066 58.649C21.4681 58.7765 21.4827 58.9216 21.4478 59.0587C21.4128 59.1959 21.3306 59.3163 21.2156 59.3988L15.4904 63.414L20.5724 60.4812C20.7067 60.4057 20.865 60.3847 21.0144 60.4227C21.1637 60.4607 21.2928 60.5547 21.3747 60.6852C21.4566 60.8158 21.4852 60.9728 21.4545 61.1238C21.4237 61.2749 21.336 61.4083 21.2096 61.4964L20.3072 62.1108L20.5724 61.9584C20.7049 61.8831 20.8612 61.861 21.0094 61.8967C21.1576 61.9324 21.2867 62.0231 21.3704 62.1505C21.4541 62.2779 21.4862 62.4324 21.4601 62.5826C21.434 62.7328 21.3518 62.8675 21.23 62.9592L18.4784 64.9992L20.5736 63.7896C20.705 63.714 20.8601 63.6908 21.0079 63.7249C21.1556 63.759 21.285 63.8477 21.3699 63.9733C21.4549 64.0988 21.4892 64.2519 21.4659 64.4017C21.4426 64.5515 21.3635 64.687 21.2444 64.7808L19.6592 66.0252L20.576 65.4972C20.6999 65.4267 20.8448 65.4026 20.9848 65.4292C21.1248 65.4558 21.2508 65.5314 21.3402 65.6424C21.4296 65.7535 21.4765 65.8927 21.4726 66.0352C21.4687 66.1776 21.4141 66.3141 21.3188 66.42L19.5956 68.3112L20.576 67.7448C20.6946 67.6765 20.833 67.6509 20.9682 67.672C21.1034 67.6932 21.2274 67.76 21.3194 67.8613C21.4115 67.9626 21.4661 68.0923 21.4743 68.2289C21.4825 68.3655 21.4437 68.5009 21.3644 68.6124L20.7848 69.4296C20.8783 69.4809 20.9565 69.5561 21.0113 69.6475C21.0662 69.7389 21.0957 69.8433 21.097 69.9499C21.0982 70.0565 21.071 70.1615 21.0183 70.2542C20.9655 70.3469 20.8891 70.4238 20.7968 70.4772L19.4012 71.2824C19.2824 71.3498 19.1442 71.3748 19.0094 71.3531C18.8746 71.3315 18.7511 71.2647 18.6593 71.1635C18.5675 71.0624 18.5129 70.933 18.5045 70.7967C18.496 70.6604 18.5342 70.5253 18.6128 70.4136L18.7928 70.1592L16.85 71.2812C16.7261 71.3517 16.5812 71.3758 16.4412 71.3492C16.3012 71.3226 16.1752 71.247 16.0858 71.136C15.9964 71.025 15.9495 70.8857 15.9534 70.7433C15.9574 70.6008 16.0119 70.4644 16.1072 70.3584L17.8316 68.466L12.9536 71.2824C12.8222 71.3581 12.6671 71.3812 12.5193 71.3471C12.3716 71.313 12.2423 71.2243 12.1573 71.0987C12.0723 70.9732 12.038 70.8201 12.0613 70.6703C12.0846 70.5205 12.1637 70.3851 12.2828 70.2912L13.8632 69.0504L9.9956 71.2824C9.86289 71.3674 9.70205 71.3966 9.54795 71.3637C9.39385 71.3308 9.25891 71.2386 9.17238 71.1069C9.08586 70.9752 9.05472 70.8147 9.08572 70.6602C9.11673 70.5058 9.20737 70.3697 9.338 70.2816L12.092 68.2392L6.8204 71.2824C6.72933 71.3354 6.62577 71.3644 6.5204 71.364Z" fill="#EABB3B"/>
<path d="M6.66559 50.964C6.54396 50.9638 6.42527 50.9266 6.32524 50.8574C6.22521 50.7882 6.14858 50.6903 6.1055 50.5765C6.06243 50.4628 6.05494 50.3386 6.08403 50.2205C6.11312 50.1024 6.17741 49.9959 6.26839 49.9152L9.88999 46.7076L2.79559 50.8032C2.66719 50.8743 2.51722 50.8959 2.37397 50.864C2.23072 50.8322 2.10407 50.749 2.01789 50.6302C1.93172 50.5114 1.89196 50.3652 1.90613 50.2191C1.9203 50.0731 1.9874 49.9372 2.09479 49.8372L5.67199 46.6308L2.36719 48.5388C2.23892 48.6097 2.08916 48.6313 1.94608 48.5996C1.80299 48.5678 1.67643 48.4849 1.5902 48.3664C1.50396 48.2479 1.46399 48.1019 1.4778 47.956C1.49162 47.8101 1.55826 47.6742 1.66519 47.574L2.88679 46.4724C2.76776 46.494 2.64497 46.4791 2.53454 46.4297C2.42411 46.3803 2.3312 46.2986 2.268 46.1955C2.20481 46.0923 2.17427 45.9725 2.18041 45.8516C2.18655 45.7308 2.22907 45.6146 2.30239 45.5184L3.05119 44.5344C2.96784 44.477 2.90042 44.3994 2.85525 44.3089C2.81009 44.2183 2.78866 44.1178 2.79298 44.0167C2.7973 43.9156 2.82722 43.8172 2.87994 43.7308C2.93266 43.6445 3.00645 43.5729 3.09439 43.5228L4.49359 42.7152C4.61366 42.6457 4.75409 42.62 4.89099 42.6424C5.0279 42.6648 5.15281 42.7339 5.24448 42.838C5.33615 42.9421 5.38891 43.0748 5.39378 43.2134C5.39865 43.3521 5.35533 43.4881 5.27119 43.5984L5.06119 43.8732L7.07599 42.7104C7.20432 42.6366 7.35542 42.6128 7.50023 42.6436C7.64504 42.6744 7.77334 42.7577 7.86045 42.8774C7.94756 42.9971 7.98733 43.1448 7.97211 43.2921C7.95689 43.4394 7.88775 43.5758 7.77799 43.6752L6.68719 44.6604L10.076 42.7032C10.2045 42.6292 10.3558 42.6053 10.5008 42.6362C10.6458 42.6672 10.7742 42.7507 10.8613 42.8707C10.9484 42.9907 10.9879 43.1387 10.9723 43.2862C10.9567 43.4336 10.8871 43.5701 10.7768 43.6692L7.19839 46.8768L14.4404 42.696C14.5691 42.6227 14.7204 42.5995 14.8651 42.631C15.0099 42.6626 15.1379 42.7465 15.2244 42.8667C15.311 42.987 15.35 43.1349 15.334 43.2822C15.3179 43.4295 15.248 43.5656 15.1376 43.6644L11.5172 46.8708L18.764 42.6876C18.8931 42.6124 19.0457 42.5881 19.1919 42.6194C19.338 42.6508 19.4672 42.7356 19.5541 42.8572C19.641 42.9788 19.6794 43.1284 19.6618 43.2768C19.6442 43.4253 19.5718 43.5618 19.4588 43.6596L15.902 46.764L21.7688 43.3776C21.8959 43.2985 22.0481 43.27 22.1952 43.2977C22.3423 43.3254 22.4737 43.4074 22.5633 43.5273C22.6529 43.6472 22.6942 43.7964 22.6791 43.9454C22.664 44.0943 22.5935 44.2321 22.4816 44.3316L19.3328 47.3304L21.7808 45.9168C21.9083 45.8439 22.0581 45.8204 22.2019 45.8506C22.3456 45.8807 22.4733 45.9626 22.5607 46.0806C22.6481 46.1987 22.6892 46.3447 22.6762 46.491C22.6631 46.6373 22.5969 46.7737 22.49 46.8744L21.9836 47.3496C22.0647 47.3365 22.1477 47.3396 22.2276 47.3588C22.3075 47.3779 22.3828 47.4128 22.4492 47.4612C22.6412 47.6064 22.7276 47.8512 22.6712 48.0864L22.3292 49.4592C22.4329 49.5021 22.5224 49.5733 22.5877 49.6645C22.653 49.7558 22.6914 49.8635 22.6985 49.9755C22.7056 50.0875 22.6812 50.1992 22.628 50.298C22.5748 50.3968 22.495 50.4787 22.3976 50.5344L21.7832 50.8884C21.6809 50.9464 21.5639 50.9734 21.4465 50.9661C21.3292 50.9589 21.2164 50.9177 21.122 50.8476C21.0282 50.7763 20.9573 50.6791 20.9178 50.5681C20.8784 50.457 20.8722 50.3369 20.9 50.2224L21.164 49.1676L18.1856 50.8872C18.0581 50.9601 17.9083 50.9837 17.7645 50.9535C17.6208 50.9233 17.4931 50.8414 17.4057 50.7234C17.3183 50.6054 17.2772 50.4594 17.2902 50.3131C17.3033 50.1668 17.3695 50.0303 17.4764 49.9296L17.8664 49.5636L15.5744 50.8872C15.4473 50.9597 15.298 50.9833 15.1548 50.9534C15.0115 50.9236 14.8841 50.8424 14.7965 50.7252C14.7089 50.6079 14.6672 50.4627 14.6792 50.3169C14.6911 50.171 14.756 50.0346 14.8616 49.9332L18.0104 46.9356L11.1644 50.8872C11.0354 50.9624 10.883 50.9866 10.7371 50.9551C10.5912 50.9236 10.4624 50.8386 10.376 50.7168C10.2896 50.5953 10.2514 50.4461 10.2687 50.298C10.286 50.15 10.3576 50.0136 10.4696 49.9152L14.0252 46.812L6.96679 50.8872C6.87583 50.9405 6.7722 50.9682 6.66679 50.9676L6.66559 50.964Z" fill="#EA6958"/>
<path d="M10.0472 64.1641C9.93083 64.1651 9.81669 64.1322 9.71879 64.0693C9.62089 64.0064 9.54349 63.9162 9.49608 63.81C9.44868 63.7037 9.43334 63.5859 9.45194 63.471C9.47054 63.3561 9.52227 63.2492 9.60079 63.1633L11.8904 60.6157L8.03599 62.8405C7.91177 62.914 7.76516 62.9402 7.62316 62.9142C7.48115 62.8882 7.35332 62.8118 7.2632 62.6991C7.17307 62.5863 7.12671 62.4448 7.13267 62.3005C7.13862 62.1563 7.19648 62.0191 7.29559 61.9141L10.0496 58.9417L8.03479 60.1045C7.92451 60.1681 7.79688 60.1949 7.67035 60.1812C7.54381 60.1674 7.42492 60.1138 7.33087 60.028C7.23682 59.9422 7.17249 59.8288 7.14716 59.7041C7.12184 59.5793 7.13684 59.4498 7.18999 59.3341L7.88359 57.8353C7.74435 57.8585 7.60141 57.8316 7.48009 57.7595C7.35877 57.6873 7.26689 57.5746 7.22075 57.4412C7.17461 57.3078 7.17717 57.1623 7.22799 57.0307C7.27881 56.899 7.3746 56.7895 7.49839 56.7217L8.89159 55.9177C9.00187 55.8541 9.1295 55.8273 9.25604 55.841C9.38257 55.8548 9.50146 55.9084 9.59551 55.9942C9.68956 56.08 9.75389 56.1934 9.77922 56.3182C9.80455 56.4429 9.78955 56.5725 9.73639 56.6881L9.07399 58.1185L12.89 55.9165C13.0142 55.8452 13.1599 55.8207 13.3006 55.8475C13.4414 55.8742 13.5679 55.9504 13.6573 56.0623C13.7467 56.1742 13.7932 56.3144 13.7882 56.4576C13.7833 56.6008 13.7273 56.7374 13.6304 56.8429L10.8776 59.8129L14.5628 57.6865C14.6862 57.6116 14.8326 57.5839 14.9749 57.6086C15.1172 57.6332 15.2457 57.7086 15.3368 57.8207C15.4278 57.9328 15.4752 58.074 15.4701 58.2184C15.465 58.3627 15.4079 58.5003 15.3092 58.6057L13.0184 61.1533L14.5628 60.2629C14.6816 60.1942 14.8204 60.1684 14.956 60.1896C15.0916 60.2109 15.2158 60.278 15.3079 60.3798C15.4 60.4816 15.4544 60.6119 15.4621 60.7489C15.4697 60.886 15.4302 61.0215 15.35 61.1329L14.8616 61.8121C14.9942 61.8111 15.1233 61.8541 15.2288 61.9345C15.3343 62.0148 15.4102 62.1278 15.4445 62.2559C15.4788 62.384 15.4697 62.5198 15.4185 62.6421C15.3673 62.7644 15.2769 62.8663 15.1616 62.9317L13.1672 64.0825C13.0486 64.1519 12.9096 64.1783 12.7739 64.1571C12.6381 64.1359 12.5138 64.0684 12.422 63.9661C12.3302 63.8641 12.276 63.7337 12.2683 63.5967C12.2607 63.4597 12.3001 63.3241 12.38 63.2125L12.7532 62.6929L10.3472 64.0813C10.2562 64.1346 10.1526 64.1623 10.0472 64.1617V64.1641Z" fill="#3D639B"/>
<path d="M55.4972 71.3736C55.3716 71.3737 55.2491 71.3344 55.147 71.2611C55.045 71.1879 54.9684 71.0845 54.9283 70.9654C54.8881 70.8464 54.8863 70.7178 54.9232 70.5977C54.96 70.4776 55.0336 70.3721 55.1336 70.296L62.2376 64.8792L52.7048 70.3836C52.5696 70.4675 52.4065 70.4942 52.2516 70.4578C52.0966 70.4215 51.9625 70.3251 51.8786 70.1898C51.7947 70.0546 51.7681 69.8915 51.8044 69.7366C51.8407 69.5816 51.9372 69.4475 52.0724 69.3636L53.7116 68.2752L52.436 69.012C52.302 69.0877 52.144 69.109 51.9947 69.0714C51.8454 69.0339 51.7163 68.9404 51.634 68.8104C51.5517 68.6803 51.5225 68.5235 51.5525 68.3726C51.5825 68.2216 51.6694 68.0879 51.7952 67.9992L57.65 63.948L52.436 66.9576C52.3022 67.0432 52.1398 67.0722 51.9847 67.0381C51.8295 67.004 51.6942 66.9097 51.6086 66.7758C51.523 66.642 51.4941 66.4796 51.5281 66.3245C51.5622 66.1693 51.6566 66.034 51.7904 65.9484L58.958 60.888L52.436 64.6536C52.3028 64.73 52.1455 64.7525 51.9962 64.7164C51.847 64.6803 51.7173 64.5884 51.6338 64.4595C51.5503 64.3307 51.5194 64.1747 51.5474 64.0238C51.5754 63.8728 51.6603 63.7383 51.7844 63.648L60.3188 57.4644L52.436 62.016C52.302 62.0917 52.144 62.113 51.9947 62.0754C51.8454 62.0379 51.7163 61.9444 51.634 61.8144C51.5517 61.6843 51.5225 61.5275 51.5525 61.3766C51.5825 61.2256 51.6694 61.0919 51.7952 61.0032L57.368 57.156L52.4372 60.0024C52.303 60.0792 52.1443 60.1011 51.9943 60.0637C51.8443 60.0263 51.7145 59.9324 51.632 59.8016C51.5495 59.6708 51.5207 59.5133 51.5515 59.3618C51.5824 59.2103 51.6705 59.0765 51.7976 58.9884L54.0548 57.4404L52.4372 58.3728C52.3053 58.4475 52.15 58.4694 52.0026 58.4343C51.8551 58.3991 51.7265 58.3094 51.6424 58.1833C51.5584 58.0572 51.5252 57.9039 51.5495 57.7543C51.5739 57.6047 51.6539 57.4698 51.7736 57.3768L55.6484 54.4224L52.4372 56.2764C52.3055 56.3506 52.1506 56.3722 52.0035 56.3371C51.8565 56.302 51.7281 56.2126 51.6441 56.0869C51.5601 55.9612 51.5266 55.8084 51.5504 55.6591C51.5742 55.5098 51.6535 55.375 51.7724 55.2816L52.9976 54.342L52.436 54.666C52.3105 54.741 52.162 54.7675 52.0183 54.7405C51.8747 54.7135 51.7459 54.6349 51.6561 54.5195C51.5664 54.4041 51.522 54.2599 51.5313 54.1141C51.5405 53.9682 51.6028 53.8307 51.7064 53.7276L53.4668 51.9276L52.436 52.5216C52.3354 52.5795 52.2201 52.6069 52.1042 52.6006C51.9883 52.5943 51.8767 52.5545 51.783 52.486C51.6893 52.4176 51.6174 52.3234 51.5761 52.2149C51.5348 52.1064 51.5259 51.9883 51.5504 51.8748L51.926 50.1444C51.8192 50.1047 51.726 50.0354 51.6571 49.9446C51.5883 49.8538 51.5467 49.7453 51.5373 49.6318C51.5279 49.5183 51.5509 49.4044 51.6038 49.3035C51.6567 49.2026 51.7373 49.1188 51.836 49.062L52.4372 48.7152C52.5378 48.6574 52.6531 48.6299 52.769 48.6362C52.8849 48.6425 52.9965 48.6823 53.0902 48.7508C53.184 48.8193 53.2558 48.9135 53.2971 49.0219C53.3384 49.1304 53.3473 49.2486 53.3228 49.362L53.0096 50.8044L56.6456 48.7056C56.7711 48.6332 56.9185 48.6087 57.0607 48.6365C57.2029 48.6643 57.3302 48.7427 57.4191 48.8571C57.508 48.9714 57.5526 49.1141 57.5445 49.2588C57.5364 49.4034 57.4763 49.5402 57.3752 49.644L55.616 51.444L60.3716 48.6984C60.5034 48.6243 60.6583 48.6026 60.8053 48.6377C60.9524 48.6729 61.0807 48.7622 61.1647 48.8879C61.2487 49.0136 61.2822 49.1664 61.2584 49.3157C61.2346 49.465 61.1553 49.5999 61.0364 49.6932L59.8088 50.6352L63.1748 48.6924C63.3067 48.6178 63.462 48.5958 63.6095 48.631C63.7569 48.6661 63.8856 48.7558 63.9696 48.8819C64.0537 49.0081 64.0868 49.1614 64.0625 49.311C64.0382 49.4606 63.9581 49.5954 63.8384 49.6884L59.966 52.6404L66.8168 48.6852C66.951 48.6085 67.1097 48.5865 67.2597 48.6239C67.4098 48.6614 67.5396 48.7552 67.622 48.886C67.7045 49.0168 67.7334 49.1744 67.7025 49.3259C67.6716 49.4774 67.5835 49.6111 67.4564 49.6992L65.1992 51.2472L69.6476 48.6792C69.7816 48.6035 69.9396 48.5823 70.0889 48.6198C70.2382 48.6573 70.3674 48.7508 70.4497 48.8809C70.532 49.011 70.5611 49.1677 70.5311 49.3187C70.5011 49.4696 70.4142 49.6033 70.2884 49.692L64.7144 53.5404L69.7628 50.6256C69.896 50.5492 70.0534 50.5267 70.2026 50.5628C70.3518 50.599 70.4815 50.6909 70.565 50.8197C70.6485 50.9486 70.6794 51.1045 70.6514 51.2555C70.6234 51.4064 70.5386 51.5409 70.4144 51.6312L61.88 57.8148L69.7628 53.2632C69.8966 53.1776 70.059 53.1487 70.2142 53.1828C70.3693 53.2169 70.5046 53.3112 70.5902 53.445C70.6758 53.5788 70.7048 53.7412 70.6707 53.8964C70.6366 54.0515 70.5422 54.1868 70.4084 54.2724L63.2408 59.3328L69.7628 55.5672C69.8969 55.4915 70.0548 55.4703 70.2041 55.5078C70.3534 55.5453 70.4826 55.6388 70.5649 55.7689C70.6472 55.899 70.6763 56.0557 70.6463 56.2067C70.6163 56.3576 70.5294 56.4913 70.4036 56.58L64.5488 60.6312L69.7628 57.6216C69.8981 57.5378 70.0611 57.5111 70.216 57.5474C70.371 57.5838 70.5052 57.6802 70.589 57.8154C70.6729 57.9507 70.6996 58.1137 70.6632 58.2687C70.6269 58.4236 70.5305 58.5578 70.3952 58.6416L68.7584 59.7276L69.764 59.148C69.8959 59.0734 70.0512 59.0514 70.1987 59.0866C70.3461 59.1217 70.4748 59.2114 70.5588 59.3375C70.6429 59.4637 70.676 59.617 70.6517 59.7666C70.6274 59.9162 70.5473 60.051 70.4276 60.144L63.3188 65.5644L69.764 61.8432C69.898 61.7675 70.056 61.7463 70.2053 61.7838C70.3546 61.8213 70.4838 61.9148 70.5661 62.0449C70.6484 62.175 70.6775 62.3317 70.6475 62.4827C70.6175 62.6336 70.5306 62.7673 70.4048 62.856L69.9584 63.1656C70.0892 63.1424 70.2241 63.1633 70.3417 63.2251C70.4594 63.2868 70.5533 63.3858 70.6086 63.5066C70.6639 63.6274 70.6776 63.7632 70.6474 63.8926C70.6173 64.022 70.545 64.1377 70.442 64.2216L67.6688 66.474L69.7628 65.2656C69.8903 65.1908 70.041 65.1657 70.1859 65.1953C70.3308 65.2249 70.4596 65.3071 70.5475 65.426C70.6354 65.5449 70.6762 65.6921 70.662 65.8393C70.6479 65.9865 70.5798 66.1233 70.4708 66.2232L68.9768 67.6176L69.7616 67.1652C69.8795 67.0965 70.0174 67.0703 70.1523 67.0908C70.2872 67.1113 70.4111 67.1774 70.5032 67.278C70.5953 67.3786 70.6505 67.5074 70.6599 67.6434C70.6693 67.7794 70.6322 67.9146 70.5548 68.0268L69.9152 68.9484C70.0418 68.9174 70.175 68.9281 70.295 68.9789C70.415 69.0297 70.5154 69.1179 70.5812 69.2304C70.6209 69.2986 70.6468 69.3739 70.6572 69.4521C70.6677 69.5303 70.6625 69.6098 70.6421 69.686C70.6217 69.7622 70.5864 69.8335 70.5383 69.896C70.4901 69.9585 70.4301 70.0109 70.3616 70.05L68.2256 71.2836C68.1075 71.3519 67.9697 71.3779 67.8349 71.3574C67.7 71.3368 67.5762 71.2709 67.4839 71.1706C67.3915 71.0702 67.336 70.9414 67.3267 70.8053C67.3173 70.6693 67.3546 70.5341 67.4324 70.422L68.042 69.5436L65.024 71.286C64.8965 71.3579 64.7472 71.3807 64.604 71.3502C64.4609 71.3196 64.3338 71.2378 64.2468 71.1201C64.1598 71.0024 64.1188 70.857 64.1316 70.7112C64.1443 70.5654 64.2099 70.4292 64.316 70.3284L65.8088 68.934L61.7324 71.2884C61.6019 71.3746 61.4427 71.4062 61.2891 71.3763C61.1356 71.3465 60.9998 71.2576 60.9111 71.1288C60.8223 70.9999 60.7876 70.8414 60.8144 70.6873C60.8412 70.5332 60.9274 70.3957 61.0544 70.3044L63.8288 68.0496L58.2128 71.2908C58.0788 71.3665 57.9208 71.3878 57.7715 71.3502C57.6222 71.3127 57.4931 71.2192 57.4108 71.0892C57.3285 70.9591 57.2993 70.8023 57.3293 70.6514C57.3593 70.5004 57.4462 70.3667 57.572 70.278L57.6632 70.2144L55.796 71.2908C55.705 71.344 55.6014 71.3717 55.496 71.3712L55.4972 71.3736Z" fill="#EABB3B"/>
<path d="M54.3584 50.9941C54.2342 50.9949 54.1129 50.9571 54.0112 50.8859C53.9095 50.8147 53.8324 50.7137 53.7906 50.5968C53.7489 50.4799 53.7444 50.3529 53.778 50.2334C53.8116 50.1139 53.8815 50.0078 53.978 49.9297L57.0524 47.4049L51.236 50.7625C51.107 50.8377 50.9546 50.8619 50.8087 50.8304C50.6628 50.7988 50.534 50.7138 50.4476 50.5921C50.3612 50.4706 50.323 50.3214 50.3403 50.1733C50.3576 50.0252 50.4292 49.8888 50.5412 49.7905L53.924 46.8385L51.236 48.3901C51.1101 48.4627 50.9622 48.4871 50.8197 48.4588C50.6772 48.4306 50.5498 48.3516 50.4611 48.2366C50.3724 48.1215 50.3285 47.9781 50.3375 47.8331C50.3465 47.6881 50.4078 47.5513 50.51 47.4481L51.9488 45.9973L51.236 46.4089C51.1351 46.4675 51.0192 46.4953 50.9027 46.489C50.7862 46.4827 50.674 46.4424 50.5801 46.3732C50.4861 46.3039 50.4144 46.2088 50.3738 46.0994C50.3332 45.9899 50.3255 45.871 50.3516 45.7573L50.7176 44.1397C50.6127 44.0981 50.5216 44.0278 50.4547 43.9369C50.3879 43.8459 50.348 43.738 50.3396 43.6255C50.3312 43.5129 50.3546 43.4003 50.4073 43.3004C50.4599 43.2006 50.5396 43.1176 50.6372 43.0609L51.2372 42.7153C51.3383 42.6571 51.4541 42.6297 51.5705 42.6363C51.687 42.6429 51.799 42.6833 51.8928 42.7526C51.9866 42.8218 52.0582 42.9169 52.0989 43.0263C52.1395 43.1356 52.1474 43.2544 52.1216 43.3681L51.8252 44.6845L55.2332 42.7165C55.3591 42.6439 55.507 42.6195 55.6495 42.6477C55.792 42.676 55.9194 42.7549 56.0081 42.87C56.0968 42.9851 56.1407 43.1284 56.1317 43.2734C56.1227 43.4184 56.0614 43.5553 55.9592 43.6585L54.5204 45.1093L58.6652 42.7165C58.7943 42.6413 58.9469 42.617 59.0931 42.6483C59.2392 42.6797 59.3684 42.7644 59.4553 42.886C59.5422 43.0076 59.5806 43.1573 59.563 43.3057C59.5454 43.4541 59.473 43.5906 59.36 43.6885L55.9784 46.6393L62.7728 42.7165C62.9031 42.6423 63.0566 42.6196 63.2028 42.6529C63.349 42.6862 63.4775 42.7731 63.5629 42.8964C63.6483 43.0197 63.6843 43.1706 63.664 43.3192C63.6437 43.4678 63.5685 43.6034 63.4532 43.6993L60.3788 46.2241L66.4544 42.7165C66.585 42.6267 66.746 42.5926 66.9018 42.6215C67.0577 42.6504 67.1956 42.74 67.2854 42.8707C67.3751 43.0013 67.4093 43.1623 67.3804 43.3181C67.3515 43.474 67.2618 43.6119 67.1312 43.7017L64.2428 46.0381L69.1424 43.2097C69.2689 43.1377 69.4172 43.1141 69.5598 43.1433C69.7024 43.1725 69.8294 43.2526 69.9174 43.3686C70.0053 43.4845 70.0481 43.6285 70.0378 43.7737C70.0274 43.9189 69.9647 44.0553 69.8612 44.1577L66.4688 47.4769L69.9524 45.4657C70.0715 45.3964 70.211 45.3704 70.347 45.3923C70.4831 45.4142 70.6074 45.4825 70.6988 45.5857C70.7908 45.6881 70.8447 45.8191 70.8512 45.9567C70.8578 46.0942 70.8167 46.2298 70.7348 46.3405L69.2084 48.4177L70.658 47.5813C70.7699 47.5157 70.9002 47.4885 71.0291 47.5036C71.1579 47.5188 71.2783 47.5755 71.372 47.6653C71.564 47.8477 71.6132 48.1369 71.4932 48.3733L71.1968 48.9529C71.372 48.9313 71.6132 49.0573 71.726 49.2529C71.7657 49.321 71.7915 49.3964 71.802 49.4746C71.8124 49.5528 71.8073 49.6322 71.7869 49.7084C71.7665 49.7846 71.7312 49.856 71.683 49.9185C71.6349 49.981 71.5749 50.0333 71.5064 50.0725L70.1024 50.8837C69.9903 50.9477 69.8605 50.9739 69.7324 50.9584C69.6042 50.9429 69.4844 50.8866 69.3908 50.7978C69.2971 50.7089 69.2345 50.5923 69.2122 50.4652C69.19 50.338 69.2093 50.207 69.2672 50.0917L69.5 49.6333L67.3256 50.8885C67.2064 50.9582 67.0667 50.9846 66.9303 50.9632C66.7938 50.9417 66.669 50.8738 66.5769 50.7708C66.4848 50.6679 66.4312 50.5363 66.425 50.3983C66.4189 50.2603 66.4606 50.1244 66.5432 50.0137L68.0696 47.9377L62.9444 50.8969C62.8179 50.9689 62.6696 50.9925 62.527 50.9633C62.3844 50.934 62.2573 50.854 62.1694 50.738C62.0815 50.622 62.0387 50.478 62.049 50.3329C62.0594 50.1877 62.1221 50.0512 62.2256 49.9489L65.618 46.6285L58.2104 50.9053C58.0798 50.9789 57.9263 51.0009 57.7803 50.9671C57.6343 50.9332 57.5062 50.8459 57.4213 50.7223C57.3364 50.5987 57.3009 50.4479 57.3216 50.2994C57.3424 50.1509 57.418 50.0156 57.5336 49.9201L60.4232 47.5837L54.6548 50.9125C54.5638 50.9656 54.4602 50.9934 54.3548 50.9929L54.3584 50.9941Z" fill="#EA6958"/>
<path d="M23.2328 71.3965C23.1037 71.3968 22.978 71.3554 22.8743 71.2786C22.7706 71.2018 22.6944 71.0935 22.6571 70.97C22.6198 70.8464 22.6233 70.7141 22.6671 70.5927C22.7109 70.4713 22.7928 70.3673 22.9004 70.2961L36.6272 61.2073L20.0348 70.7857C19.8983 70.8675 19.7348 70.8917 19.5805 70.853C19.4261 70.8143 19.2934 70.7158 19.2116 70.5793C19.1298 70.4428 19.1056 70.2793 19.1443 70.1249C19.183 69.9706 19.2815 69.8379 19.418 69.7561L20.7128 68.9533L20.0336 69.3445C19.8975 69.4271 19.7343 69.4522 19.5796 69.4144C19.425 69.3766 19.2918 69.2789 19.2092 69.1429C19.1266 69.0068 19.1015 68.8435 19.1393 68.6889C19.1771 68.5343 19.2747 68.4011 19.4108 68.3185L28.9856 62.2369L20.0324 67.4065C19.8962 67.4888 19.7329 67.5135 19.5784 67.4754C19.4239 67.4373 19.2909 67.3393 19.2086 67.2031C19.1263 67.0669 19.1015 66.9035 19.1397 66.7491C19.1778 66.5946 19.2758 66.4616 19.412 66.3793L27.2036 61.4617L20.03 65.6017C19.8935 65.6835 19.73 65.7077 19.5757 65.669C19.4213 65.6303 19.2886 65.5318 19.2068 65.3953C19.125 65.2587 19.1008 65.0953 19.1395 64.9409C19.1782 64.7866 19.2767 64.6539 19.4132 64.5721L20.2664 64.0441L20.03 64.1797C19.895 64.253 19.7371 64.2719 19.5886 64.2325C19.4401 64.193 19.3123 64.0982 19.2315 63.9675C19.1508 63.8368 19.1231 63.6802 19.1542 63.5297C19.1853 63.3793 19.2728 63.2464 19.3988 63.1585L35.8928 52.2961L20.0276 61.4557C19.8911 61.5375 19.7276 61.5617 19.5733 61.523C19.4189 61.4843 19.2862 61.3858 19.2044 61.2493C19.1226 61.1128 19.0984 60.9493 19.1371 60.7949C19.1758 60.6406 19.2743 60.5079 19.4108 60.4261L20.6528 59.6545L20.0264 60.0169C19.8913 60.0952 19.731 60.1178 19.5796 60.0798C19.4281 60.0418 19.2974 59.9463 19.2152 59.8135C19.1331 59.6808 19.1059 59.5212 19.1395 59.3687C19.1731 59.2162 19.2648 59.0828 19.3952 58.9969L36.0092 48.0457L20.0264 57.2725C19.8906 57.3521 19.729 57.3751 19.5764 57.3366C19.4238 57.2982 19.2924 57.2013 19.2106 57.0669C19.1287 56.9324 19.103 56.7713 19.1388 56.618C19.1747 56.4648 19.2694 56.3318 19.4024 56.2477L31.0616 48.7777L20.0252 55.1497C19.8901 55.2221 19.7325 55.2402 19.5845 55.2003C19.4365 55.1603 19.3093 55.0653 19.229 54.9348C19.1487 54.8042 19.1213 54.6479 19.1525 54.4978C19.1836 54.3477 19.2708 54.2152 19.3964 54.1273L34.826 44.0389L20.0228 52.5853C19.8875 52.6586 19.7292 52.6772 19.5806 52.6374C19.432 52.5975 19.3043 52.5021 19.2239 52.3709C19.1434 52.2398 19.1163 52.0827 19.1482 51.9322C19.1801 51.7816 19.2685 51.649 19.3952 51.5617L32.9288 42.7825L20.0204 50.2345C19.8853 50.3069 19.7277 50.325 19.5797 50.2851C19.4317 50.2451 19.3045 50.1501 19.2242 50.0196C19.1439 49.889 19.1165 49.7327 19.1477 49.5826C19.1788 49.4325 19.266 49.3 19.3916 49.2121L32.2916 40.7881L20.0192 47.8717C19.8835 47.9548 19.7203 47.9805 19.5656 47.9432C19.4109 47.906 19.2773 47.8088 19.1942 47.6731C19.1111 47.5373 19.0854 47.3742 19.1226 47.2194C19.1599 47.0647 19.2571 46.9312 19.3928 46.8481L28.6508 40.8757L20.018 45.8593C19.8827 45.9403 19.7208 45.9648 19.5676 45.9274C19.4143 45.8901 19.2819 45.7938 19.1991 45.6596C19.1163 45.5253 19.0896 45.3638 19.125 45.2101C19.1604 45.0563 19.2548 44.9227 19.388 44.8381L29.996 37.8721L20.018 43.6333C19.8818 43.7156 19.7185 43.7403 19.564 43.7022C19.4095 43.6641 19.2765 43.5661 19.1942 43.4299C19.1119 43.2937 19.0871 43.1303 19.1253 42.9759C19.1634 42.8214 19.2614 42.6884 19.3976 42.6061L20.0588 42.1897L20.0168 42.2137C19.8823 42.2904 19.7233 42.312 19.5731 42.2742C19.423 42.2364 19.2932 42.1419 19.2111 42.0107C19.1289 41.8794 19.1007 41.7214 19.1324 41.5698C19.164 41.4183 19.253 41.2848 19.3808 41.1973L30.7004 33.5329L20.0168 39.7009C19.8827 39.7796 19.7231 39.8027 19.5722 39.7653C19.4212 39.7278 19.291 39.6328 19.2092 39.5005C19.1263 39.3692 19.0976 39.2109 19.1291 39.0589C19.1607 38.9069 19.2501 38.7731 19.3784 38.6857L29.5856 31.7221L20.0168 37.2457C19.8813 37.3228 19.7211 37.3442 19.5701 37.3052C19.4191 37.2663 19.2892 37.1701 19.2079 37.037C19.1267 36.9039 19.1004 36.7444 19.1347 36.5923C19.1689 36.4402 19.2611 36.3074 19.3916 36.2221L20.2436 35.6761L20.0156 35.8081C19.8819 35.8878 19.7224 35.9123 19.5709 35.8767C19.4194 35.841 19.2877 35.7478 19.2036 35.6168C19.1195 35.4858 19.0896 35.3273 19.1202 35.1747C19.1508 35.0221 19.2395 34.8873 19.3676 34.7989L29.4104 27.6493L20.0144 33.0745C19.879 33.1532 19.7181 33.1759 19.5662 33.1376C19.4143 33.0994 19.2834 33.0032 19.2014 32.8697C19.1195 32.7362 19.093 32.5759 19.1276 32.4231C19.1623 32.2704 19.2553 32.1372 19.3868 32.0521L20.2856 31.4665C20.1483 31.5021 20.0028 31.488 19.875 31.4266C19.7471 31.3652 19.6451 31.2604 19.5872 31.131C19.5292 31.0015 19.519 30.8557 19.5583 30.7194C19.5976 30.5831 19.684 30.4652 19.802 30.3865L27.7508 25.0453C27.6835 24.986 27.6302 24.9124 27.5949 24.8299C27.5596 24.7474 27.5432 24.6581 27.5467 24.5684C27.5503 24.4788 27.5738 24.391 27.6155 24.3116C27.6573 24.2322 27.7162 24.1631 27.788 24.1093L34.2284 19.3477C34.2272 19.241 34.2543 19.1359 34.307 19.0431C34.3597 18.9503 34.4361 18.8732 34.5284 18.8197L36.446 17.7133C36.5787 17.6373 36.7354 17.6148 36.8841 17.6505C37.0328 17.6861 37.1623 17.7772 37.2461 17.9051C37.3299 18.033 37.3617 18.1881 37.335 18.3387C37.3083 18.4893 37.2251 18.624 37.1024 18.7153L37.0304 18.7681L37.4684 18.5149C37.5352 18.4732 37.6096 18.4451 37.6873 18.4321C37.765 18.4192 37.8444 18.4217 37.9211 18.4395C37.9979 18.4572 38.0703 18.49 38.1344 18.5357C38.1985 18.5815 38.2529 18.6395 38.2946 18.7063C38.3363 18.7731 38.3644 18.8475 38.3773 18.9251C38.3903 19.0028 38.3878 19.0823 38.37 19.159C38.3522 19.2357 38.3195 19.3082 38.2738 19.3723C38.228 19.4364 38.17 19.4908 38.1032 19.5325L35.096 21.5533L38.6924 19.4773C38.8278 19.3985 38.9887 19.3759 39.1406 19.4141C39.2925 19.4524 39.4234 19.5486 39.5054 19.6821C39.5873 19.8156 39.6138 19.9758 39.5792 20.1286C39.5445 20.2814 39.4515 20.4146 39.32 20.4997L38.774 20.8561L39.74 20.2981C39.8737 20.2184 40.0332 20.1938 40.1847 20.2295C40.3362 20.2652 40.4679 20.3584 40.552 20.4893C40.6361 20.6203 40.666 20.7789 40.6354 20.9315C40.6048 21.0841 40.5161 21.2188 40.388 21.3073L30.3404 28.4593L41.7476 21.8737C41.8835 21.7908 42.0468 21.7652 42.2015 21.8027C42.3562 21.8402 42.4897 21.9376 42.5726 22.0735C42.6555 22.2094 42.681 22.3726 42.6436 22.5274C42.6061 22.6821 42.5087 22.8156 42.3728 22.8985L41.5376 23.4349L42.8048 22.7029C42.9392 22.6249 43.0987 22.6021 43.2496 22.6393C43.4006 22.6765 43.5311 22.7708 43.6139 22.9024C43.6966 23.034 43.7251 23.1926 43.6932 23.3447C43.6614 23.4969 43.5718 23.6307 43.4432 23.7181L33.23 30.6865L44.6072 24.1177C44.7417 24.041 44.9007 24.0193 45.0509 24.0572C45.2011 24.095 45.3308 24.1894 45.4129 24.3207C45.4951 24.452 45.5233 24.6099 45.4916 24.7615C45.46 24.9131 45.371 25.0466 45.2432 25.1341L33.9296 32.7949L46.4516 25.5649C46.5878 25.4826 46.7511 25.4578 46.9056 25.496C47.0601 25.5341 47.1931 25.6321 47.2754 25.7683C47.3577 25.9045 47.3825 26.0678 47.3443 26.2223C47.3062 26.3768 47.2082 26.5098 47.072 26.5921L46.418 27.0037L47.4932 26.3821C47.6281 26.3104 47.7852 26.2928 47.9326 26.3328C48.08 26.3728 48.2067 26.4674 48.2869 26.5974C48.3671 26.7274 48.3948 26.883 48.3644 27.0327C48.334 27.1824 48.2477 27.3149 48.1232 27.4033L37.5068 34.3741L49.1288 27.6649C49.2645 27.5818 49.4277 27.5561 49.5824 27.5933C49.7372 27.6306 49.8707 27.7277 49.9538 27.8635C50.0369 27.9992 50.0626 28.1624 50.0254 28.3171C49.9881 28.4718 49.8909 28.6054 49.7552 28.6885L40.4984 34.6597L50.6072 28.8229C50.7424 28.746 50.9021 28.7247 51.0527 28.7633C51.2034 28.8019 51.3331 28.8975 51.4146 29.0299C51.4962 29.1623 51.5231 29.3212 51.4898 29.4731C51.4565 29.625 51.3655 29.758 51.236 29.8441L38.3324 38.2705L52.3412 30.1837C52.4769 30.1005 52.6402 30.0746 52.795 30.1117C52.9498 30.1488 53.0836 30.2459 53.1668 30.3817C53.25 30.5174 53.2759 30.6807 53.2388 30.8355C53.2017 30.9903 53.1045 31.1241 52.9688 31.2073L39.4436 39.9817L52.9604 32.1781C53.0956 32.1012 53.2553 32.0799 53.4059 32.1185C53.5566 32.1571 53.6863 32.2527 53.7678 32.3851C53.8494 32.5175 53.8763 32.6764 53.843 32.8283C53.8097 32.9802 53.7187 33.1132 53.5892 33.1993L38.1584 43.2889L52.964 34.7413C53.0998 34.6617 53.2614 34.6387 53.414 34.6771C53.5666 34.7156 53.698 34.8125 53.7798 34.9469C53.8617 35.0813 53.8874 35.2425 53.8516 35.3957C53.8157 35.549 53.721 35.682 53.588 35.7661L41.9288 43.2361L52.9664 36.8629C53.1015 36.7846 53.2618 36.762 53.4132 36.7999C53.5647 36.8379 53.6954 36.9334 53.7776 37.0662C53.8597 37.199 53.8869 37.3586 53.8533 37.5111C53.8197 37.6636 53.728 37.7969 53.5976 37.8829L36.9824 48.8353L52.9688 39.6061C53.1053 39.5243 53.2688 39.5001 53.4231 39.5388C53.5775 39.5775 53.7102 39.6759 53.792 39.8125C53.8738 39.949 53.898 40.1124 53.8593 40.2668C53.8206 40.4212 53.7221 40.5539 53.5856 40.6357L52.37 41.3893L52.97 41.0437C53.1051 40.9651 53.2656 40.9424 53.4171 40.9806C53.5687 41.0187 53.6994 41.1145 53.7812 41.2477C53.8629 41.3807 53.8898 41.5402 53.8562 41.6926C53.8227 41.8451 53.7312 41.9785 53.6012 42.0649L37.1108 52.9249L52.9736 43.7665C53.1101 43.6847 53.2736 43.6605 53.4279 43.6992C53.5823 43.7379 53.715 43.8363 53.7968 43.9729C53.8786 44.1094 53.9028 44.2728 53.8641 44.4272C53.8254 44.5816 53.7269 44.7143 53.5904 44.7961L52.706 45.3445L52.9772 45.1885C53.1134 45.1062 53.2767 45.0814 53.4312 45.1196C53.5857 45.1577 53.7187 45.2557 53.801 45.3919C53.8833 45.5281 53.9081 45.6914 53.8699 45.8459C53.8318 46.0004 53.7338 46.1334 53.5976 46.2157L45.8072 51.1333L52.9796 46.9933C53.047 46.9524 53.1217 46.9252 53.1996 46.9132C53.2775 46.9012 53.357 46.9046 53.4336 46.9233C53.5101 46.9421 53.5822 46.9757 53.6458 47.0223C53.7093 47.0689 53.7631 47.1275 53.804 47.1949C53.8449 47.2622 53.8721 47.337 53.8841 47.4149C53.8961 47.4928 53.8927 47.5723 53.8739 47.6488C53.8552 47.7254 53.8216 47.7975 53.775 47.8611C53.7284 47.9246 53.6698 47.9784 53.6024 48.0193L44.0324 54.0961L52.9808 48.9301C53.1173 48.8483 53.2808 48.8241 53.4351 48.8628C53.5895 48.9015 53.7222 48.9999 53.804 49.1365C53.8858 49.273 53.91 49.4365 53.8713 49.5908C53.8326 49.7452 53.7341 49.8779 53.5976 49.9597L52.2872 50.7733L52.9832 50.3713C53.1185 50.2874 53.2815 50.2607 53.4364 50.2971C53.5914 50.3334 53.7255 50.4298 53.8094 50.5651C53.8933 50.7003 53.92 50.8634 53.8836 51.0183C53.8473 51.1733 53.7509 51.3074 53.6156 51.3913L39.8924 60.4765L52.9856 52.9177C53.121 52.8389 53.2819 52.8163 53.4338 52.8545C53.5857 52.8928 53.7166 52.989 53.7986 53.1225C53.8805 53.256 53.907 53.4162 53.8724 53.569C53.8377 53.7218 53.7447 53.855 53.6132 53.9401L45.7376 59.0689L52.988 54.8833C53.1234 54.8109 53.2814 54.7931 53.4295 54.8334C53.5776 54.8738 53.7047 54.9693 53.7846 55.1004C53.8646 55.2314 53.8914 55.3881 53.8595 55.5383C53.8276 55.6885 53.7395 55.8208 53.6132 55.9081L50.5808 57.8605L52.9904 56.4697C53.1245 56.3844 53.2871 56.3559 53.4422 56.3904C53.5974 56.425 53.7325 56.5197 53.8178 56.6539C53.9031 56.788 53.9316 56.9506 53.8971 57.1057C53.8625 57.2609 53.7677 57.396 53.6336 57.4813L45.374 63.2425L52.9928 58.8445C53.1266 58.7587 53.2891 58.7296 53.4443 58.7636C53.5996 58.7976 53.735 58.8919 53.8208 59.0257C53.9066 59.1595 53.9357 59.3219 53.9017 59.4772C53.8677 59.6325 53.7734 59.7679 53.6396 59.8537L48.0332 63.8305L52.9952 60.9649C53.1283 60.8932 53.2835 60.8743 53.43 60.9119C53.5764 60.9495 53.7033 61.0409 53.7853 61.1679C53.8674 61.2949 53.8985 61.4482 53.8727 61.5971C53.8468 61.7461 53.7657 61.8798 53.6456 61.9717L50.5088 64.2253L52.9964 62.7901C53.1291 62.7141 53.2858 62.6916 53.4345 62.7273C53.5832 62.7629 53.7127 62.854 53.7965 62.9819C53.8803 63.1099 53.9121 63.2649 53.8854 63.4155C53.8587 63.5661 53.7755 63.7008 53.6528 63.7921L52.2044 64.8601L52.9976 64.4017C53.1276 64.3272 53.2807 64.304 53.4268 64.3367C53.573 64.3694 53.7017 64.4555 53.7875 64.5783C53.8734 64.701 53.9103 64.8514 53.8909 64.9999C53.8715 65.1484 53.7973 65.2843 53.6828 65.3809L51.9668 66.8209L52.9988 66.2257C53.1127 66.1599 53.245 66.1333 53.3755 66.1501C53.5059 66.1668 53.6273 66.226 53.7208 66.3184C53.8144 66.4109 53.8749 66.5315 53.8932 66.6618C53.9115 66.792 53.8865 66.9246 53.822 67.0393L52.6388 69.1477L53.0024 68.9377C53.0705 68.8978 53.1459 68.8718 53.2241 68.8613C53.3023 68.8508 53.3818 68.8559 53.4581 68.8763C53.5343 68.8967 53.6057 68.9321 53.6682 68.9803C53.7307 69.0285 53.783 69.0887 53.822 69.1573C53.8617 69.2254 53.8875 69.3008 53.898 69.379C53.9085 69.4571 53.9033 69.5366 53.8829 69.6128C53.8625 69.689 53.8272 69.7604 53.779 69.8229C53.7309 69.8854 53.6709 69.9377 53.6024 69.9769L51.344 71.2801C51.2301 71.3459 51.0978 71.3725 50.9673 71.3557C50.8369 71.339 50.7155 71.2798 50.622 71.1873C50.5285 71.0949 50.4679 70.9743 50.4496 70.844C50.4313 70.7138 50.4563 70.5811 50.5208 70.4665L51.704 68.3593L46.6352 71.2849C46.5052 71.3594 46.3521 71.3825 46.206 71.3499C46.0598 71.3172 45.9311 71.231 45.8453 71.1083C45.7594 70.9856 45.7225 70.8352 45.7419 70.6867C45.7613 70.5382 45.8355 70.4023 45.95 70.3057L47.6636 68.8669L43.4708 71.2885C43.3383 71.3659 43.1811 71.3893 43.0318 71.3538C42.8825 71.3182 42.7526 71.2265 42.6692 71.0977C42.5852 70.9695 42.5535 70.814 42.5805 70.6632C42.6075 70.5124 42.6912 70.3776 42.8144 70.2865L44.2676 69.2149L40.6736 71.2897C40.5403 71.367 40.3823 71.39 40.2324 71.354C40.0826 71.318 39.9523 71.2257 39.8687 71.0962C39.785 70.9667 39.7544 70.81 39.7832 70.6586C39.812 70.5072 39.8979 70.3727 40.0232 70.2829L43.16 68.0281L37.5056 71.2933C37.372 71.3703 37.2138 71.393 37.0639 71.3565C36.914 71.32 36.784 71.2271 36.7007 71.0973C36.6175 70.9674 36.5875 70.8104 36.6169 70.659C36.6463 70.5076 36.733 70.3733 36.8588 70.2841L42.4712 66.3037L33.8216 71.2969C33.7552 71.3391 33.6811 71.3679 33.6036 71.3815C33.526 71.3951 33.4466 71.3932 33.3698 71.3761C33.2929 71.359 33.2202 71.327 33.1558 71.2818C33.0913 71.2366 33.0364 71.1791 32.9942 71.1127C32.952 71.0463 32.9232 70.9722 32.9096 70.8946C32.896 70.8171 32.8978 70.7377 32.9149 70.6608C32.932 70.584 32.9641 70.5113 33.0093 70.4469C33.0545 70.3824 33.112 70.3275 33.1784 70.2853L41.4344 64.5277L29.7008 71.3017C29.5654 71.3741 29.4074 71.3919 29.2593 71.3515C29.1112 71.3112 28.9841 71.2156 28.9042 71.0846C28.8242 70.9535 28.7974 70.7968 28.8293 70.6466C28.8612 70.4965 28.9493 70.3642 29.0756 70.2769L32.1032 68.3281L26.9468 71.3041C26.8114 71.3828 26.6505 71.4055 26.4986 71.3672C26.3467 71.329 26.2158 71.2328 26.1338 71.0993C26.0519 70.9658 26.0254 70.8055 26.06 70.6527C26.0947 70.5 26.1877 70.3668 26.3192 70.2817L34.196 65.1517L23.534 71.3077C23.4429 71.3607 23.3394 71.3884 23.234 71.3881L23.2328 71.3965Z" fill="#F4C940"/>
<path d="M36.0248 46.1401C35.9009 46.14 35.7801 46.1015 35.6789 46.03C35.5777 45.9585 35.5012 45.8574 35.4598 45.7406C35.4183 45.6239 35.4141 45.4972 35.4476 45.3779C35.4811 45.2586 35.5506 45.1526 35.6468 45.0745L37.334 43.7028L34.1192 45.5593C33.9892 45.6337 33.8361 45.6569 33.69 45.6242C33.5438 45.5916 33.4151 45.5054 33.3292 45.3827C33.2434 45.26 33.2065 45.1096 33.2259 44.961C33.2453 44.8125 33.3195 44.6766 33.434 44.5801L37.8728 40.854L32.012 44.2368C31.8785 44.3229 31.7162 44.3525 31.561 44.3189C31.4057 44.2854 31.2701 44.1916 31.184 44.0581C31.0979 43.9245 31.0684 43.7623 31.1019 43.607C31.1354 43.4517 31.2293 43.3161 31.3628 43.2301L32.732 42.2508L31.0724 43.2085C30.9415 43.2828 30.7874 43.3052 30.6407 43.2712C30.4941 43.2372 30.3655 43.1494 30.2806 43.0251C30.1957 42.9007 30.1607 42.749 30.1824 42.6001C30.2042 42.4511 30.2811 42.3157 30.398 42.2208L35.3744 38.2416L30.0536 41.3137C29.9212 41.3901 29.7646 41.4131 29.6158 41.3779C29.467 41.3428 29.3372 41.2522 29.253 41.1246C29.1687 40.997 29.1364 40.8421 29.1625 40.6914C29.1886 40.5408 29.2713 40.4058 29.3936 40.3141L32.2292 38.1936L29.6732 39.6684C29.5413 39.7431 29.386 39.765 29.2385 39.7299C29.0911 39.6947 28.9624 39.6051 28.8784 39.4789C28.7943 39.3528 28.7612 39.1995 28.7855 39.0499C28.8098 38.9003 28.8899 38.7654 29.0096 38.6725L31.2908 36.9312L29.7236 37.8348C29.5994 37.907 29.4536 37.9322 29.3124 37.9059C29.1713 37.8796 29.0442 37.8036 28.9543 37.6917C28.8645 37.5797 28.8177 37.4392 28.8226 37.2958C28.8274 37.1523 28.8836 37.0153 28.9808 36.9096L31.7312 33.9168L31.604 33.9912C31.5357 34.0313 31.4602 34.0574 31.3818 34.0681C31.3034 34.0788 31.2237 34.0739 31.1472 34.0537C31.0707 34.0335 30.9989 33.9983 30.9361 33.9503C30.8732 33.9022 30.8205 33.8422 30.7809 33.7736C30.7414 33.7051 30.7157 33.6294 30.7056 33.551C30.6954 33.4725 30.7008 33.3928 30.7215 33.3164C30.7422 33.2401 30.7779 33.1686 30.8264 33.106C30.8748 33.0435 30.9352 32.9912 31.004 32.952L34.5272 30.918C34.6515 30.8451 34.7979 30.8193 34.9396 30.8454C35.0813 30.8714 35.2089 30.9477 35.2991 31.0601C35.3893 31.1726 35.4359 31.3137 35.4306 31.4577C35.4252 31.6017 35.3682 31.739 35.27 31.8444L32.5196 34.8372L38.8004 31.2108C38.9325 31.134 39.089 31.1104 39.2379 31.1451C39.3868 31.1797 39.5169 31.2698 39.6016 31.3971C39.6863 31.5243 39.7192 31.6791 39.6936 31.8299C39.6681 31.9806 39.5859 32.1158 39.464 32.208L37.184 33.948L40.4036 32.0892C40.5362 32.0099 40.6944 31.9849 40.845 32.0193C40.9957 32.0537 41.1273 32.1449 41.2124 32.2739C41.2975 32.4029 41.3295 32.5598 41.3018 32.7118C41.2741 32.8639 41.1887 32.9994 41.0636 33.09L38.2256 35.2116L41.648 33.2364C41.7789 33.1621 41.933 33.1397 42.0797 33.1737C42.2263 33.2077 42.3548 33.2955 42.4397 33.4198C42.5246 33.5442 42.5597 33.6959 42.538 33.8448C42.5162 33.9938 42.4393 34.1292 42.3224 34.224L37.346 38.2032L42.7868 35.0616C42.9203 34.9833 43.079 34.9596 43.2296 34.9955C43.3802 35.0314 43.5111 35.1241 43.5949 35.2542C43.6787 35.3844 43.709 35.5419 43.6794 35.6939C43.6498 35.8459 43.5626 35.9805 43.436 36.0696L42.0692 37.0476L43.2056 36.3912C43.3355 36.3168 43.4887 36.2936 43.6348 36.3263C43.781 36.3589 43.9097 36.4451 43.9955 36.5678C44.0814 36.6905 44.1183 36.8409 44.0989 36.9895C44.0795 37.138 44.0053 37.2739 43.8908 37.3704L39.4532 41.0952L43.2848 38.8825C43.4152 38.806 43.5698 38.782 43.7173 38.8152C43.8647 38.8484 43.9941 38.9363 44.0792 39.0612C44.1643 39.1858 44.1996 39.3378 44.178 39.4871C44.1564 39.6364 44.0797 39.7722 43.9628 39.8676L42.278 41.2356L42.6212 41.0377C42.6893 40.9979 42.7647 40.9721 42.8429 40.9617C42.9211 40.9512 43.0005 40.9563 43.0767 40.9767C43.1529 40.9972 43.2243 41.0325 43.2868 41.0806C43.3493 41.1287 43.4016 41.1888 43.4408 41.2573C43.4805 41.3254 43.5063 41.4007 43.5168 41.4789C43.5272 41.5571 43.5221 41.6366 43.5017 41.7128C43.4813 41.789 43.446 41.8604 43.3978 41.9229C43.3497 41.9853 43.2897 42.0377 43.2212 42.0768L36.3236 46.0597C36.2326 46.1128 36.1302 46.1406 36.0248 46.1401Z" fill="white"/>
<path d="M29.3852 71.4001C29.2584 71.4004 29.1348 71.3606 29.0321 71.2864C28.9293 71.2121 28.8527 71.1073 28.8133 70.9868C28.7738 70.8663 28.7736 70.7364 28.8125 70.6158C28.8514 70.4952 28.9276 70.39 29.03 70.3153L34.5296 66.2761L29.636 69.1009C29.5016 69.1789 29.3421 69.2017 29.1912 69.1645C29.0402 69.1273 28.9097 69.0329 28.8269 68.9013C28.7442 68.7698 28.7157 68.6112 28.7475 68.459C28.7794 68.3069 28.869 68.173 28.9976 68.0857L30.3224 67.1797L29.636 67.5757C29.5018 67.6524 29.3431 67.6744 29.1931 67.6369C29.043 67.5995 28.9132 67.5057 28.8308 67.3749C28.7483 67.2441 28.7194 67.0865 28.7503 66.935C28.7812 66.7835 28.8693 66.6498 28.9964 66.5617L30.86 65.2801L29.636 65.9857C29.5021 66.0625 29.3437 66.0848 29.1937 66.0478C29.0438 66.0109 28.9139 65.9175 28.831 65.7872C28.7482 65.6569 28.7188 65.4997 28.7489 65.3482C28.779 65.1968 28.8664 65.0628 28.9928 64.9741L31.7072 63.0841L29.636 64.2793C29.5036 64.3644 29.343 64.394 29.1889 64.3616C29.0349 64.3293 28.8998 64.2375 28.8128 64.1063C28.7259 63.975 28.6942 63.8148 28.7245 63.6603C28.7548 63.5059 28.8447 63.3695 28.9748 63.2809L35.1932 58.6093L29.636 61.8169C29.3636 61.9777 29.0132 61.8949 28.838 61.6321C28.6628 61.3693 28.7192 61.0153 28.9688 60.8221L34.298 56.7145L29.6348 59.4061C29.5015 59.4834 29.3435 59.5064 29.1936 59.4704C29.0438 59.4344 28.9135 59.3421 28.8299 59.2126C28.7462 59.0831 28.7156 58.9264 28.7444 58.775C28.7732 58.6236 28.8591 58.489 28.9844 58.3993L29.4812 58.0429C29.352 58.0752 29.2156 58.0636 29.0937 58.0099C28.9718 57.9563 28.8712 57.8635 28.8078 57.7464C28.7444 57.6292 28.7218 57.4943 28.7436 57.3628C28.7654 57.2314 28.8302 57.111 28.928 57.0205L31.2812 54.8473L29.6348 55.7977C29.5184 55.8646 29.383 55.8905 29.2502 55.8714C29.1173 55.8523 28.9947 55.7891 28.902 55.6921C28.8092 55.5951 28.7517 55.4698 28.7386 55.3362C28.7255 55.2026 28.7575 55.0685 28.8296 54.9553L29.852 53.3581C29.7109 53.4014 29.5587 53.3912 29.4246 53.3294C29.2906 53.2675 29.184 53.1584 29.1253 53.023C29.0666 52.8875 29.06 52.7351 29.1066 52.595C29.1532 52.455 29.2498 52.337 29.378 52.2637L31.3652 51.1165C31.4816 51.0496 31.617 51.0236 31.7498 51.0427C31.8827 51.0619 32.0053 51.125 32.098 51.222C32.1908 51.3191 32.2483 51.4444 32.2614 51.578C32.2745 51.7115 32.2425 51.8457 32.1704 51.9589L31.1672 53.5273L35.348 51.1141C35.4758 51.0376 35.6275 51.0116 35.7735 51.0409C35.9195 51.0703 36.0493 51.153 36.1376 51.273C36.2258 51.3929 36.2663 51.5414 36.251 51.6895C36.2357 51.8376 36.1657 51.9747 36.0548 52.0741L33.7016 54.2461L39.1268 51.1153C39.2601 51.038 39.4181 51.0149 39.568 51.051C39.7178 51.087 39.8481 51.1793 39.9317 51.3088C40.0154 51.4382 40.046 51.5949 40.0172 51.7463C39.9884 51.8978 39.9025 52.0323 39.7772 52.1221L39.4676 52.3453L41.4944 51.1741C41.7668 51.0145 42.1172 51.0961 42.2924 51.3589C42.4676 51.6217 42.4112 51.9757 42.1616 52.1689L36.8348 56.2741L43.1888 52.6057C43.321 52.5299 43.4772 52.5073 43.6255 52.5425C43.7738 52.5776 43.9032 52.6679 43.9873 52.795C44.0715 52.9221 44.1041 53.0764 44.0786 53.2267C44.0531 53.3769 43.9714 53.5119 43.85 53.6041L37.6268 58.2793L43.3652 54.9661C43.4993 54.8808 43.6619 54.8523 43.817 54.8868C43.9722 54.9214 44.1073 55.0161 44.1926 55.1503C44.2779 55.2844 44.3064 55.447 44.2719 55.6021C44.2373 55.7573 44.1425 55.8924 44.0084 55.9777L41.2964 57.8665L43.3688 56.6701C43.503 56.5933 43.6617 56.5714 43.8117 56.6088C43.9618 56.6462 44.0915 56.7401 44.174 56.8709C44.2565 57.0017 44.2853 57.1592 44.2545 57.3107C44.2236 57.4622 44.1355 57.596 44.0084 57.6841L42.1472 58.9645L43.3724 58.2577C43.5068 58.1797 43.6663 58.1568 43.8172 58.1941C43.9682 58.2313 44.0987 58.3256 44.1815 58.4572C44.2642 58.5888 44.2927 58.7474 44.2608 58.8995C44.229 59.0517 44.1394 59.1855 44.0108 59.2729L42.6872 60.1765L43.3748 59.7805C43.5077 59.7037 43.6649 59.6808 43.8142 59.7164C43.9634 59.752 44.0934 59.8434 44.1773 59.9719C44.2612 60.1004 44.2927 60.2561 44.2653 60.4071C44.2379 60.5581 44.1537 60.6929 44.03 60.7837L38.5256 64.8265L43.3796 62.0245C43.5105 61.9456 43.6665 61.9197 43.8158 61.9521C43.9652 61.9846 44.0964 62.0729 44.1828 62.1989C44.2691 62.325 44.304 62.4793 44.2803 62.6302C44.2566 62.7812 44.176 62.9174 44.0552 63.0109L39.8924 66.3541L43.3832 64.3381C43.515 64.2664 43.6689 64.2466 43.8145 64.2825C43.9602 64.3185 44.0872 64.4076 44.1705 64.5325C44.2538 64.6573 44.2874 64.8087 44.2647 64.957C44.2421 65.1054 44.1648 65.2398 44.048 65.3341L43.532 65.7277C43.6603 65.6934 43.7964 65.7028 43.9188 65.7541C44.0413 65.8055 44.1432 65.8961 44.2087 66.0117C44.2741 66.1272 44.2994 66.2612 44.2805 66.3927C44.2617 66.5241 44.1997 66.6456 44.1044 66.7381L42.9632 67.8505L43.3892 67.6045C43.5077 67.5361 43.646 67.5102 43.7812 67.5312C43.9165 67.5522 44.0404 67.6188 44.1326 67.72C44.2248 67.8211 44.2796 67.9507 44.288 68.0873C44.2964 68.2239 44.2579 68.3592 44.1788 68.4709L43.7432 69.0865C43.8714 69.0957 43.9932 69.146 44.0905 69.2299C44.1878 69.3138 44.2555 69.4268 44.2835 69.5522C44.3116 69.6776 44.2984 69.8088 44.246 69.9261C44.1937 70.0434 44.1049 70.1408 43.9928 70.2037L42.1196 71.2849C42.0011 71.3533 41.8628 71.3791 41.7275 71.3581C41.5923 71.3371 41.4684 71.2705 41.3762 71.1694C41.284 71.0682 41.2292 70.9386 41.2208 70.8021C41.2124 70.6655 41.2509 70.5301 41.33 70.4185L41.6168 70.0129L39.4016 71.2909C39.275 71.3658 39.1252 71.3914 38.9809 71.363C38.8366 71.3345 38.7078 71.2539 38.6191 71.1366C38.5304 71.0192 38.488 70.8734 38.5 70.7268C38.5119 70.5801 38.5774 70.4431 38.684 70.3417L39.8264 69.2293L36.2408 71.2993C36.1088 71.3755 35.9528 71.3987 35.8044 71.364C35.6559 71.3294 35.5262 71.2396 35.4416 71.1128C35.357 70.9861 35.3238 70.8318 35.3488 70.6815C35.3737 70.5311 35.455 70.3959 35.576 70.3033L35.9672 70.0033L33.7124 71.3053C33.5816 71.3792 33.4279 71.4014 33.2815 71.3675C33.1352 71.3336 33.0069 71.246 32.922 71.1221C32.8371 70.9981 32.8018 70.8468 32.8231 70.6981C32.8443 70.5494 32.9206 70.4141 33.0368 70.3189L37.2008 66.9757L29.6804 71.3161C29.5894 71.3692 29.4858 71.397 29.3804 71.3965L29.3852 71.4001Z" fill="#486570"/>
<path d="M60.914 64.164C60.7971 64.1635 60.6828 64.1289 60.5852 64.0645C60.4876 64 60.4109 63.9085 60.3646 63.8012C60.3182 63.6938 60.3042 63.5752 60.3242 63.46C60.3442 63.3448 60.3974 63.2379 60.4772 63.1524L61.9964 61.548L58.6016 63.5076C58.4724 63.5856 58.3186 63.612 58.1708 63.5814C58.0231 63.5509 57.8923 63.4657 57.8046 63.3429C57.717 63.22 57.679 63.0686 57.6981 62.919C57.7173 62.7693 57.7922 62.6324 57.908 62.5356L60.0512 60.6684L58.436 61.5996C58.3135 61.6711 58.1697 61.6967 58.0301 61.6718C57.8905 61.647 57.7643 61.5733 57.674 61.464C57.5839 61.3549 57.5351 61.2175 57.5362 61.0759C57.5373 60.9344 57.5882 60.7978 57.68 60.69L59.378 58.7052L58.436 59.2488C58.3197 59.3159 58.1844 59.342 58.0515 59.3231C57.9186 59.3041 57.796 59.2412 57.7031 59.1443C57.6102 59.0474 57.5525 58.9222 57.5392 58.7886C57.5259 58.6551 57.5577 58.5209 57.6296 58.4076L58.0088 57.81C57.8982 57.7743 57.8005 57.7071 57.7275 57.6167C57.6545 57.5263 57.6094 57.4166 57.5978 57.3009C57.5863 57.1853 57.6086 57.0688 57.6622 56.9657C57.7158 56.8626 57.7983 56.7774 57.8996 56.7204L59.2928 55.9164C59.4091 55.8494 59.5444 55.8232 59.6773 55.8422C59.8102 55.8611 59.9328 55.9241 60.0257 56.021C60.1186 56.1178 60.1763 56.2431 60.1896 56.3766C60.2029 56.5101 60.1711 56.6443 60.0992 56.7576L59.954 56.9868L61.8092 55.9152C61.9317 55.8425 62.0762 55.8158 62.2167 55.84C62.3571 55.8642 62.4843 55.9378 62.5754 56.0474C62.6665 56.157 62.7155 56.2955 62.7137 56.438C62.7118 56.5805 62.6592 56.7177 62.5652 56.8248L60.8672 58.8084L64.8212 56.5272C64.9502 56.452 65.1026 56.4278 65.2485 56.4594C65.3944 56.4909 65.5232 56.5759 65.6096 56.6976C65.6961 56.8192 65.7343 56.9686 65.7167 57.1167C65.6992 57.2648 65.6272 57.4012 65.5148 57.4992L63.3716 59.3664L64.964 58.4472C65.0888 58.375 65.2353 58.3502 65.3769 58.3772C65.5185 58.4042 65.6456 58.4812 65.735 58.5943C65.8245 58.7073 65.8702 58.8487 65.8639 58.9927C65.8576 59.1367 65.7997 59.2736 65.7008 59.3784L64.1816 60.9828L64.964 60.5316C65.0784 60.4656 65.2114 60.4392 65.3423 60.4564C65.4732 60.4736 65.5948 60.5336 65.6882 60.627C65.7816 60.7204 65.8416 60.842 65.8588 60.9729C65.8761 61.1039 65.8496 61.2368 65.7836 61.3512L65.3096 62.1684C65.4309 62.1897 65.5426 62.248 65.6295 62.3352C65.7165 62.4224 65.7743 62.5343 65.7952 62.6557C65.8161 62.777 65.799 62.9019 65.7462 63.0131C65.6934 63.1244 65.6076 63.2166 65.5004 63.2772L64.1084 64.0812C63.994 64.1473 63.861 64.1737 63.7301 64.1565C63.5992 64.1392 63.4776 64.0792 63.3842 63.9859C63.2908 63.8925 63.2308 63.7709 63.2136 63.6399C63.1963 63.509 63.2228 63.376 63.2888 63.2616L63.6176 62.694L61.2128 64.0812C61.1218 64.1345 61.0182 64.1623 60.9128 64.1616L60.914 64.164Z" fill="#3D639B"/>
<path d="M36.3176 16.2672C36.2097 16.2677 36.1037 16.239 36.0108 16.1841C35.9179 16.1293 35.8416 16.0504 35.7898 15.9557C35.738 15.8611 35.7128 15.7542 35.7168 15.6464C35.7208 15.5386 35.7538 15.4338 35.8124 15.3432L37.0424 13.4316L34.436 14.9364C34.3085 15.0104 34.1582 15.0347 34.0138 15.0049C33.8695 14.9751 33.7411 14.8932 33.6533 14.7748C33.5655 14.6564 33.5243 14.5098 33.5376 14.363C33.551 14.2162 33.6179 14.0795 33.7256 13.9788L34.718 13.0452L34.4372 13.2072C34.3122 13.276 34.1668 13.2982 34.027 13.2698C33.8871 13.2415 33.7619 13.1644 33.6736 13.0523C33.5853 12.9402 33.5397 12.8004 33.5448 12.6578C33.5499 12.5152 33.6055 12.3791 33.7016 12.2736L35.5868 10.2888L34.436 10.9536C34.312 11.0243 34.1671 11.0488 34.0267 11.0229C33.8864 10.997 33.7598 10.9223 33.6692 10.812C33.5796 10.7009 33.5324 10.5616 33.5362 10.4189C33.5399 10.2762 33.5943 10.1395 33.6896 10.0332L35.9084 7.56005L34.436 8.40965C34.3078 8.48332 34.1569 8.50706 34.0123 8.47633C33.8677 8.4456 33.7395 8.36256 33.6524 8.24313C33.5652 8.1237 33.5252 7.9763 33.5401 7.8292C33.5549 7.6821 33.6235 7.54566 33.7328 7.44605L34.3412 6.89405C34.2113 6.94104 34.0692 6.94177 33.9388 6.89611C33.8084 6.85046 33.6978 6.76122 33.6256 6.64347C33.5534 6.52571 33.524 6.38664 33.5425 6.24975C33.5609 6.11285 33.626 5.98651 33.7268 5.89205L34.3076 5.34605C34.1894 5.38157 34.063 5.37974 33.9458 5.34081C33.8287 5.30189 33.7264 5.22776 33.6529 5.12855C33.5794 5.02933 33.5383 4.90986 33.5352 4.78643C33.5321 4.663 33.5672 4.54162 33.6356 4.43885L34.6052 2.97245C34.465 3.00363 34.3182 2.98338 34.1917 2.91538C34.0652 2.84738 33.9673 2.73617 33.916 2.60203C33.8646 2.4679 33.8632 2.31976 33.912 2.18466C33.9607 2.04955 34.0564 1.93648 34.1816 1.86605L36.1724 0.71645C36.2895 0.648798 36.426 0.622694 36.5598 0.642373C36.6936 0.662052 36.8169 0.72636 36.9095 0.824865C37.0022 0.92337 37.0589 1.05029 37.0704 1.18505C37.0819 1.3198 37.0475 1.45449 36.9728 1.56725L36.0404 2.97845L38.1536 1.75805C38.2811 1.68517 38.4309 1.66159 38.5747 1.69179C38.7184 1.72198 38.8461 1.80385 38.9335 1.92188C39.0209 2.03991 39.062 2.1859 39.049 2.3322C39.0359 2.47849 38.9697 2.61492 38.8628 2.71565L38.3348 3.21125L38.564 3.07925C38.6922 3.00558 38.8431 2.98184 38.9877 3.01257C39.1323 3.0433 39.2605 3.12634 39.3476 3.24577C39.4348 3.3652 39.4748 3.5126 39.4599 3.6597C39.4451 3.8068 39.3765 3.94324 39.2672 4.04285L38.66 4.59365C38.7857 4.54738 38.9233 4.5445 39.0508 4.58548C39.1783 4.62646 39.2885 4.70893 39.3637 4.81977C39.439 4.9306 39.4749 5.06342 39.4659 5.19707C39.4569 5.33072 39.4034 5.45751 39.314 5.55725L37.0952 8.03045L38.5748 7.17605C38.8316 7.02965 39.1604 7.08965 39.3464 7.32485C39.5324 7.56005 39.5156 7.89365 39.3104 8.10965L37.4264 10.0944L38.582 9.42725C38.7095 9.35334 38.8598 9.32897 39.0042 9.35879C39.1486 9.3886 39.2769 9.47052 39.3647 9.5889C39.4525 9.70729 39.4937 9.85386 39.4804 10.0007C39.467 10.1475 39.4001 10.2842 39.2924 10.3848L38.2988 11.3196L38.5868 11.1528C38.7033 11.0855 38.839 11.0593 38.9722 11.0783C39.1053 11.0974 39.2282 11.1607 39.3211 11.258C39.414 11.3553 39.4715 11.4811 39.4844 11.615C39.4972 11.7489 39.4647 11.8832 39.392 11.9964L38.1608 13.908L38.594 13.6584C38.6623 13.6184 38.7378 13.5923 38.8162 13.5816C38.8946 13.5709 38.9743 13.5758 39.0508 13.596C39.1273 13.6162 39.1991 13.6514 39.2619 13.6994C39.3248 13.7475 39.3775 13.8075 39.4171 13.8761C39.4566 13.9446 39.4822 14.0203 39.4924 14.0987C39.5026 14.1772 39.4972 14.2569 39.4765 14.3333C39.4558 14.4096 39.4201 14.4811 39.3716 14.5437C39.3232 14.6062 39.2628 14.6585 39.194 14.6976L36.6164 16.1856C36.5252 16.2384 36.4217 16.2661 36.3164 16.266L36.3176 16.2672Z" fill="#633F45"/>
<path d="M56.0528 36.4129C55.9472 36.413 55.8434 36.3853 55.752 36.3324C55.6605 36.2796 55.5847 36.2034 55.5322 36.1118C55.4797 36.0202 55.4523 35.9163 55.4529 35.8107C55.4535 35.7051 55.482 35.6015 55.5356 35.5105L56.774 33.3997L54.314 34.8193C54.1895 34.8914 54.0432 34.9164 53.9018 34.8897C53.7604 34.863 53.6333 34.7863 53.5437 34.6737C53.4541 34.5612 53.4079 34.4201 53.4137 34.2763C53.4194 34.1325 53.4765 33.9956 53.5748 33.8905L54.1004 33.3289L53.1572 33.8737C53.042 33.9412 52.9076 33.9683 52.7753 33.9507C52.643 33.9331 52.5203 33.8718 52.4269 33.7765C52.3334 33.6812 52.2744 33.5574 52.2593 33.4248C52.2442 33.2922 52.2739 33.1583 52.3436 33.0445L53.642 30.8881L51.2192 32.2873C51.097 32.3582 50.9536 32.3837 50.8144 32.3593C50.6752 32.3348 50.5491 32.2621 50.4583 32.1538C50.3675 32.0455 50.3178 31.9086 50.3181 31.7673C50.3183 31.626 50.3684 31.4892 50.4596 31.3813L51.3524 30.3169L49.8632 31.1773C49.7482 31.2424 49.615 31.2679 49.4841 31.2498C49.3532 31.2316 49.232 31.1709 49.1391 31.0769C49.0462 30.9829 48.9869 30.8609 48.9703 30.7298C48.9536 30.5988 48.9807 30.4658 49.0472 30.3517L50.3516 28.1473L47.8952 29.5657C47.7758 29.6344 47.6364 29.66 47.5004 29.6381C47.3643 29.6162 47.24 29.5482 47.1482 29.4454C47.0564 29.3427 47.0028 29.2115 46.9964 29.0738C46.9899 28.9362 47.031 28.8005 47.1128 28.6897L48.2588 27.1321L46.3028 28.2613C46.1822 28.3317 46.0407 28.3578 45.9029 28.3351C45.7651 28.3124 45.6395 28.2424 45.5478 28.137C45.4561 28.0316 45.404 27.8976 45.4005 27.7579C45.3971 27.6183 45.4424 27.4818 45.5288 27.3721L46.586 26.0173L44.8112 27.0421C44.6927 27.1105 44.5544 27.1363 44.4191 27.1153C44.2839 27.0943 44.16 27.0277 44.0678 26.9266C43.9756 26.8254 43.9208 26.6958 43.9124 26.5592C43.904 26.4227 43.9425 26.2873 44.0216 26.1757L45.2168 24.4885L43.1492 25.6825C43.0283 25.7495 42.888 25.773 42.7518 25.7488C42.6156 25.7247 42.4919 25.6545 42.4014 25.5499C42.3109 25.4453 42.2592 25.3128 42.2548 25.1746C42.2505 25.0364 42.2938 24.9009 42.3776 24.7909L43.412 23.4829L41.6816 24.4825C41.5646 24.5502 41.4281 24.5765 41.2943 24.557C41.1605 24.5375 41.0372 24.4734 40.9444 24.3751C40.8516 24.2767 40.7947 24.1499 40.783 24.0152C40.7714 23.8804 40.8055 23.7457 40.88 23.6329L42.1436 21.7069L39.884 23.0113C39.7603 23.0826 39.6153 23.1075 39.475 23.0815C39.3346 23.0555 39.2081 22.9803 39.1182 22.8694C39.0283 22.7586 38.9809 22.6193 38.9844 22.4766C38.988 22.3339 39.0423 22.1971 39.1376 22.0909L39.8276 21.3217L38.6516 22.0009C38.5326 22.0694 38.3938 22.0951 38.2582 22.0737C38.1226 22.0522 37.9984 21.9849 37.9064 21.883C37.8145 21.781 37.7602 21.6506 37.7528 21.5135C37.7454 21.3764 37.7852 21.2409 37.8656 21.1297L39.0404 19.5073L37.0256 20.6701C36.8877 20.7493 36.7241 20.7707 36.5704 20.7295C36.4168 20.6884 36.2858 20.588 36.206 20.4505C36.1663 20.3823 36.1404 20.307 36.13 20.2288C36.1195 20.1506 36.1247 20.0711 36.1451 19.9949C36.1655 19.9187 36.2008 19.8473 36.2489 19.7848C36.2971 19.7224 36.3571 19.67 36.4256 19.6309L40.874 17.0629C40.9929 16.9943 41.1318 16.9686 41.2674 16.99C41.403 17.0115 41.5272 17.0788 41.6191 17.1807C41.7111 17.2827 41.7653 17.4131 41.7728 17.5502C41.7802 17.6873 41.7404 17.8228 41.66 17.9341L40.4852 19.5565L42.4976 18.3949C42.6213 18.3255 42.7655 18.3021 42.9047 18.3287C43.044 18.3554 43.1693 18.4304 43.2586 18.5405C43.3479 18.6507 43.3954 18.7888 43.3928 18.9306C43.3901 19.0723 43.3374 19.2086 43.244 19.3153L42.5528 20.0845L43.73 19.4053C43.847 19.3375 43.9835 19.3112 44.1173 19.3307C44.2511 19.3502 44.3744 19.4143 44.4672 19.5127C44.56 19.611 44.6169 19.7378 44.6285 19.8726C44.6402 20.0073 44.6061 20.142 44.5316 20.2549L43.268 22.1809L45.5252 20.8777C45.6461 20.8074 45.7877 20.7816 45.9255 20.8046C46.0634 20.8276 46.1889 20.898 46.2804 21.0038C46.3719 21.1095 46.4236 21.2438 46.4266 21.3836C46.4296 21.5233 46.3837 21.6597 46.2968 21.7693L45.2624 23.0773L46.9916 22.0789C47.1101 22.0105 47.2484 21.9846 47.3836 22.0056C47.5189 22.0266 47.6428 22.0932 47.735 22.1944C47.8272 22.2955 47.882 22.4251 47.8904 22.5617C47.8988 22.6982 47.8603 22.8336 47.7812 22.9453L46.586 24.6325L48.6524 23.4397C48.7731 23.3724 48.9133 23.3487 49.0494 23.3725C49.1855 23.3963 49.3093 23.4661 49.4 23.5703C49.4907 23.6746 49.5429 23.8068 49.5477 23.9449C49.5525 24.083 49.5097 24.2186 49.4264 24.3289L48.3692 25.6825L50.1416 24.6589C50.261 24.5901 50.4004 24.5645 50.5364 24.5864C50.6725 24.6083 50.7968 24.6763 50.8886 24.7791C50.9804 24.8818 51.034 25.0131 51.0404 25.1507C51.0469 25.2883 51.0058 25.424 50.924 25.5349L49.778 27.0925L51.7328 25.9633C51.8477 25.897 51.9813 25.8706 52.1128 25.8884C52.2442 25.9061 52.3661 25.9669 52.4594 26.0612C52.5526 26.1555 52.612 26.2781 52.6281 26.4098C52.6443 26.5414 52.6164 26.6747 52.5488 26.7889L51.2444 28.9921L53.6984 27.5749C53.8206 27.5039 53.964 27.4784 54.1032 27.5029C54.2424 27.5273 54.3685 27.6 54.4593 27.7083C54.5501 27.8166 54.5997 27.9535 54.5995 28.0948C54.5993 28.2362 54.5492 28.3729 54.458 28.4809L53.5652 29.5453L55.0532 28.6861C55.1683 28.6185 55.3028 28.5914 55.4351 28.609C55.5674 28.6266 55.69 28.6879 55.7835 28.7832C55.877 28.8785 55.936 29.0023 55.9511 29.1349C55.9662 29.2675 55.9365 29.4014 55.8668 29.5153L54.5684 31.6717L56.99 30.2737C57.1145 30.2015 57.2608 30.1765 57.4022 30.2032C57.5436 30.2299 57.6707 30.3066 57.7603 30.4192C57.8499 30.5318 57.896 30.6728 57.8903 30.8166C57.8846 30.9604 57.8274 31.0973 57.7292 31.2025L57.2036 31.7641L58.1384 31.2241C58.2531 31.158 58.3864 31.1317 58.5176 31.1493C58.6488 31.1669 58.7705 31.2273 58.8637 31.3213C58.957 31.4152 59.0165 31.5373 59.0331 31.6686C59.0498 31.7999 59.0225 31.9331 58.9556 32.0473L57.7184 34.1581L58.922 33.4621C58.9903 33.422 59.0658 33.3959 59.1442 33.3852C59.2226 33.3745 59.3023 33.3794 59.3788 33.3996C59.4553 33.4198 59.527 33.455 59.5899 33.503C59.6528 33.5511 59.7055 33.6111 59.7451 33.6797C59.7846 33.7482 59.8102 33.8239 59.8204 33.9023C59.8306 33.9808 59.8252 34.0605 59.8045 34.1369C59.7837 34.2132 59.7481 34.2847 59.6996 34.3473C59.6512 34.4098 59.5908 34.4621 59.522 34.5013L56.3516 36.3313C56.2604 36.384 56.1569 36.4117 56.0516 36.4117L56.0528 36.4129Z" fill="#EA6958"/>
<path d="M16.1528 36.5592C16.0267 36.5593 15.9037 36.5196 15.8014 36.4458C15.6991 36.3721 15.6227 36.2679 15.5829 36.1482C15.5432 36.0285 15.5422 35.8993 15.5801 35.779C15.618 35.6587 15.6928 35.5534 15.794 35.478L16.388 35.0352L14.8832 35.904C14.7493 35.9809 14.5909 36.0031 14.4409 35.9662C14.291 35.9292 14.1611 35.8359 14.0782 35.7055C13.9954 35.5752 13.9659 35.418 13.9961 35.2665C14.0262 35.1151 14.1136 34.9811 14.24 34.8924L23.3132 28.5636L14.0468 33.9132C13.9115 33.9971 13.7485 34.0238 13.5936 33.9874C13.4386 33.9511 13.3045 33.8547 13.2206 33.7194C13.1367 33.5841 13.11 33.4211 13.1464 33.2662C13.1827 33.1112 13.2791 32.9771 13.4144 32.8932L23.234 26.3736L19.1792 28.7148C19.0441 28.7931 18.8838 28.8157 18.7324 28.7777C18.5809 28.7398 18.4502 28.6443 18.368 28.5115C18.2859 28.3787 18.2587 28.2191 18.2923 28.0666C18.3259 27.9141 18.4176 27.7808 18.548 27.6948L25.3016 23.2332C25.2122 23.1863 25.136 23.1176 25.0803 23.0334C25.0245 22.9492 24.9908 22.8523 24.9824 22.7517C24.9741 22.651 24.9912 22.5499 25.0323 22.4577C25.0734 22.3654 25.1372 22.2851 25.2176 22.224L33.1544 16.2012C33.1139 16.071 33.1189 15.9309 33.1686 15.804C33.2183 15.677 33.3098 15.5708 33.428 15.5028L36.164 13.9236C36.2963 13.846 36.4533 13.8221 36.6027 13.8566C36.7521 13.8912 36.8827 13.9817 36.9675 14.1095C37.0522 14.2373 37.0849 14.3927 37.0586 14.5438C37.0324 14.6949 36.9493 14.8303 36.8264 14.922L33.5516 17.4072L38.0912 14.7852C38.2263 14.7069 38.3866 14.6843 38.538 14.7223C38.6895 14.7602 38.8202 14.8558 38.9024 14.9885C38.9845 15.1213 39.0117 15.2809 38.9781 15.4334C38.9445 15.5859 38.8528 15.7193 38.7224 15.8052L35.8448 17.706L39.2552 15.7368C39.3222 15.6953 39.3967 15.6674 39.4744 15.6546C39.5522 15.6419 39.6317 15.6446 39.7084 15.6626C39.7852 15.6806 39.8576 15.7135 39.9216 15.7595C39.9856 15.8055 40.0399 15.8636 40.0814 15.9306C40.1229 15.9976 40.1508 16.0721 40.1636 16.1498C40.1763 16.2276 40.1736 16.3071 40.1556 16.3838C40.1376 16.4606 40.1047 16.533 40.0587 16.597C40.0127 16.661 39.9546 16.7153 39.8876 16.7568L30.0572 23.2836L34.8524 20.5152C34.9863 20.4383 35.1447 20.4161 35.2947 20.453C35.4446 20.49 35.5745 20.5834 35.6574 20.7137C35.7402 20.844 35.7696 21.0012 35.7395 21.1527C35.7094 21.3041 35.622 21.4381 35.4956 21.5268L25.0736 28.7976C25.1895 28.8172 25.297 28.8705 25.3827 28.9509C25.4684 29.0312 25.5286 29.1351 25.5556 29.2494C25.5826 29.3638 25.5753 29.4836 25.5346 29.5938C25.4939 29.704 25.4216 29.7998 25.3268 29.8692L19.4552 34.2444C19.4862 34.3705 19.4754 34.5032 19.4246 34.6226C19.3737 34.742 19.2855 34.8418 19.1732 34.9068L16.4516 36.4788C16.3603 36.5314 16.2581 36.5591 16.1528 36.5592Z" fill="#EA6958"/>
<path d="M2.03119 50.8705C1.98919 80.2225 -2.6368 69.1273 35.8244 71.2285C75.6308 69.2161 71.0348 79.8817 70.97 50.7469C73.604 49.3393 70.8992 45.9133 70.5176 43.8181C67.2608 40.9561 58.7348 43.3561 54.17 42.6061V35.5069C56.2832 37.4317 60.1256 36.4993 60.17 33.3217C55.3988 26.0473 46.1048 21.5689 39.782 15.3565C39.782 14.4109 39.7868 13.4653 39.7904 12.5197C43.6172 11.9317 51.8324 14.8081 50.5712 8.33766C52.1684 0.314458 44.7212 3.76086 39.722 3.07926C39.4928 1.81686 38.5868 0.830458 37.2308 0.604858C30.1556 0.700858 34.2272 11.0281 33.2192 15.5653C30.1184 19.4641 9.61759 31.3657 13.4084 35.4193C15.0464 37.5517 17.1044 36.5641 18.83 35.2765V42.5797C14.6636 43.4761 4.03759 40.3789 2.31319 44.5849C2.01799 46.4905 -0.581206 49.7773 2.02999 50.8693L2.03119 50.8705ZM5.21599 70.4413C1.88359 69.6337 4.60519 54.8425 3.76999 51.0241C8.79079 51.0469 13.8104 51.0013 18.8312 51.0181V70.4413H5.21599ZM31.1288 51.9277C32.5904 51.8329 34.1384 51.9877 35.6276 51.9265V70.3717H30.17C30.8876 64.6921 28.6748 56.7769 31.1288 51.9277ZM40.6064 51.9277C45.1892 52.9981 41.8796 66.1753 42.83 70.3717H37.3724V51.9085C38.4524 51.8941 39.5324 51.8845 40.6064 51.9277ZM69.2552 70.4749C64.2656 70.5661 59.1896 70.4149 54.1688 70.4749V51.0001C59.1848 51.0145 64.2164 51.1261 69.23 51.0049C69.2288 57.2797 69.2324 63.5593 69.23 69.8317L69.1232 70.2925C69.212 70.3657 69.7244 70.5409 69.2552 70.4749ZM60.4544 43.7941C67.0892 44.3917 68.5556 41.2021 70.3508 49.0045C69.404 51.1177 57.4028 49.1701 54.1688 49.8049V43.7929L60.4544 43.7941ZM52.43 66.4261V70.3717H44.5688C44.5664 64.8409 44.5712 59.3089 44.5688 53.7781C44.2448 50.1805 39.7712 51.4429 37.3004 51.2713C37.0772 50.9533 36.3728 51.0133 35.9516 51.2629C23.9972 48.9493 29.6396 63.3457 28.43 70.3717H20.5688V33.8725L36.3716 20.9101C41.7212 25.3057 47.0384 29.7481 52.4312 34.0921V66.4273L52.43 66.4261ZM48.7316 11.4793H48.7244C48.8048 11.4817 48.8696 11.4961 48.7316 11.4793ZM47.2244 4.11966C49.3244 3.65286 48.8396 5.96166 48.8276 7.31406C48.71 8.70486 49.0892 10.1497 48.6332 11.4793H39.7916C39.8012 9.02526 39.806 6.57246 39.7808 4.11966H47.2244ZM35.7224 2.02206C39.986 1.07046 37.3208 11.5321 38.018 14.1685C36.9668 13.7353 35.9552 13.8865 34.9796 14.3737C35.4836 10.4173 33.9008 5.50326 35.7224 2.02206ZM15.3248 31.8901C21.8276 26.5225 28.4696 21.1609 34.9268 15.8077C38.2316 13.2301 52.2116 28.8817 56.588 31.2037C60.8756 34.7581 56.7092 36.8797 53.5604 32.9329C47.6408 29.0581 42.2204 21.6721 35.9336 19.6105C33.446 20.6773 11.1272 43.2169 15.3248 31.8901ZM2.81119 48.2533C3.30799 46.9009 3.65599 45.4741 4.18159 44.1421C8.684 43.1989 14.06 44.1421 18.8312 43.8205V49.7821C16.5224 49.1029 0.795195 51.4597 2.81119 48.2545V48.2533Z" fill="#262626"/>
<path d="M30.2924 33.4392C21.7472 45.1752 43.5512 52.4376 44.5832 38.3436C44.7404 30.9852 34.7696 27.84 30.2924 33.4392ZM42.8168 38.4564C42.2768 49.5528 26.1152 44.5008 31.0568 34.9932C34.1456 29.3076 43.0004 32.2212 42.8168 38.4564ZM15.7688 61.572C15.4352 59.8116 16.7504 56.6952 14.5256 55.98C12.1688 56.244 7.04359 54.6024 6.82999 58.1232C7.09279 59.9064 6.19159 62.2308 7.38079 63.7008C9.72199 64.1568 15.9572 65.3496 15.7688 61.5708V61.572ZM9.40519 63.1284C7.63639 62.3112 8.95399 59.0016 8.57119 57.3852C8.57599 57.1908 8.65639 57.0348 8.76919 56.8704C15.3536 56.4552 14.21 57.1848 13.8488 63.1296H9.40639L9.40519 63.1284ZM66.1688 58.344C67.2068 54.8304 58.9976 55.6404 57.5312 56.9724C57.1112 58.9116 56.726 61.92 57.77 63.6624C62.9708 64.2636 67.2512 65.3244 66.1688 58.344ZM60.0116 63.2484C58.1132 62.8992 59.0228 58.2276 59.1896 56.7516C65.6768 56.1612 64.7036 57.6576 64.208 63.2484H60.0116Z" fill="#262626"/>
<path d="M35.9264 35.6148C33.6248 40.6488 41.2628 41.5428 37.3796 38.1036C37.3688 36.9996 37.7648 34.5396 35.9264 35.6148Z" fill="#262626"/>
</g>
<defs>
<clipPath id="clip0_9_4739">
<rect width="72" height="72" fill="white" transform="translate(0.5)"/>
</clipPath>
</defs>
</svg>
