<svg width="32" height="32" viewBox="0 0 32 32" fill="none" xmlns="http://www.w3.org/2000/svg">
<g clip-path="url(#clip0_121_1739)">
<path d="M16.3664 4.47676C16.3121 4.47671 16.2591 4.4601 16.2145 4.42914C16.17 4.39818 16.1359 4.35435 16.1169 4.30351C16.0978 4.25266 16.0948 4.19723 16.1081 4.14461C16.1215 4.09199 16.1505 4.04469 16.1915 4.00903L17.9893 2.44423C17.9263 2.46203 17.859 2.45595 17.8002 2.42715C17.7414 2.39835 17.6954 2.34885 17.6708 2.28816C17.6463 2.22747 17.6451 2.15986 17.6673 2.09831C17.6896 2.03675 17.7338 1.98559 17.7915 1.95463L20.0757 0.635161C20.1331 0.602261 20.2007 0.591866 20.2653 0.605994C20.3299 0.620122 20.387 0.657765 20.4254 0.711612C20.4638 0.765459 20.4809 0.831665 20.4732 0.897371C20.4656 0.963076 20.4338 1.02359 20.384 1.06716L18.6256 2.59729L22.5333 0.341294C22.5636 0.323644 22.5971 0.312164 22.6319 0.307518C22.6666 0.302872 22.7019 0.305152 22.7358 0.314225C22.7697 0.323298 22.8014 0.338986 22.8292 0.360383C22.8569 0.38178 22.8802 0.408464 22.8976 0.438894C22.9152 0.469185 22.9267 0.50267 22.9314 0.537419C22.936 0.572168 22.9337 0.607492 22.9247 0.641356C22.9156 0.675219 22.8999 0.706952 22.8785 0.734722C22.8571 0.762493 22.8304 0.785753 22.8 0.803161L16.4997 4.44103C16.4593 4.4647 16.4132 4.47704 16.3664 4.47676Z" fill="#E5283F"/>
<path d="M15.1328 22.3173C15.0755 22.3174 15.0198 22.299 14.9738 22.2649C14.9278 22.2309 14.8939 22.1829 14.8773 22.1281C14.8607 22.0733 14.8621 22.0146 14.8814 21.9607C14.9007 21.9068 14.9369 21.8605 14.9845 21.8288L20.1888 18.3632L13.9008 21.9936C13.8404 22.0281 13.7689 22.0376 13.7016 22.0202C13.6343 22.0028 13.5764 21.9597 13.5404 21.9002C13.5044 21.8408 13.493 21.7695 13.5087 21.7018C13.5244 21.6341 13.566 21.5751 13.6245 21.5376L17.1376 19.3088L12.9968 21.6992C12.9363 21.7341 12.8644 21.7438 12.7968 21.7263C12.7291 21.7088 12.671 21.6654 12.635 21.6055C12.599 21.5456 12.588 21.474 12.6043 21.406C12.6206 21.338 12.6629 21.2792 12.7221 21.2421L15.104 19.7568L12.2827 21.3856C12.222 21.422 12.1493 21.4328 12.0807 21.4157C12.012 21.3985 11.953 21.3548 11.9165 21.2941C11.8801 21.2334 11.8693 21.1608 11.8864 21.0921C11.9036 21.0234 11.9473 20.9644 12.008 20.928L15.3403 18.8512L11.5701 21.0277C11.5096 21.0618 11.438 21.071 11.3708 21.0531C11.3036 21.0353 11.246 20.9919 11.2104 20.9322C11.1747 20.8725 11.1637 20.8013 11.1798 20.7337C11.1959 20.666 11.2378 20.6073 11.2965 20.5701L14.1584 18.7989L10.9163 20.6704C10.8558 20.7071 10.7832 20.7183 10.7145 20.7015C10.6458 20.6847 10.5866 20.6413 10.5499 20.5808C10.5132 20.5203 10.502 20.4477 10.5188 20.379C10.5356 20.3103 10.579 20.2511 10.6395 20.2144L18.5867 15.1621L9.9904 20.1253C9.92965 20.1615 9.857 20.1721 9.78844 20.1548C9.71987 20.1374 9.66101 20.0935 9.6248 20.0328C9.58859 19.972 9.57799 19.8994 9.59535 19.8308C9.6127 19.7623 9.65658 19.7034 9.71733 19.6672L12.3301 18.0629L9.3968 19.7562C9.33605 19.7925 9.2634 19.8031 9.19484 19.7857C9.12627 19.7683 9.06741 19.7245 9.0312 19.6637C8.99499 19.603 8.9844 19.5303 9.00175 19.4618C9.0191 19.3932 9.06298 19.3343 9.12373 19.2981L13.1013 16.8485L8.76853 19.3498C8.70771 19.386 8.63502 19.3965 8.56646 19.379C8.49789 19.3616 8.43907 19.3176 8.40293 19.2568C8.36679 19.196 8.35629 19.1233 8.37375 19.0547C8.3912 18.9861 8.43518 18.9273 8.496 18.8912L10.8155 17.4741L8.2096 18.9781C8.14871 19.0142 8.07598 19.0246 8.00741 19.007C7.93885 18.9895 7.88007 18.9454 7.844 18.8845C7.80793 18.8236 7.79753 18.7509 7.81508 18.6823C7.83263 18.6138 7.87671 18.555 7.9376 18.5189L8.47893 18.1904L7.71147 18.6336C7.65086 18.6701 7.57823 18.681 7.50957 18.6639C7.4409 18.6469 7.38183 18.6033 7.34533 18.5426C7.30884 18.482 7.29792 18.4094 7.31497 18.3407C7.33202 18.2721 7.37566 18.213 7.43627 18.1765L16.5392 12.4581L6.92853 18.0064C6.86778 18.0426 6.79513 18.0532 6.72657 18.0358C6.65801 18.0185 6.59914 17.9746 6.56293 17.9138C6.52672 17.8531 6.51613 17.7804 6.53348 17.7119C6.55084 17.6433 6.59471 17.5845 6.65547 17.5482L11.2293 14.7429L6.42987 17.5136C6.36904 17.5497 6.29635 17.5602 6.22779 17.5428C6.15923 17.5253 6.10041 17.4813 6.06427 17.4205C6.02813 17.3597 6.01763 17.287 6.03508 17.2184C6.05254 17.1499 6.09651 17.0911 6.15733 17.0549L9.96213 14.729L6.0144 17.008C5.95385 17.0429 5.88202 17.0526 5.81436 17.0351C5.7467 17.0176 5.68862 16.9742 5.65262 16.9143C5.61662 16.8544 5.60558 16.7828 5.62187 16.7148C5.63816 16.6468 5.68049 16.588 5.73973 16.5509L14.224 11.2602L5.5584 16.2629C5.49765 16.2992 5.42497 16.3099 5.35636 16.2926C5.28774 16.2753 5.22881 16.2314 5.19253 16.1706C5.15625 16.1099 5.14559 16.0372 5.16289 15.9686C5.1802 15.9 5.22405 15.8411 5.2848 15.8048L11.2869 12.1045L5.29227 15.5653C5.23144 15.6014 5.15878 15.6118 5.09027 15.5943C5.02176 15.5768 4.963 15.5328 4.92693 15.472C4.89086 15.4112 4.88043 15.3385 4.89794 15.27C4.91544 15.2015 4.95944 15.1427 5.02027 15.1066L6.7856 14.0325L5.18987 14.9536C5.15978 14.9715 5.12647 14.9833 5.09181 14.9884C5.05716 14.9934 5.02185 14.9916 4.9879 14.983C4.95395 14.9744 4.92203 14.9592 4.89395 14.9383C4.86588 14.9174 4.8422 14.8911 4.82427 14.861C4.80634 14.831 4.79451 14.7976 4.78945 14.763C4.7844 14.7283 4.78622 14.693 4.79481 14.6591C4.80341 14.6251 4.8186 14.5932 4.83953 14.5651C4.86046 14.5371 4.88672 14.5134 4.9168 14.4954L9.73707 11.529L4.93387 14.3018C4.87311 14.3365 4.80119 14.3458 4.7336 14.3279C4.666 14.3101 4.60814 14.2663 4.57247 14.2062C4.5368 14.146 4.52619 14.0743 4.54291 14.0064C4.55963 13.9385 4.60235 13.8799 4.66187 13.8432L6.13867 12.9429L4.60107 13.8304C4.57105 13.8484 4.53778 13.8604 4.50314 13.8656C4.46849 13.8709 4.43317 13.8692 4.39917 13.8607C4.36517 13.8523 4.33317 13.8372 4.30499 13.8164C4.27681 13.7956 4.253 13.7695 4.23493 13.7394C4.21686 13.7094 4.20488 13.6762 4.19967 13.6415C4.19446 13.6069 4.19613 13.5715 4.20457 13.5375C4.21301 13.5035 4.22807 13.4715 4.24888 13.4434C4.2697 13.4152 4.29586 13.3914 4.32587 13.3733L12.1749 8.44691L4.13653 13.088C4.07674 13.1221 4.00608 13.1317 3.93934 13.1149C3.8726 13.0981 3.81495 13.0561 3.77844 12.9977C3.74193 12.9394 3.72939 12.8692 3.74345 12.8018C3.75751 12.7345 3.79707 12.6751 3.85387 12.6362L9.50667 8.81545L3.68693 12.1754C3.62659 12.2108 3.55476 12.2211 3.48693 12.204C3.41911 12.1869 3.36072 12.1438 3.32434 12.0841C3.28796 12.0243 3.27651 11.9527 3.29246 11.8846C3.30841 11.8165 3.35048 11.7574 3.4096 11.72L5.58667 10.328L3.44427 11.5642C3.38408 11.5992 3.31259 11.6093 3.24507 11.5923C3.17756 11.5753 3.11937 11.5326 3.08295 11.4732C3.04652 11.4139 3.03475 11.3427 3.05014 11.2748C3.06554 11.2069 3.10688 11.1477 3.16533 11.1098L6.56587 8.90131L3.20747 10.8405C3.14776 10.8741 3.07742 10.8834 3.01104 10.8665C2.94465 10.8496 2.88731 10.8079 2.85089 10.7498C2.81447 10.6918 2.80178 10.622 2.81544 10.5549C2.8291 10.4878 2.86807 10.4285 2.92427 10.3893L8.48693 6.60798L2.96587 9.79571C2.90552 9.83108 2.83369 9.84132 2.76587 9.82422C2.69804 9.80713 2.63965 9.76407 2.60327 9.70433C2.5669 9.64459 2.55545 9.57294 2.5714 9.50484C2.58734 9.43674 2.62941 9.37763 2.68853 9.34025L4.44053 8.21651L2.8688 9.12371C2.80883 9.16113 2.73645 9.17318 2.66758 9.15723C2.59872 9.14128 2.53901 9.09862 2.5016 9.03865C2.46419 8.97867 2.45213 8.90629 2.46808 8.83743C2.48404 8.76857 2.52669 8.70886 2.58667 8.67145L6.7296 5.89225L2.816 8.15145C2.78637 8.17004 2.75337 8.18262 2.71889 8.18846C2.6844 8.1943 2.6491 8.1933 2.615 8.1855C2.5809 8.1777 2.54868 8.16326 2.52016 8.143C2.49164 8.12275 2.46739 8.09707 2.4488 8.06745C2.4302 8.03782 2.41763 8.00482 2.41178 7.97034C2.40594 7.93585 2.40695 7.90055 2.41475 7.86645C2.42255 7.83235 2.43699 7.80012 2.45724 7.77161C2.4775 7.74309 2.50317 7.71884 2.5328 7.70025L6.47573 5.01651L2.88213 7.09171C2.82238 7.12639 2.7515 7.13653 2.68443 7.11998C2.61735 7.10344 2.55931 7.06151 2.52254 7.00303C2.48576 6.94455 2.47312 6.87407 2.48727 6.80645C2.50142 6.73883 2.54126 6.67934 2.5984 6.64051L5.704 4.51571L3.0928 6.02291C3.03389 6.05951 2.96303 6.07167 2.89529 6.0568C2.82756 6.04194 2.7683 6.00122 2.73014 5.94331C2.69197 5.88541 2.67792 5.81489 2.69097 5.74678C2.70402 5.67867 2.74314 5.61835 2.8 5.57865L6.20907 3.03145L3.71467 4.47091C3.65676 4.50574 3.58778 4.51724 3.52171 4.50308C3.45564 4.48892 3.39743 4.45015 3.35889 4.39465C3.32035 4.33915 3.30436 4.27106 3.31418 4.20421C3.32399 4.13735 3.35887 4.07673 3.41173 4.03465L5.128 2.61758C5.07018 2.61563 5.01454 2.59501 4.96943 2.55879C4.92431 2.52258 4.89213 2.47273 4.87772 2.4167C4.86331 2.36067 4.86743 2.30148 4.88948 2.24799C4.91152 2.1945 4.9503 2.14959 5 2.11998L7.448 0.706646C7.50587 0.673821 7.57392 0.663813 7.63879 0.678588C7.70366 0.693363 7.76066 0.731852 7.79861 0.7865C7.83655 0.841149 7.8527 0.908008 7.84388 0.973951C7.83506 1.03989 7.80191 1.10016 7.75093 1.14291L6.21173 2.41385L9.84587 0.315713C9.90469 0.282496 9.97393 0.272843 10.0396 0.288706C10.1053 0.304569 10.1625 0.344764 10.1996 0.401171C10.2368 0.457579 10.2512 0.525994 10.2399 0.592595C10.2286 0.659197 10.1924 0.71902 10.1387 0.759979L6.73013 3.30718L11.4763 0.577579C11.536 0.542902 11.6069 0.532767 11.674 0.549309C11.741 0.565851 11.7991 0.607779 11.8359 0.666262C11.8726 0.724746 11.8853 0.795219 11.8711 0.86284C11.857 0.93046 11.8171 0.98995 11.76 1.02878L8.656 3.15251L12.4539 0.95998C12.5137 0.922425 12.586 0.910177 12.6549 0.92593C12.689 0.93373 12.7212 0.94817 12.7497 0.968425C12.7782 0.98868 12.8025 1.01435 12.8211 1.04398C12.8397 1.07361 12.8522 1.1066 12.8581 1.14109C12.8639 1.17558 12.8629 1.21088 12.8551 1.24498C12.8473 1.27907 12.8329 1.3113 12.8126 1.33982C12.7924 1.36834 12.7667 1.39258 12.7371 1.41118L8.79307 4.09491L13.3317 1.47518C13.3915 1.44357 13.461 1.43577 13.5262 1.45335C13.5915 1.47093 13.6476 1.51259 13.6834 1.56993C13.7192 1.62727 13.7319 1.69603 13.719 1.76237C13.7061 1.82871 13.6685 1.8877 13.6139 1.92745L9.46933 4.70771L14.0581 2.05865C14.1185 2.02328 14.1903 2.01304 14.2581 2.03014C14.326 2.04723 14.3844 2.09029 14.4207 2.15003C14.4571 2.20977 14.4686 2.28142 14.4526 2.34952C14.4367 2.41762 14.3946 2.47673 14.3355 2.51411L12.5867 3.63625L14.5157 2.52265C14.5756 2.48509 14.6479 2.47284 14.7167 2.4886C14.7856 2.50435 14.8454 2.54681 14.8829 2.60665C14.9205 2.66648 14.9327 2.73878 14.917 2.80764C14.9012 2.87651 14.8588 2.93629 14.7989 2.97385L9.2384 6.75358L15.1387 3.34665C15.1989 3.31165 15.2703 3.30157 15.3379 3.31858C15.4054 3.33559 15.4636 3.37832 15.5 3.43766C15.5364 3.497 15.5482 3.56823 15.5328 3.63613C15.5174 3.70403 15.4761 3.76322 15.4176 3.80105L12.0165 6.00958L15.5072 3.99465C15.5675 3.95928 15.6394 3.94904 15.7072 3.96614C15.775 3.98323 15.8334 4.02629 15.8698 4.08603C15.9062 4.14577 15.9176 4.21742 15.9017 4.28552C15.8857 4.35362 15.8437 4.41273 15.7845 4.45011L13.6027 5.84531L15.7648 4.59731C15.8246 4.56323 15.8953 4.5536 15.962 4.57041C16.0287 4.58723 16.0864 4.6292 16.1229 4.68754C16.1594 4.74589 16.1719 4.81609 16.1579 4.88346C16.1438 4.95084 16.1043 5.01017 16.0475 5.04905L10.3941 8.86985L24.4261 0.766913C24.4867 0.730419 24.5594 0.719498 24.628 0.736551C24.6967 0.753604 24.7558 0.797235 24.7923 0.857846C24.8288 0.918457 24.8397 0.991082 24.8226 1.05975C24.8056 1.12841 24.7619 1.18749 24.7013 1.22398L16.8523 6.14985L25.4021 1.21385C25.4629 1.17923 25.5348 1.16985 25.6024 1.18775C25.67 1.20564 25.7279 1.24937 25.7635 1.30952C25.7992 1.36966 25.8098 1.44141 25.7931 1.5093C25.7764 1.5772 25.7337 1.63581 25.6741 1.67251L24.1904 2.57705L25.9675 1.55091C25.9975 1.53298 26.0309 1.52115 26.0655 1.5161C26.1002 1.51105 26.1355 1.51287 26.1694 1.52146C26.2034 1.53005 26.2353 1.54525 26.2634 1.56618C26.2915 1.58711 26.3151 1.61336 26.3331 1.64345C26.351 1.67353 26.3628 1.70685 26.3679 1.7415C26.3729 1.77615 26.3711 1.81146 26.3625 1.84541C26.3539 1.87936 26.3387 1.91128 26.3178 1.93936C26.2969 1.96744 26.2706 1.99112 26.2405 2.00905L21.4192 4.97545L26.5744 1.99945C26.6352 1.96483 26.7071 1.95545 26.7747 1.97335C26.8423 1.99124 26.9001 2.03497 26.9358 2.09512C26.9715 2.15526 26.9821 2.22701 26.9654 2.2949C26.9486 2.3628 26.9059 2.42141 26.8464 2.45811L25.0896 3.52745L27.0341 2.40531C27.0946 2.3735 27.165 2.36608 27.2308 2.38459C27.2966 2.4031 27.3528 2.44612 27.3879 2.50481C27.4229 2.5635 27.4342 2.63339 27.4193 2.7001C27.4043 2.76681 27.3644 2.82527 27.3077 2.86345L21.3029 6.56478L27.5515 2.95731C27.612 2.9224 27.6838 2.91265 27.7515 2.93017C27.8192 2.94769 27.8772 2.99106 27.9132 3.05097C27.9492 3.11088 27.9603 3.18252 27.944 3.25049C27.9277 3.31845 27.8854 3.3773 27.8261 3.41438L19.3408 8.70558L28.0725 3.66505C28.1331 3.63361 28.2034 3.62652 28.269 3.64523C28.3346 3.66395 28.3905 3.70705 28.4254 3.76569C28.4602 3.82434 28.4713 3.8941 28.4564 3.96067C28.4415 4.02723 28.4016 4.08557 28.3451 4.12371L24.5515 6.44318L28.3883 4.22825C28.4487 4.1972 28.5187 4.19035 28.584 4.20909C28.6494 4.22783 28.7051 4.27075 28.7399 4.32912C28.7747 4.38749 28.7859 4.45693 28.7713 4.5233C28.7567 4.58967 28.7174 4.64798 28.6613 4.68638L24.0784 7.49758L28.6667 4.84851C28.7273 4.81202 28.7999 4.8011 28.8686 4.81815C28.9372 4.8352 28.9963 4.87884 29.0328 4.93945C29.0693 5.00006 29.0802 5.07268 29.0632 5.14135C29.0461 5.21001 29.0025 5.26909 28.9419 5.30558L19.8416 11.0224L28.9547 5.76105C29.0154 5.72551 29.0878 5.71555 29.1559 5.73335C29.224 5.75115 29.2823 5.79526 29.3179 5.85598C29.3535 5.91652 29.3639 5.98864 29.3468 6.05678C29.3298 6.12492 29.2866 6.18363 29.2267 6.22025L28.6795 6.55251L29.072 6.32585C29.1325 6.29441 29.2028 6.28732 29.2684 6.30603C29.334 6.32475 29.39 6.36785 29.4248 6.42649C29.4597 6.48514 29.4708 6.5549 29.4559 6.62147C29.4409 6.68803 29.4011 6.74637 29.3445 6.78451L27.0267 8.20051L29.1552 6.97171C29.216 6.9355 29.2886 6.92491 29.3572 6.94226C29.4257 6.95961 29.4846 7.00349 29.5208 7.06425C29.557 7.125 29.5676 7.19765 29.5503 7.26621C29.5329 7.33477 29.489 7.39364 29.4283 7.42985L25.4581 9.87465L29.1829 7.72425C29.213 7.70632 29.2463 7.69449 29.281 7.68943C29.3156 7.68438 29.351 7.6862 29.3849 7.6948C29.4188 7.70339 29.4508 7.71858 29.4788 7.73951C29.5069 7.76044 29.5306 7.7867 29.5485 7.81678C29.5665 7.84686 29.5783 7.88018 29.5833 7.91483C29.5884 7.94949 29.5866 7.9848 29.578 8.01874C29.5694 8.05269 29.5542 8.08462 29.5333 8.11269C29.5123 8.14077 29.4861 8.16445 29.456 8.18238L26.8389 9.78931L29.1525 8.45385C29.213 8.41714 29.2856 8.40596 29.3543 8.42276C29.423 8.43957 29.4822 8.48298 29.5189 8.54345C29.5556 8.60392 29.5668 8.67649 29.55 8.7452C29.5332 8.81392 29.4898 8.87314 29.4293 8.90985L21.4773 13.9653L28.9803 9.63358C29.0408 9.59945 29.1124 9.59033 29.1796 9.60817C29.2468 9.62601 29.3044 9.66939 29.34 9.72907C29.3757 9.78875 29.3867 9.86 29.3706 9.92764C29.3545 9.99529 29.3126 10.054 29.2539 10.0912L26.4048 11.8549L28.7605 10.4949C28.8212 10.4585 28.8939 10.4477 28.9625 10.4648C28.9965 10.4733 29.0285 10.4884 29.0567 10.5093C29.0849 10.5301 29.1086 10.5563 29.1267 10.5864C29.1447 10.6164 29.1566 10.6497 29.1618 10.6844C29.167 10.7191 29.1653 10.7544 29.1568 10.7884C29.1483 10.8224 29.1332 10.8544 29.1123 10.8825C29.0914 10.9107 29.0652 10.9345 29.0352 10.9525L25.6939 13.0346L28.4293 11.4554C28.4899 11.4205 28.5617 11.4108 28.6294 11.4283C28.697 11.4458 28.7551 11.4892 28.7911 11.5491C28.8271 11.609 28.8382 11.6807 28.8219 11.7486C28.8056 11.8166 28.7632 11.8754 28.704 11.9125L26.3312 13.392L27.9691 12.4469C28.0295 12.4124 28.1009 12.4029 28.1682 12.4203C28.2356 12.4377 28.2934 12.4808 28.3295 12.5403C28.3655 12.5997 28.3769 12.6709 28.3612 12.7387C28.3454 12.8064 28.3039 12.8654 28.2453 12.9029L24.7291 15.1333L27.152 13.7349C27.212 13.6993 27.2836 13.6886 27.3514 13.7051C27.4192 13.7216 27.4778 13.7641 27.5146 13.8234C27.5515 13.8826 27.5636 13.954 27.5485 14.0221C27.5333 14.0902 27.4921 14.1497 27.4336 14.1877L22.2272 17.6549L26.7472 15.0453C26.8068 15.0074 26.8791 14.9947 26.948 15.0101C27.017 15.0254 27.077 15.0676 27.1149 15.1272C27.1528 15.1868 27.1655 15.259 27.1502 15.328C27.1348 15.397 27.0927 15.457 27.0331 15.4949L22.7637 18.473L26.0464 16.5776C26.0759 16.5588 26.1089 16.546 26.1433 16.54C26.1778 16.534 26.2131 16.5348 26.2472 16.5424C26.2814 16.55 26.3137 16.5642 26.3423 16.5843C26.371 16.6044 26.3954 16.6299 26.4141 16.6594C26.4329 16.689 26.4457 16.7219 26.4517 16.7564C26.4578 16.7908 26.457 16.8261 26.4494 16.8603C26.4418 16.8944 26.4275 16.9267 26.4074 16.9554C26.3873 16.984 26.3618 17.0084 26.3323 17.0272L23.9712 18.6736L24.3893 18.4325C24.4196 18.4149 24.4531 18.4034 24.4879 18.3987C24.5226 18.3941 24.5579 18.3964 24.5918 18.4054C24.6257 18.4145 24.6574 18.4302 24.6852 18.4516C24.7129 18.473 24.7362 18.4997 24.7536 18.5301C24.7713 18.5604 24.7827 18.5939 24.7874 18.6286C24.792 18.6634 24.7897 18.6987 24.7807 18.7326C24.7716 18.7664 24.7559 18.7982 24.7345 18.8259C24.7131 18.8537 24.6864 18.877 24.656 18.8944L18.8309 22.2576C18.7714 22.2917 18.701 22.3016 18.6344 22.2852C18.5677 22.2688 18.51 22.2273 18.4732 22.1694C18.4363 22.1115 18.4233 22.0416 18.4367 21.9743C18.4501 21.9069 18.4889 21.8474 18.5451 21.808L20.9035 20.1632L17.6288 22.0538C17.5692 22.0918 17.4969 22.1044 17.428 22.0891C17.359 22.0737 17.299 22.0316 17.2611 21.972C17.2232 21.9124 17.2105 21.8401 17.2258 21.7712C17.2412 21.7022 17.2833 21.6422 17.3429 21.6042L21.616 18.6234L15.2693 22.2874C15.2289 22.311 15.1828 22.3233 15.136 22.3232L15.1328 22.3173Z" fill="#E5283F"/>
<path d="M25.9947 31.7173C25.9378 31.7175 25.8824 31.6995 25.8365 31.666C25.7906 31.6324 25.7566 31.585 25.7396 31.5307C25.7226 31.4764 25.7235 31.4181 25.742 31.3644C25.7605 31.3106 25.7958 31.2642 25.8427 31.232L26.0608 31.08L25.256 31.5445C25.1965 31.5826 25.1244 31.5954 25.0554 31.5803C24.9864 31.5651 24.9263 31.5232 24.8883 31.4637C24.8502 31.4042 24.8374 31.3321 24.8525 31.2631C24.8677 31.1941 24.9096 31.134 24.9691 31.096L26.4971 30.0181L24.8848 30.9488C24.8554 30.9676 24.8225 30.9805 24.7881 30.9867C24.7537 30.9929 24.7185 30.9922 24.6843 30.9848C24.6502 30.9773 24.6178 30.9632 24.5891 30.9433C24.5604 30.9233 24.5359 30.8979 24.5171 30.8685C24.4982 30.8391 24.4853 30.8062 24.4791 30.7718C24.4729 30.7374 24.4736 30.7022 24.481 30.668C24.4885 30.6339 24.5026 30.6015 24.5226 30.5728C24.5425 30.5441 24.5679 30.5196 24.5973 30.5008L26.4491 29.1856L24.5141 30.3024C24.4846 30.3212 24.4517 30.3341 24.4173 30.3402C24.3828 30.3463 24.3475 30.3456 24.3133 30.338C24.2792 30.3305 24.2468 30.3163 24.2181 30.2963C24.1894 30.2763 24.165 30.2508 24.1461 30.2213C24.1273 30.1918 24.1144 30.1589 24.1083 30.1245C24.1022 30.09 24.1029 30.0547 24.1105 30.0205C24.118 29.9863 24.1322 29.954 24.1522 29.9253C24.1722 29.8966 24.1977 29.8721 24.2272 29.8533L25.8624 28.7029L24.1595 29.6858C24.1004 29.7202 24.0304 29.7306 23.964 29.7147C23.8975 29.6988 23.8398 29.6579 23.8027 29.6005C23.7654 29.5433 23.7514 29.474 23.7637 29.4068C23.776 29.3396 23.8136 29.2797 23.8688 29.2394L26.2571 27.4976L23.7381 28.952C23.6796 28.9856 23.6104 28.9957 23.5446 28.9803C23.4788 28.965 23.4214 28.9252 23.3838 28.869C23.3462 28.8129 23.3313 28.7446 23.3422 28.6779C23.353 28.6113 23.3887 28.5512 23.4421 28.5098L26.5957 26.0885L23.2021 28.0474C23.1434 28.0816 23.0739 28.0921 23.0077 28.0767C22.9415 28.0613 22.8837 28.0212 22.846 27.9647C22.8084 27.9081 22.7938 27.8393 22.8051 27.7723C22.8165 27.7053 22.853 27.6452 22.9072 27.6042L26.2885 25.0357L22.4624 27.2448C22.4033 27.2793 22.3331 27.2897 22.2665 27.2739C22.1999 27.2581 22.1419 27.2173 22.1046 27.1599C22.0672 27.1026 22.0533 27.033 22.0658 26.9657C22.0784 26.8984 22.1163 26.8385 22.1717 26.7984L25.6032 24.2981L21.5456 26.6405C21.4861 26.6785 21.414 26.6914 21.345 26.6763C21.276 26.6611 21.2159 26.6192 21.1779 26.5597C21.1398 26.5002 21.127 26.4281 21.1421 26.3591C21.1573 26.2901 21.1992 26.23 21.2587 26.192L24.8805 23.6346L20.6464 26.0789C20.587 26.1126 20.5168 26.1222 20.4505 26.1058C20.3842 26.0893 20.3267 26.048 20.29 25.9904C20.2532 25.9327 20.24 25.8632 20.253 25.7961C20.2661 25.729 20.3044 25.6695 20.36 25.6298L24.5893 22.6629L19.76 25.4512C19.6997 25.4865 19.6278 25.4968 19.56 25.4797C19.4922 25.4626 19.4338 25.4195 19.3974 25.3598C19.361 25.3 19.3496 25.2284 19.3655 25.1603C19.3815 25.0922 19.4235 25.0331 19.4827 24.9957L19.6368 24.8965L19.3856 25.041C19.3258 25.0757 19.255 25.0858 19.1879 25.0693C19.1208 25.0528 19.0628 25.0108 19.026 24.9524C18.9892 24.8939 18.9766 24.8234 18.9907 24.7558C19.0049 24.6882 19.0447 24.6287 19.1019 24.5898L23.0917 21.864L18.9003 24.2837C18.8407 24.3186 18.7699 24.3289 18.7028 24.3123C18.6358 24.2958 18.5778 24.2538 18.5413 24.1952C18.5046 24.1369 18.4918 24.0666 18.5057 23.9991C18.5196 23.9315 18.5592 23.872 18.616 23.833L22.816 20.9488L18.4309 23.48C18.3707 23.517 18.2983 23.5287 18.2295 23.5123C18.1608 23.496 18.1013 23.453 18.0643 23.3928C18.0272 23.3326 18.0156 23.2601 18.0319 23.1914C18.0483 23.1226 18.0913 23.0632 18.1515 23.0261L20.0864 21.76L18.0976 22.9082C18.0377 22.9405 17.9677 22.9486 17.902 22.9311C17.8363 22.9135 17.7797 22.8715 17.7439 22.8137C17.7081 22.7559 17.6956 22.6866 17.7091 22.6199C17.7226 22.5532 17.761 22.4942 17.8165 22.4549L20.5195 20.6645L17.728 22.2757C17.6679 22.3075 17.598 22.3152 17.5324 22.2972C17.4668 22.2793 17.4106 22.237 17.3751 22.179C17.3396 22.121 17.3276 22.0517 17.3414 21.9851C17.3553 21.9186 17.3939 21.8598 17.4496 21.8208L23.4656 17.9216C23.4397 17.8662 23.4335 17.8037 23.4482 17.7444C23.4628 17.6851 23.4974 17.6326 23.5461 17.5957L24.4869 16.8858C24.449 16.8665 24.4162 16.8384 24.3913 16.8038C24.3664 16.7692 24.3502 16.7292 24.344 16.687C24.3378 16.6449 24.3417 16.6019 24.3556 16.5616C24.3694 16.5213 24.3927 16.4849 24.4235 16.4554L25.1467 15.7621L24.36 16.2165C24.303 16.248 24.2364 16.2576 24.1728 16.2435C24.1092 16.2294 24.053 16.1925 24.0147 16.1399C23.9763 16.0872 23.9586 16.0223 23.9647 15.9575C23.9709 15.8926 24.0005 15.8322 24.048 15.7877L24.5419 15.3424L24.0277 15.6389C23.9726 15.67 23.9081 15.6805 23.8459 15.6685C23.7837 15.6566 23.7278 15.6229 23.6881 15.5735C23.6484 15.5241 23.6276 15.4622 23.6294 15.3988C23.6311 15.3355 23.6553 15.2748 23.6976 15.2277L24.6309 14.2133L23.6816 14.761C23.6277 14.7914 23.5649 14.8021 23.504 14.7913C23.443 14.7805 23.3877 14.7489 23.3475 14.7019C23.3073 14.6549 23.2846 14.5953 23.2834 14.5335C23.2822 14.4716 23.3025 14.4112 23.3408 14.3626L23.8597 13.7216C23.8097 13.724 23.76 13.713 23.7157 13.6896C23.6714 13.6663 23.6342 13.6314 23.608 13.5888C23.5904 13.5585 23.5789 13.525 23.5742 13.4902C23.5696 13.4555 23.5719 13.4202 23.5809 13.3863C23.59 13.3524 23.6057 13.3207 23.6271 13.2929C23.6485 13.2652 23.6752 13.2419 23.7056 13.2245L24.792 12.5968C24.8459 12.5649 24.9093 12.553 24.9711 12.5633C25.0328 12.5735 25.089 12.6052 25.1297 12.6528C25.1704 12.7004 25.1931 12.7608 25.1936 12.8234C25.1942 12.8861 25.1726 12.9469 25.1328 12.9952L24.6587 13.5813L25.8741 12.88C25.9293 12.8479 25.9941 12.8367 26.0569 12.8484C26.1196 12.8601 26.1761 12.8938 26.216 12.9436C26.256 12.9934 26.2768 13.0558 26.2746 13.1196C26.2724 13.1833 26.2475 13.2442 26.2043 13.2912L25.2709 14.3056L26.4608 13.6186C26.5178 13.5871 26.5844 13.5775 26.648 13.5916C26.7116 13.6057 26.7678 13.6426 26.8061 13.6953C26.8445 13.7479 26.8622 13.8128 26.8561 13.8777C26.8499 13.9425 26.8203 14.0029 26.7728 14.0474L26.2789 14.4928L26.7931 14.1962C26.8495 14.1641 26.9158 14.1536 26.9794 14.1668C27.043 14.18 27.0996 14.216 27.1385 14.268C27.1775 14.32 27.1961 14.3844 27.191 14.4492C27.1858 14.5139 27.1571 14.5746 27.1104 14.6197L26.3872 15.313L27.1739 14.8586C27.2326 14.8245 27.3021 14.8141 27.3683 14.8296C27.4344 14.845 27.4921 14.8852 27.5296 14.9418C27.567 14.9985 27.5815 15.0673 27.5701 15.1342C27.5587 15.2011 27.5223 15.2612 27.4683 15.3024L27.3141 15.4186L27.4507 15.3402C27.5108 15.3084 27.5807 15.3007 27.6463 15.3187C27.7118 15.3367 27.7681 15.3789 27.8036 15.4369C27.839 15.4949 27.8511 15.5642 27.8372 15.6308C27.8234 15.6974 27.7847 15.7561 27.7291 15.7952L26.4464 16.6266L27.7557 15.8709C27.8156 15.8387 27.8856 15.8305 27.9513 15.8481C28.017 15.8656 28.0736 15.9076 28.1094 15.9654C28.1453 16.0232 28.1577 16.0925 28.1442 16.1592C28.1307 16.2259 28.0923 16.2849 28.0368 16.3242L25.3323 18.1157L28.1211 16.5056C28.1811 16.4714 28.2521 16.4619 28.3191 16.4791C28.386 16.4962 28.4437 16.5387 28.4799 16.5976C28.5162 16.6564 28.5281 16.727 28.5133 16.7945C28.4985 16.862 28.4581 16.9212 28.4005 16.9594L26.4603 18.2288L28.4507 17.08C28.5103 17.0459 28.5809 17.0361 28.6475 17.0527C28.7142 17.0694 28.7719 17.1111 28.8086 17.1692C28.8452 17.2273 28.858 17.2974 28.8443 17.3647C28.8306 17.432 28.7914 17.4915 28.7349 17.5306L24.536 20.4144L28.9141 17.8869C28.9739 17.8522 29.0448 17.8421 29.1118 17.8586C29.1789 17.8752 29.237 17.9171 29.2737 17.9756C29.3105 18.0341 29.3232 18.1045 29.309 18.1722C29.2949 18.2398 29.255 18.2993 29.1979 18.3381L25.2085 21.064L29.3552 18.6698C29.4155 18.6345 29.4874 18.6242 29.5552 18.6413C29.623 18.6584 29.6814 18.7015 29.7178 18.7612C29.7542 18.821 29.7656 18.8926 29.7497 18.9607C29.7337 19.0288 29.6917 19.0879 29.6325 19.1253L29.4795 19.224L29.5573 19.1792C29.6168 19.1454 29.6869 19.1358 29.7532 19.1523C29.8195 19.1688 29.877 19.2101 29.9138 19.2677C29.9505 19.3253 29.9637 19.3949 29.9507 19.4619C29.9377 19.529 29.8994 19.5886 29.8437 19.6282L25.6123 22.5968L29.6747 20.2517C29.7341 20.2137 29.8063 20.2008 29.8753 20.2159C29.9442 20.2311 30.0044 20.273 30.0424 20.3325C30.0805 20.392 30.0933 20.4641 30.0782 20.5331C30.063 20.6021 30.0211 20.6622 29.9616 20.7002L26.3403 23.2576L29.6773 21.3312C29.7365 21.2967 29.8066 21.2862 29.8732 21.302C29.9398 21.3178 29.9978 21.3586 30.0352 21.416C30.0725 21.4734 30.0864 21.5429 30.0739 21.6102C30.0614 21.6775 30.0235 21.7374 29.968 21.7776L26.5376 24.2778L29.6795 22.4645C29.7382 22.4303 29.8078 22.4199 29.8739 22.4353C29.9401 22.4506 29.9979 22.4907 30.0356 22.5473C30.0732 22.6038 30.0878 22.6726 30.0765 22.7396C30.0651 22.8066 30.0286 22.8667 29.9744 22.9077L26.5915 25.4773L29.8427 23.6005C29.9013 23.5669 29.9704 23.5567 30.0362 23.5721C30.102 23.5875 30.1594 23.6273 30.197 23.6834C30.2346 23.7396 30.2495 23.8079 30.2386 23.8745C30.2278 23.9412 30.1921 24.0013 30.1387 24.0426L26.9861 26.4634L30.3205 24.5386C30.3797 24.5041 30.4498 24.4937 30.5164 24.5095C30.583 24.5253 30.641 24.5661 30.6784 24.6235C30.7157 24.6808 30.7296 24.7504 30.7171 24.8177C30.7046 24.885 30.6667 24.9449 30.6112 24.985L28.2229 26.7269L30.7419 25.2725C30.8014 25.2345 30.8736 25.2216 30.9427 25.2368C31.0117 25.252 31.0718 25.294 31.1099 25.3536C31.1479 25.4131 31.1608 25.4853 31.1455 25.5544C31.1303 25.6234 31.0884 25.6835 31.0288 25.7216L29.3952 26.8709L31.096 25.889C31.1553 25.856 31.2249 25.8468 31.2907 25.8634C31.3565 25.8799 31.4136 25.9209 31.4502 25.978C31.4868 26.0351 31.5003 26.104 31.4879 26.1707C31.4755 26.2374 31.4382 26.2969 31.3835 26.337L29.5312 27.6533L31.3173 26.6218C31.3767 26.5873 31.4471 26.577 31.5138 26.5932C31.5805 26.6094 31.6384 26.6508 31.6752 26.7088C31.7124 26.7665 31.7259 26.8364 31.7126 26.9039C31.6994 26.9713 31.6606 27.031 31.6043 27.0704L30.0784 28.1472L31.3173 27.432C31.377 27.3941 31.4492 27.3815 31.5181 27.3969C31.587 27.4123 31.647 27.4545 31.6848 27.5141C31.7226 27.5737 31.7352 27.6459 31.7198 27.7148C31.7044 27.7838 31.6623 27.8437 31.6027 27.8816L31.3531 28.0549C31.4111 28.0313 31.4755 28.0289 31.5351 28.0481C31.5947 28.0674 31.6456 28.107 31.6789 28.1601C31.7121 28.2132 31.7256 28.2762 31.7169 28.3383C31.7083 28.4003 31.678 28.4573 31.6315 28.4992L29.9792 30.0229L31.3173 29.2506C31.3692 29.2201 31.4301 29.2082 31.4896 29.217C31.5492 29.2259 31.604 29.2549 31.6448 29.2992C31.686 29.343 31.7111 29.3995 31.7162 29.4594C31.7212 29.5193 31.7058 29.5792 31.6725 29.6293L30.9915 30.6522L31.3173 30.464C31.3476 30.4462 31.3811 30.4346 31.4159 30.4299C31.4506 30.4251 31.486 30.4274 31.5199 30.4365C31.5538 30.4455 31.5856 30.4613 31.6133 30.4828C31.6411 30.5042 31.6643 30.531 31.6816 30.5616C31.6993 30.5919 31.7107 30.6253 31.7154 30.6601C31.72 30.6948 31.7177 30.7302 31.7087 30.764C31.6996 30.7979 31.6839 30.8296 31.6625 30.8574C31.6411 30.8852 31.6144 30.9084 31.584 30.9258L30.2704 31.6842C30.2183 31.7142 30.1576 31.7258 30.0981 31.7169C30.0387 31.7081 29.9839 31.6794 29.9428 31.6356C29.9017 31.5918 29.8766 31.5353 29.8716 31.4754C29.8666 31.4155 29.8819 31.3556 29.9152 31.3056L30.5963 30.2826L28.168 31.6842C28.1113 31.7174 28.0443 31.7283 27.98 31.7148C27.9158 31.7013 27.8588 31.6643 27.8203 31.6112C27.7813 31.5584 27.7632 31.4932 27.7694 31.4279C27.7756 31.3627 27.8057 31.302 27.8539 31.2576L29.5056 29.7344L26.128 31.6842C26.0875 31.7078 26.0415 31.7201 25.9947 31.72V31.7173ZM2.08267 31.7173C2.02543 31.717 1.9698 31.6983 1.92398 31.664C1.87816 31.6297 1.84456 31.5816 1.82813 31.5268C1.81171 31.472 1.81332 31.4133 1.83274 31.3595C1.85216 31.3056 1.88836 31.2594 1.936 31.2277L5.40267 28.9466L0.867199 31.5648C0.837188 31.5828 0.803911 31.5948 0.769269 31.6C0.734627 31.6052 0.699298 31.6036 0.6653 31.5951C0.596636 31.5781 0.53756 31.5344 0.501066 31.4738C0.464572 31.4132 0.45365 31.3406 0.470704 31.2719C0.487757 31.2033 0.531388 31.1442 0.591999 31.1077L1.3088 30.6581L0.682132 31.0197C0.622053 31.0539 0.55106 31.0634 0.484115 31.0462C0.41717 31.029 0.359504 30.9865 0.323268 30.9277C0.287032 30.8688 0.275058 30.7982 0.28987 30.7307C0.304681 30.6632 0.345121 30.6041 0.402666 30.5658L6.2528 26.7365L0.682132 29.9525C0.556266 30.0266 0.395732 29.9845 0.320532 29.8602C0.245332 29.736 0.283199 29.5749 0.405332 29.4965L3.096 27.784L0.682132 29.177C0.621522 29.2135 0.548896 29.2244 0.480233 29.2074C0.41157 29.1903 0.352493 29.1467 0.315999 29.0861C0.279505 29.0255 0.268584 28.9529 0.285637 28.8842C0.30269 28.8155 0.346322 28.7565 0.406932 28.72L0.726399 28.5194L0.682132 28.545C0.556266 28.6186 0.395732 28.577 0.320532 28.4528C0.245332 28.3285 0.283199 28.1674 0.405332 28.089L1.8848 27.1472L0.681599 27.8416C0.622027 27.8752 0.551806 27.8847 0.485459 27.868C0.419111 27.8513 0.361713 27.8098 0.325135 27.7519C0.288557 27.6941 0.275597 27.6245 0.288936 27.5574C0.302274 27.4903 0.340891 27.4309 0.396799 27.3914L5.79787 23.6634L0.780799 26.56C0.720958 26.5935 0.65049 26.6027 0.584045 26.5856C0.5176 26.5686 0.46029 26.5265 0.42403 26.4683C0.387769 26.4101 0.375348 26.3401 0.389347 26.2729C0.403347 26.2058 0.44269 26.1466 0.499199 26.1077L3.9552 23.7861L1.5888 25.1525C1.52932 25.1905 1.45716 25.2034 1.3882 25.1883C1.31923 25.1731 1.25912 25.1312 1.22107 25.0717C1.18302 25.0122 1.17015 24.9401 1.18531 24.8711C1.20046 24.8021 1.24239 24.742 1.30187 24.704L4.86827 22.1872L2.25707 23.6944C2.19707 23.73 2.12549 23.7407 2.0577 23.7242C1.9899 23.7076 1.93129 23.6652 1.89443 23.6059C1.85758 23.5467 1.84542 23.4753 1.86057 23.4072C1.87572 23.3391 1.91697 23.2796 1.97547 23.2416L2.3376 23L2.31947 23.0106C2.26049 23.0444 2.19084 23.0544 2.12474 23.0386C2.05865 23.0227 2.0011 22.9822 1.96385 22.9254C1.92661 22.8685 1.91248 22.7996 1.92435 22.7327C1.93623 22.6657 1.9732 22.6059 2.02773 22.5653L4.62613 20.6448L2.3216 21.9749C2.26232 22.0079 2.19269 22.0171 2.12689 22.0006C2.06108 21.984 2.00405 21.943 1.96741 21.8859C1.93077 21.8288 1.91727 21.7599 1.92967 21.6932C1.94206 21.6265 1.97942 21.567 2.03413 21.5269L3.256 20.6586L2.3232 21.1973C2.26464 21.2303 2.1958 21.2399 2.13044 21.2243C2.06509 21.2087 2.00803 21.1689 1.9707 21.1131C1.93336 21.0572 1.9185 20.9893 1.92907 20.9229C1.93964 20.8566 1.97488 20.7967 2.02773 20.7552L3.97867 19.2592L2.336 20.2069C2.27709 20.2458 2.20513 20.2597 2.13597 20.2455C2.06681 20.2314 2.0061 20.1903 1.9672 20.1314C1.9283 20.0725 1.9144 20.0006 1.92855 19.9314C1.9427 19.8622 1.98375 19.8015 2.04267 19.7626L4.22667 18.1269L2.70613 19.0048C2.67675 19.0237 2.64393 19.0367 2.60953 19.0429C2.57514 19.0492 2.53985 19.0486 2.50567 19.0412C2.43666 19.0263 2.37639 18.9846 2.33813 18.9253C2.29987 18.866 2.28675 18.7939 2.30165 18.7248C2.31655 18.6558 2.35826 18.5956 2.4176 18.5573L3.89387 17.4992L3.41067 17.7776C3.35181 17.8115 3.28221 17.8217 3.21608 17.8061C3.14995 17.7905 3.09228 17.7502 3.05484 17.6935C3.0174 17.6368 3.00301 17.568 3.01463 17.501C3.02624 17.4341 3.06298 17.3741 3.11733 17.3333L4.62187 16.2048L4.1616 16.4704C4.10366 16.5033 4.03548 16.5134 3.97048 16.4986C3.90549 16.4838 3.84839 16.4452 3.81045 16.3904C3.77251 16.3356 3.75647 16.2686 3.76549 16.2025C3.77451 16.1365 3.80795 16.0762 3.8592 16.0336L5.14773 14.9765L4.95787 15.0858C4.90248 15.1179 4.8374 15.129 4.77452 15.117C4.71163 15.1051 4.65514 15.071 4.61536 15.0208C4.57557 14.9707 4.55514 14.9079 4.55781 14.844C4.56047 14.78 4.58605 14.7192 4.62987 14.6725L5.54293 13.7024C5.49648 13.6837 5.45624 13.6523 5.42686 13.6118C5.39747 13.5713 5.38013 13.5233 5.37684 13.4733C5.37356 13.4234 5.38445 13.3735 5.40827 13.3295C5.43209 13.2855 5.46786 13.2491 5.51147 13.2245L6.59893 12.5962C6.65433 12.5651 6.71899 12.5548 6.78134 12.567C6.84368 12.5793 6.89961 12.6133 6.93911 12.6631C6.9786 12.7129 6.99907 12.7751 6.99684 12.8386C6.99461 12.9021 6.96982 12.9627 6.92693 13.0096L6.25973 13.7184L7.69547 12.8896C7.75344 12.8545 7.8226 12.8428 7.88886 12.857C7.95512 12.8712 8.01348 12.9101 8.05204 12.9658C8.09061 13.0215 8.10648 13.0898 8.09641 13.1568C8.08634 13.2238 8.0511 13.2845 7.99787 13.3264L6.7088 14.384L8.19893 13.5242C8.25779 13.4903 8.32738 13.48 8.39352 13.4957C8.45965 13.5113 8.51732 13.5516 8.55476 13.6083C8.5922 13.665 8.60658 13.7338 8.59497 13.8008C8.58335 13.8677 8.54662 13.9277 8.49227 13.9685L6.9888 15.0965L8.31467 14.3306C8.34405 14.3117 8.37687 14.2987 8.41127 14.2925C8.44566 14.2862 8.48095 14.2868 8.51512 14.2942C8.5493 14.3015 8.58168 14.3156 8.61043 14.3355C8.63917 14.3554 8.66372 14.3807 8.68267 14.4101C8.70161 14.4395 8.71458 14.4723 8.72084 14.5067C8.7271 14.5411 8.72653 14.5764 8.71915 14.6106C8.71177 14.6447 8.69773 14.6771 8.67784 14.7059C8.65794 14.7346 8.63258 14.7592 8.6032 14.7781L7.13013 15.8341L7.82613 15.4325C7.88498 15.3985 7.95458 15.3883 8.02072 15.4039C8.08685 15.4196 8.14452 15.4598 8.18196 15.5165C8.2194 15.5732 8.23378 15.6421 8.22217 15.709C8.21055 15.776 8.17382 15.836 8.11947 15.8768L5.93333 17.5141L7.24747 16.7557C7.3061 16.7187 7.37686 16.7061 7.44468 16.7205C7.5125 16.7348 7.57203 16.7751 7.6106 16.8327C7.64916 16.8904 7.66373 16.9607 7.65119 17.0289C7.63865 17.0971 7.6 17.1577 7.54347 17.1978L5.592 18.6938L7.90773 17.3573C7.96701 17.3243 8.03664 17.3151 8.10244 17.3316C8.16825 17.3482 8.22528 17.3892 8.26192 17.4463C8.29857 17.5034 8.31206 17.5723 8.29967 17.639C8.28727 17.7057 8.24991 17.7652 8.1952 17.8053L6.97387 18.673L8.44747 17.8224C8.50635 17.7907 8.57496 17.7823 8.63975 17.7988C8.70454 17.8153 8.7608 17.8554 8.79744 17.9113C8.83407 17.9672 8.84841 18.0349 8.83763 18.1008C8.82685 18.1668 8.79173 18.2263 8.7392 18.2677L6.14133 20.1882L9.1952 18.425C9.2552 18.3894 9.32677 18.3787 9.39457 18.3952C9.46237 18.4118 9.52098 18.4542 9.55783 18.5135C9.59469 18.5727 9.60684 18.6441 9.59169 18.7122C9.57654 18.7803 9.53529 18.8398 9.4768 18.8778L9.112 19.121L9.6784 18.7946C9.70785 18.7758 9.74072 18.7629 9.77514 18.7568C9.80956 18.7507 9.84485 18.7514 9.879 18.7589C9.91315 18.7664 9.94548 18.7805 9.97416 18.8005C10.0028 18.8205 10.0273 18.846 10.0461 18.8754C10.065 18.9049 10.0778 18.9378 10.084 18.9722C10.0901 19.0066 10.0894 19.0419 10.0819 19.076C10.0744 19.1102 10.0602 19.1425 10.0402 19.1712C10.0202 19.1999 9.99478 19.2243 9.96533 19.2432L6.4016 21.7584L10.5051 19.3893C10.5648 19.3542 10.6359 19.3439 10.7031 19.3607C10.7703 19.3774 10.8283 19.4199 10.8645 19.4789C10.9014 19.5376 10.9139 19.6083 10.8994 19.6761C10.8848 19.7438 10.8444 19.8032 10.7867 19.8416L7.3264 22.1653L11.2629 19.8928C11.3225 19.8591 11.3927 19.8497 11.4591 19.8664C11.5254 19.883 11.5828 19.9246 11.6194 19.9824C11.656 20.0402 11.6689 20.1099 11.6556 20.177C11.6423 20.2441 11.6036 20.3035 11.5477 20.3429L6.14987 24.0688L12.2992 20.5184C12.3597 20.4817 12.4322 20.4705 12.501 20.4873C12.5697 20.5041 12.6289 20.5475 12.6656 20.608C12.7023 20.6684 12.7135 20.741 12.6967 20.8097C12.6799 20.8784 12.6365 20.9377 12.576 20.9744L11.0848 21.9232L12.9184 20.865C12.979 20.8285 13.0516 20.8176 13.1203 20.8347C13.1543 20.8431 13.1863 20.8582 13.2145 20.879C13.2427 20.8998 13.2665 20.926 13.2845 20.956C13.3026 20.986 13.3146 21.0193 13.3198 21.0539C13.325 21.0885 13.3233 21.1239 13.3149 21.1579C13.3065 21.1919 13.2914 21.2239 13.2706 21.252C13.2498 21.2802 13.2236 21.304 13.1936 21.3221L12.8805 21.5184L13.4933 21.1648C13.5538 21.1281 13.6264 21.1169 13.6951 21.1337C13.7638 21.1505 13.823 21.1939 13.8597 21.2544C13.8964 21.3148 13.9076 21.3874 13.8908 21.4561C13.874 21.5248 13.8306 21.5841 13.7701 21.6208L11.0837 23.3306L14.2437 21.5066C14.3038 21.4725 14.3748 21.463 14.4418 21.4801C14.5087 21.4973 14.5664 21.5398 14.6026 21.5986C14.6388 21.6575 14.6508 21.7281 14.636 21.7956C14.6212 21.8631 14.5807 21.9222 14.5232 21.9605L8.66773 25.7936L13.6027 22.9445C13.6633 22.908 13.7359 22.8971 13.8046 22.9141C13.8386 22.9226 13.8706 22.9376 13.8987 22.9585C13.9269 22.9793 13.9507 23.0054 13.9688 23.0354C13.9869 23.0654 13.9989 23.0987 14.0041 23.1334C14.0093 23.168 14.0076 23.2033 13.9992 23.2373C13.9907 23.2713 13.9757 23.3033 13.9548 23.3315C13.934 23.3597 13.9079 23.3835 13.8779 23.4016L13.0811 23.9018C13.1426 23.8786 13.2105 23.879 13.2718 23.9028C13.3331 23.9266 13.3834 23.9723 13.4131 24.0309C13.4428 24.0896 13.4497 24.1571 13.4327 24.2206C13.4156 24.2841 13.3756 24.3391 13.3205 24.3749L9.45333 26.9194C9.5013 26.9154 9.54943 26.9248 9.59231 26.9467C9.6352 26.9686 9.67111 27.002 9.696 27.0432C9.73289 27.1016 9.74566 27.172 9.73163 27.2397C9.71761 27.3073 9.67787 27.3669 9.6208 27.4058L8.64053 28.0757C8.69184 28.0807 8.74059 28.1006 8.78087 28.1327C8.82115 28.1649 8.85124 28.2081 8.86749 28.257C8.88374 28.3059 8.88546 28.3585 8.87245 28.4084C8.85943 28.4583 8.83222 28.5034 8.79413 28.5381L7.20533 29.9845L7.50293 29.8133C7.55762 29.7819 7.62167 29.7709 7.6837 29.7822C7.74573 29.7936 7.80173 29.8266 7.84176 29.8753C7.88179 29.924 7.90326 29.9853 7.90235 30.0484C7.90144 30.1115 7.87822 30.1721 7.8368 30.2197L7.2368 30.9034C7.26373 30.9329 7.28368 30.968 7.29518 31.0062C7.30668 31.0443 7.30944 31.0846 7.30324 31.124C7.29704 31.1634 7.28205 31.2009 7.25937 31.2337C7.2367 31.2666 7.20693 31.2938 7.17227 31.3136L6.53707 31.6805C6.48238 31.7119 6.41833 31.7229 6.3563 31.7116C6.29427 31.7002 6.23827 31.6672 6.19824 31.6185C6.15821 31.5698 6.13674 31.5085 6.13765 31.4454C6.13856 31.3823 6.16178 31.3217 6.2032 31.2741L6.37173 31.0821L5.33387 31.681C5.27688 31.7143 5.2096 31.7252 5.14503 31.7117C5.08046 31.6982 5.02317 31.6613 4.98424 31.6081C4.94531 31.5548 4.9275 31.489 4.93425 31.4234C4.94101 31.3578 4.97184 31.297 5.0208 31.2528L6.60907 29.8064L3.36213 31.681C3.30238 31.7157 3.2315 31.7258 3.16443 31.7093C3.09735 31.6928 3.03931 31.6508 3.00254 31.5924C2.96576 31.5339 2.95312 31.4634 2.96727 31.3958C2.98142 31.3282 3.02126 31.2687 3.0784 31.2298L3.512 30.9333L2.21707 31.6805C2.17659 31.7041 2.13056 31.7164 2.08373 31.7162L2.08267 31.7173Z" fill="#FCB1A7"/>
<path d="M31.8528 26.7141C30.9376 24.616 29.7728 22.8757 30.2112 20.4005C30.088 18.1354 28.3061 16.3418 27.3536 14.3605C34.8837 5.61758 22.8773 -5.88162 16.0416 4.15518C9.3904 -5.97175 -2.94294 5.91145 4.64053 14.5077C3.79093 16.1728 2.6672 17.7018 1.9232 19.4069C1.4144 21.0373 2.22506 22.8522 1.3792 24.4165C0.774396 25.4928 -0.107204 26.4981 0.147196 27.8208C0.426663 28.9728 -0.585071 31.3002 0.913063 31.6528C3.37653 31.3754 7.25813 32.8714 8.1776 29.7413C9.42026 26.36 13.5152 25.7466 14.6597 22.2261C15.5691 22.7792 16.3531 22.5893 17.1909 22.1264C18.8459 26.3301 22.8741 26.6298 24.4864 31.0645C25.928 32.3216 28.5312 31.2976 30.3776 31.6128C32.9765 31.8042 31.5232 28.2896 31.8528 26.7141ZM11.7083 25.4976C9.27093 26.656 7.62666 28.9216 6.6656 31.281C5.3216 31.3002 3.92053 31.2682 2.55733 31.281C2.15893 31.281 1.15253 31.4896 0.946129 31.0053C0.767463 30.5861 0.919463 29.8373 0.919463 29.401C1.02186 28.192 0.621329 26.873 1.29173 25.7877C2.93226 23.9424 2.40373 21.616 2.66186 19.393C3.5728 18.0938 5.65173 11.9829 7.47786 13.249C9.16906 14.8181 6.6128 16.8661 6.0336 18.4405C6.61493 18.9514 7.0736 17.8234 7.33066 17.3909C9.34639 19.2463 11.6333 20.7835 14.1125 21.9493C13.448 23.1237 12.8187 24.7018 11.7083 25.4976ZM16.1307 22.153C12.9771 20.9744 10.1333 19.0762 7.68906 16.7733C10.3029 13.9866 7.57653 10.7626 5.07093 13.8085C-1.71947 5.16105 10.2048 -5.59949 15.6144 5.15945C15.7008 5.40638 16.3205 5.18345 16.3845 5.00105C21.6293 -5.58615 33.6357 5.37865 27.0363 13.8144C25.2032 11.0032 21.3136 13.6768 24.3029 16.9285C21.928 19.153 19.1792 20.9957 16.1301 22.153H16.1307ZM31.1147 31.321C29.5109 31.3264 27.872 31.3173 26.2565 31.321C24.9333 31.3626 24.7237 29.5445 24.0176 28.6954C22.4533 25.88 18.8949 25.2421 17.9029 21.8096C20.3413 20.6981 22.5632 19.1445 24.5483 17.352C24.904 17.8176 25.128 19.0122 25.8907 18.4314C25.7531 17.3642 24.6256 16.224 24.1659 15.1338C23.0832 12.8042 25.8635 12.3056 26.5701 14.497C26.5664 14.5274 26.5787 14.552 26.6101 14.5674C27.5365 16.5637 29.2709 18.3141 29.4379 20.5648C29.4704 22.0266 29.2181 23.584 30.0811 24.8634C31.7189 26.6469 30.8773 29.2352 31.1141 31.3216L31.1147 31.321Z" fill="#262626"/>
</g>
<defs>
<clipPath id="clip0_121_1739">
<rect width="32" height="32" fill="white"/>
</clipPath>
</defs>
</svg>
