<svg width="32" height="32" viewBox="0 0 32 32" fill="none" xmlns="http://www.w3.org/2000/svg">
<g clip-path="url(#clip0_121_1924)">
<path d="M18.9349 5.30501C18.8878 5.30492 18.8415 5.29234 18.8008 5.26856C18.7601 5.24477 18.7265 5.21062 18.7033 5.16959C18.6801 5.12855 18.6682 5.0821 18.6688 5.03497C18.6694 4.98784 18.6824 4.94171 18.7067 4.90127L18.7691 4.79727L18.2027 5.12421C18.149 5.15516 18.0862 5.16646 18.0252 5.15618C17.9641 5.14589 17.9085 5.11466 17.8679 5.06785C17.8273 5.02103 17.8043 4.96156 17.8028 4.89963C17.8013 4.8377 17.8215 4.77718 17.8597 4.72847L18.2704 4.20741L17.5776 4.60687C17.5219 4.63901 17.4565 4.64996 17.3934 4.63771C17.3303 4.62546 17.2738 4.59084 17.2342 4.54021C17.1946 4.48958 17.1746 4.42635 17.178 4.36217C17.1813 4.29798 17.2077 4.23715 17.2523 4.19087L17.6139 3.81754L17.4096 3.93541C17.3548 3.96769 17.2903 3.97929 17.2277 3.96812C17.1651 3.95694 17.1086 3.92372 17.0684 3.87448C17.0281 3.82523 17.0069 3.76321 17.0084 3.69964C17.01 3.63608 17.0342 3.57517 17.0768 3.52794L17.4955 3.05594L17.0784 3.29647C17.0257 3.32733 16.9639 3.33904 16.9036 3.32961C16.8432 3.32018 16.788 3.2902 16.7472 3.24474C16.7064 3.19939 16.6823 3.14147 16.6789 3.08056C16.6755 3.01965 16.693 2.95941 16.7285 2.90981L17.2411 2.19674L16.0405 2.88954C16.0102 2.90733 15.9766 2.91893 15.9418 2.9237C15.9069 2.92846 15.8715 2.92629 15.8375 2.9173C15.8035 2.90831 15.7716 2.89268 15.7437 2.87132C15.7157 2.84996 15.6923 2.82328 15.6747 2.79283C15.6571 2.76237 15.6458 2.72874 15.6412 2.69386C15.6367 2.65899 15.6391 2.62356 15.6483 2.58962C15.6575 2.55568 15.6734 2.5239 15.6949 2.49611C15.7165 2.46831 15.7433 2.44505 15.7739 2.42767L18.0469 1.11567C18.0997 1.08448 18.1617 1.07248 18.2223 1.0817C18.2829 1.09091 18.3385 1.12078 18.3796 1.16625C18.4208 1.21172 18.445 1.27 18.4481 1.33124C18.4512 1.39248 18.4331 1.45292 18.3968 1.50234L17.8843 2.21541L18.6528 1.77167C18.7076 1.7403 18.7717 1.72938 18.8338 1.74087C18.8959 1.75236 18.9519 1.7855 18.9918 1.8344C19.0318 1.8833 19.0531 1.94479 19.0519 2.00791C19.0508 2.07104 19.0273 2.13172 18.9856 2.17914L18.5675 2.65061L18.9984 2.40207C19.0541 2.36994 19.1195 2.35898 19.1826 2.37123C19.2456 2.38348 19.3022 2.41811 19.3418 2.46874C19.3814 2.51937 19.4014 2.58259 19.398 2.64678C19.3947 2.71097 19.3683 2.7718 19.3237 2.81807L18.9616 3.19194L19.2037 3.05221C19.2574 3.0205 19.3204 3.00862 19.3819 3.01864C19.4434 3.02865 19.4995 3.05993 19.5403 3.10702C19.5811 3.15411 19.6041 3.21402 19.6052 3.27632C19.6064 3.33862 19.5857 3.39935 19.5467 3.44794L19.136 3.96954L19.3957 3.81967C19.4469 3.79036 19.5063 3.77882 19.5647 3.78686C19.6231 3.79491 19.6772 3.82208 19.7185 3.86413C19.7599 3.90619 19.7861 3.96075 19.7931 4.01929C19.8001 4.07783 19.7875 4.13704 19.7573 4.18767L19.6613 4.34714C19.709 4.34827 19.7557 4.36101 19.7973 4.38424C19.8389 4.40747 19.8743 4.4405 19.9003 4.48047C19.9179 4.51076 19.9294 4.54425 19.934 4.579C19.9387 4.61375 19.9364 4.64907 19.9273 4.68293C19.9183 4.7168 19.9026 4.74853 19.8812 4.7763C19.8598 4.80407 19.8331 4.82733 19.8027 4.84474L19.0677 5.26927C19.0273 5.29294 18.9818 5.30529 18.9349 5.30501Z" fill="#DDAD33"/>
<path d="M13.6011 5.20957C13.5629 5.20954 13.5251 5.20135 13.4903 5.18552C13.4556 5.1697 13.4246 5.14662 13.3995 5.11783C13.359 5.0709 13.3361 5.01142 13.3345 4.94949C13.333 4.88756 13.3529 4.827 13.3909 4.7781L14.0693 3.91303L12.464 4.8389C12.4046 4.87262 12.3344 4.88224 12.2681 4.86576C12.2018 4.84928 12.1443 4.80797 12.1076 4.75035C12.0708 4.69273 12.0576 4.6232 12.0706 4.55612C12.0837 4.48903 12.122 4.42951 12.1776 4.38983L12.5723 4.1125C12.5133 4.12376 12.4523 4.11483 12.399 4.08717C12.3457 4.05951 12.3033 4.01471 12.2786 3.96001C12.2539 3.9053 12.2484 3.84387 12.2628 3.78562C12.2773 3.72737 12.311 3.67568 12.3584 3.6389L13.2896 2.92743L12.896 3.15463C12.8394 3.18783 12.7725 3.19894 12.7082 3.18582C12.6439 3.1727 12.5867 3.13629 12.5476 3.08357C12.5085 3.03086 12.4903 2.96556 12.4964 2.90021C12.5025 2.83487 12.5326 2.7741 12.5808 2.72957L13.5104 1.8565C13.4556 1.84841 13.4046 1.82338 13.3647 1.7849C13.3249 1.74642 13.298 1.69643 13.2879 1.64192C13.2779 1.58742 13.2851 1.53113 13.3087 1.48095C13.3322 1.43077 13.3709 1.38921 13.4192 1.3621L15.0507 0.420232C15.1073 0.387035 15.1742 0.375928 15.2385 0.389044C15.3028 0.40216 15.36 0.438573 15.3991 0.49129C15.4381 0.544006 15.4564 0.609307 15.4502 0.674649C15.4441 0.739992 15.4141 0.800766 15.3659 0.845298L14.6267 1.53916L16.5995 0.400498C16.6582 0.362468 16.7295 0.34908 16.798 0.363231C16.8665 0.377382 16.9267 0.417934 16.9655 0.476114C17.0043 0.534294 17.0187 0.605424 17.0055 0.674115C16.9923 0.742806 16.9526 0.803536 16.8949 0.843165L15.9653 1.55357L17.4368 0.703965C17.4962 0.670242 17.5664 0.660626 17.6327 0.677104C17.699 0.693581 17.7565 0.734893 17.7932 0.792512C17.83 0.850131 17.8432 0.91966 17.8302 0.986747C17.8171 1.05383 17.7788 1.11336 17.7232 1.15303L15.3371 2.82556C15.3746 2.87251 15.3952 2.93077 15.3955 2.99089C15.3958 3.05101 15.3758 3.10946 15.3387 3.15677L14.5808 4.12317C14.6373 4.12797 14.6909 4.1507 14.7336 4.18802C14.7764 4.22535 14.8061 4.27535 14.8184 4.33073C14.8308 4.38611 14.8252 4.444 14.8024 4.49597C14.7796 4.54794 14.7409 4.59128 14.6917 4.6197L13.7333 5.17277C13.6929 5.19644 13.6468 5.20878 13.6 5.2085L13.6011 5.20957ZM2.69173 30.6506C2.63755 30.6507 2.58465 30.6342 2.54006 30.6034C2.49548 30.5726 2.46133 30.529 2.44216 30.4783C2.42299 30.4276 2.41971 30.3723 2.43276 30.3197C2.44581 30.2672 2.47456 30.2198 2.5152 30.184L4.22453 28.6752L1.48266 30.2576C1.42368 30.2914 1.35403 30.3013 1.28794 30.2855C1.22184 30.2696 1.1643 30.2292 1.12705 30.1723C1.08981 30.1154 1.07568 30.0465 1.08755 29.9796C1.09942 29.9127 1.1364 29.8528 1.19093 29.8122L2.4464 28.8842L1.2176 29.593C1.1581 29.6277 1.08748 29.6379 1.02062 29.6214C0.953754 29.605 0.89588 29.5633 0.859195 29.505C0.822158 29.447 0.809077 29.3769 0.822706 29.3095C0.836336 29.242 0.875612 29.1825 0.932262 29.1434L1.14986 28.9914C1.08925 29.0074 1.02494 29.0016 0.96822 28.9749C0.911501 28.9482 0.866002 28.9023 0.839712 28.8454C0.813421 28.7885 0.808021 28.7242 0.824458 28.6637C0.840895 28.6032 0.87812 28.5504 0.929595 28.5146L1.17706 28.3424C1.11761 28.3643 1.05229 28.3644 0.992769 28.3427C0.933247 28.3209 0.883397 28.2787 0.85212 28.2236C0.820843 28.1685 0.810175 28.104 0.822023 28.0418C0.83387 27.9795 0.86746 27.9235 0.916795 27.8837L3.37493 25.9354L1.21546 27.1824C1.1562 27.2167 1.08599 27.227 1.01938 27.211C0.952775 27.1949 0.894885 27.1539 0.857713 27.0964C0.820541 27.0388 0.806939 26.9692 0.819726 26.9019C0.832513 26.8346 0.870709 26.7748 0.926395 26.7349L1.8528 26.0704L1.21546 26.4378C1.15623 26.4713 1.08645 26.4809 1.0204 26.4646C0.954342 26.4483 0.897014 26.4074 0.860145 26.3502C0.823276 26.293 0.809655 26.2239 0.82207 26.157C0.834485 26.0901 0.871998 26.0305 0.926928 25.9904L1.84693 25.3306L1.21546 25.6949C1.15714 25.7283 1.08835 25.7385 1.02286 25.7233C0.957368 25.7082 0.900008 25.6689 0.862257 25.6133C0.824507 25.5577 0.809152 25.4899 0.819264 25.4234C0.829376 25.3569 0.86421 25.2968 0.916795 25.2549L3.33226 23.3482L1.21493 24.5701C1.15654 24.6037 1.08758 24.614 1.02192 24.5989C0.956263 24.5837 0.898772 24.5443 0.861007 24.4885C0.823241 24.4327 0.808001 24.3646 0.818351 24.2981C0.8287 24.2315 0.863872 24.1713 0.916795 24.1296L3.28213 22.2709L1.21493 23.464C1.15676 23.4964 1.08856 23.5059 1.02373 23.4906C0.958903 23.4753 0.902147 23.4363 0.864631 23.3813C0.827114 23.3263 0.811553 23.2592 0.821009 23.1932C0.830466 23.1273 0.864255 23.0673 0.915728 23.025L2.512 21.753L1.21493 22.5013C1.15993 22.5326 1.09557 22.5434 1.03337 22.5316C0.971169 22.5199 0.91518 22.4864 0.875416 22.4371C0.835652 22.3879 0.814708 22.3261 0.816328 22.2628C0.817949 22.1995 0.842029 22.1389 0.884262 22.0917L2.032 20.8288L1.21493 21.3008C1.17054 21.3269 1.11951 21.3396 1.06805 21.3372C1.01659 21.3349 0.966919 21.3176 0.925092 21.2876C0.883265 21.2575 0.851085 21.2159 0.832472 21.1679C0.813859 21.1198 0.809617 21.0674 0.820262 21.017L0.994662 20.1562C0.946592 20.1392 0.904378 20.1088 0.872985 20.0687C0.841592 20.0285 0.822326 19.9802 0.817452 19.9294C0.812578 19.8787 0.822299 19.8276 0.845472 19.7822C0.868645 19.7367 0.904307 19.6989 0.948262 19.673L1.216 19.5184C1.26038 19.4922 1.31141 19.4795 1.36287 19.4819C1.41434 19.4842 1.464 19.5015 1.50583 19.5316C1.54766 19.5616 1.57984 19.6032 1.59845 19.6513C1.61706 19.6993 1.62131 19.7517 1.61066 19.8021L1.46026 20.5434L3.24693 19.512C3.30193 19.4806 3.36629 19.4699 3.42849 19.4816C3.49069 19.4934 3.54668 19.5269 3.58644 19.5762C3.6262 19.6254 3.64715 19.6872 3.64553 19.7505C3.64391 19.8138 3.61983 19.8744 3.5776 19.9216L2.42986 21.184L5.3376 19.5056C5.3957 19.4714 5.46465 19.4607 5.53037 19.4757C5.59608 19.4907 5.65361 19.5302 5.6912 19.5861C5.72921 19.6416 5.74474 19.7095 5.73464 19.776C5.72455 19.8425 5.68958 19.9028 5.6368 19.9445L4.03893 21.2181L6.25013 19.9413C6.30852 19.9077 6.37748 19.8974 6.44314 19.9125C6.50879 19.9277 6.56628 19.9671 6.60405 20.0229C6.64182 20.0787 6.65706 20.1468 6.64671 20.2133C6.63636 20.2799 6.60118 20.3401 6.54826 20.3818L4.18293 22.2405L6.25173 21.0464C6.31005 21.013 6.37884 21.0028 6.44433 21.0179C6.50982 21.0331 6.56718 21.0724 6.60493 21.128C6.64268 21.1836 6.65804 21.2514 6.64793 21.3179C6.63781 21.3843 6.60298 21.4445 6.5504 21.4864L4.13546 23.393L6.25386 22.1701C6.31309 22.1366 6.38287 22.1271 6.44893 22.1434C6.51498 22.1596 6.57231 22.2006 6.60918 22.2577C6.64605 22.3149 6.65967 22.384 6.64725 22.4509C6.63484 22.5178 6.59733 22.5774 6.5424 22.6176L5.62186 23.2778L6.25493 22.9125C6.31419 22.8781 6.3844 22.8679 6.45101 22.8839C6.51762 22.8999 6.57551 22.941 6.61268 22.9985C6.64985 23.056 6.66345 23.1257 6.65066 23.193C6.63788 23.2603 6.59968 23.3201 6.544 23.36L5.62026 24.0229L6.25599 23.656C6.31423 23.6233 6.38258 23.6137 6.44754 23.6291C6.5125 23.6444 6.56936 23.6835 6.60688 23.7387C6.6444 23.7939 6.65985 23.8612 6.65018 23.9272C6.64051 23.9933 6.60643 24.0533 6.55466 24.0954L4.0944 26.0448L6.25813 24.7962C6.28765 24.7775 6.32058 24.7647 6.35504 24.7586C6.38949 24.7526 6.4248 24.7534 6.45895 24.761C6.4931 24.7686 6.52541 24.7829 6.55405 24.803C6.58269 24.823 6.60709 24.8486 6.62586 24.8781C6.64463 24.9076 6.6574 24.9405 6.66345 24.975C6.66949 25.0095 6.66869 25.0448 6.66109 25.0789C6.65349 25.1131 6.63923 25.1454 6.61914 25.174C6.59905 25.2027 6.57352 25.2271 6.544 25.2458L6.2976 25.4176C6.35884 25.3919 6.42747 25.3902 6.48995 25.4126C6.55243 25.4351 6.60423 25.4802 6.63515 25.5389C6.66607 25.5977 6.67386 25.6659 6.65698 25.7301C6.64011 25.7943 6.5998 25.8499 6.544 25.8858L6.32586 26.0384C6.37979 26.0237 6.43699 26.0266 6.48916 26.0466C6.54133 26.0667 6.58576 26.1028 6.61599 26.1498C6.65347 26.2068 6.66767 26.2761 6.65566 26.3432C6.64366 26.4104 6.60637 26.4704 6.55146 26.5109L5.29493 27.44L6.26133 26.8821C6.31861 26.8489 6.38619 26.8382 6.45093 26.852C6.51567 26.8659 6.57293 26.9034 6.61158 26.9571C6.65023 27.0109 6.66751 27.0771 6.66004 27.1429C6.65258 27.2087 6.62091 27.2693 6.5712 27.313L4.86186 28.8218L6.26293 28.0133C6.31789 27.9812 6.38257 27.9699 6.44514 27.9816C6.50772 27.9933 6.56401 28.027 6.60373 28.0768C6.64372 28.1261 6.66468 28.1882 6.66283 28.2517C6.66097 28.3152 6.6364 28.376 6.5936 28.4229L5.79786 29.3008L6.26453 29.0314C6.31626 29.0022 6.37625 28.9911 6.43502 28.9998C6.49379 29.0085 6.54797 29.0366 6.58902 29.0795C6.63007 29.1224 6.65564 29.1778 6.66168 29.2369C6.66772 29.296 6.6539 29.3555 6.6224 29.4058L6.432 29.7034C6.48761 29.7101 6.53971 29.7341 6.58088 29.772C6.62206 29.81 6.6502 29.86 6.66131 29.9149C6.67242 29.9698 6.66593 30.0268 6.64276 30.0778C6.61959 30.1288 6.58092 30.1712 6.53226 30.1989L5.8128 30.6138C5.76106 30.643 5.70107 30.6542 5.6423 30.6455C5.58354 30.6368 5.52935 30.6087 5.4883 30.5658C5.44725 30.5228 5.42169 30.4674 5.41564 30.4083C5.4096 30.3492 5.42342 30.2898 5.45493 30.2394L5.58186 30.041L4.58933 30.6138C4.53434 30.6461 4.46959 30.6576 4.40686 30.6461C4.34413 30.6347 4.28759 30.6011 4.24754 30.5515C4.20749 30.5019 4.18658 30.4395 4.18862 30.3758C4.19066 30.3121 4.21552 30.2512 4.25866 30.2042L5.05386 29.3269L2.824 30.6138C2.78357 30.6375 2.73751 30.6498 2.69066 30.6496L2.69173 30.6506Z" fill="#DDAD33"/>
<path d="M3.24106 20.5173C3.18644 20.5172 3.13315 20.5004 3.08841 20.4691C3.04366 20.4377 3.00962 20.3934 2.99089 20.3421C2.97216 20.2908 2.96963 20.2349 2.98366 20.1821C2.99769 20.1294 3.02759 20.0821 3.06933 20.0469L3.92959 19.32L1.91786 20.4816C1.86011 20.5147 1.79206 20.525 1.72709 20.5104C1.66213 20.4959 1.60494 20.4576 1.56678 20.4031C1.52861 20.3485 1.51222 20.2817 1.52084 20.2157C1.52945 20.1497 1.56244 20.0893 1.61333 20.0464L3.70506 18.2928L0.826128 19.9546C0.76855 19.9879 0.700625 19.9984 0.635674 19.9842C0.570724 19.97 0.513433 19.932 0.475039 19.8777C0.436644 19.8234 0.419916 19.7567 0.428134 19.6908C0.436352 19.6248 0.468924 19.5642 0.519461 19.521L2.04533 18.216L0.683195 19.0021C0.625868 19.0349 0.558412 19.0452 0.493889 19.0312C0.429365 19.0171 0.372366 18.9795 0.333928 18.9258C0.295491 18.8721 0.278351 18.8061 0.285826 18.7404C0.293302 18.6748 0.324862 18.6143 0.374395 18.5706L0.873061 18.1338L0.683728 18.2432C0.631057 18.2736 0.569576 18.2851 0.509482 18.2757C0.449387 18.2664 0.394289 18.2368 0.353324 18.1918C0.31236 18.1469 0.28799 18.0893 0.284256 18.0286C0.280522 17.9679 0.297648 17.9077 0.332795 17.8581L0.709328 17.3269C0.634661 17.3253 0.522128 17.2816 0.471995 17.1936C0.454344 17.1633 0.442865 17.1298 0.438219 17.095C0.433573 17.0603 0.435852 17.025 0.444925 16.9911C0.453998 16.9572 0.469686 16.9255 0.491083 16.8977C0.51248 16.87 0.539164 16.8467 0.569595 16.8293L1.45279 16.3194C1.50547 16.289 1.56695 16.2775 1.62704 16.2869C1.68714 16.2962 1.74223 16.3258 1.7832 16.3708C1.82416 16.4157 1.84853 16.4733 1.85227 16.534C1.856 16.5947 1.83887 16.6549 1.80373 16.7045L1.47253 17.1722L2.95999 16.3136C3.01732 16.2808 3.08478 16.2704 3.1493 16.2845C3.21382 16.2986 3.27082 16.3361 3.30926 16.3898C3.3477 16.4435 3.36484 16.5096 3.35736 16.5752C3.34989 16.6408 3.31833 16.7013 3.2688 16.745L2.76959 17.1824L4.28159 16.3093C4.33917 16.276 4.4071 16.2655 4.47205 16.2797C4.537 16.294 4.59429 16.3319 4.63268 16.3862C4.67108 16.4405 4.68781 16.5072 4.67959 16.5732C4.67137 16.6392 4.6388 16.6997 4.58826 16.7429L3.06239 18.0485L6.08533 16.3034C6.14308 16.2703 6.21113 16.26 6.2761 16.2745C6.34106 16.2891 6.39825 16.3274 6.43641 16.3819C6.47458 16.4364 6.49097 16.5033 6.48235 16.5693C6.47374 16.6353 6.44075 16.6957 6.38986 16.7386L4.29706 18.4928L6.25599 17.3626C6.31369 17.3297 6.38161 17.3194 6.44645 17.3339C6.5113 17.3484 6.5684 17.3866 6.60657 17.441C6.64474 17.4954 6.66123 17.562 6.65281 17.6279C6.6444 17.6939 6.61168 17.7543 6.56106 17.7973L5.69973 18.5248L6.25973 18.2021C6.31659 18.169 6.38367 18.1582 6.44807 18.1715C6.51247 18.1849 6.56965 18.2217 6.60861 18.2746C6.64758 18.3276 6.66559 18.3932 6.65917 18.4586C6.65276 18.5241 6.62237 18.5849 6.57386 18.6293L6.33226 18.8517C6.38184 18.8393 6.43393 18.8415 6.48232 18.8579C6.53071 18.8743 6.57338 18.9042 6.60524 18.9442C6.63709 18.9841 6.6568 19.0324 6.66202 19.0832C6.66724 19.1341 6.65774 19.1853 6.63466 19.2309L6.42239 19.6522C6.47936 19.6563 6.53349 19.6787 6.57675 19.716C6.62001 19.7533 6.6501 19.8035 6.66255 19.8592C6.675 19.915 6.66916 19.9732 6.64588 20.0254C6.6226 20.0776 6.58313 20.1208 6.53333 20.1488L5.95466 20.4826C5.905 20.5123 5.84701 20.525 5.78949 20.5187C5.73198 20.5124 5.67808 20.4875 5.63601 20.4478C5.59394 20.4081 5.56599 20.3557 5.5564 20.2987C5.54682 20.2416 5.55614 20.183 5.58293 20.1317L5.75626 19.7882L4.55253 20.4826C4.49576 20.5158 4.42867 20.5267 4.36431 20.5132C4.29995 20.4997 4.2429 20.4628 4.20426 20.4096C4.16559 20.3566 4.14771 20.2913 4.154 20.226C4.16029 20.1607 4.19032 20.1 4.23839 20.0554L4.44533 19.8656L3.37546 20.4826C3.33501 20.5063 3.28897 20.5186 3.24213 20.5184L3.24106 20.5173Z" fill="#EABB3B"/>
<path d="M26.0933 30.665C26.0368 30.6653 25.9816 30.6475 25.9358 30.6143C25.89 30.5811 25.856 30.5341 25.8387 30.4803C25.8214 30.4264 25.8217 30.3685 25.8396 30.3148C25.8575 30.2611 25.892 30.2146 25.9381 30.1818L26.3195 29.9082L25.7499 30.2373C25.6917 30.2702 25.6234 30.28 25.5584 30.265C25.4933 30.2499 25.4363 30.211 25.3986 30.1559C25.3609 30.1008 25.3452 30.0336 25.3546 29.9675C25.3641 29.9014 25.398 29.8412 25.4496 29.7989L28.0416 27.7168L25.7499 29.0394C25.6916 29.0721 25.6233 29.0817 25.5583 29.0663C25.4934 29.051 25.4365 29.0119 25.399 28.9567C25.3615 28.9015 25.346 28.8342 25.3557 28.7682C25.3654 28.7021 25.3994 28.6421 25.4512 28.6L27.9067 26.6538L25.7499 27.8986C25.6906 27.9321 25.6209 27.9417 25.5548 27.9254C25.4887 27.9091 25.4314 27.8682 25.3946 27.811C25.3577 27.7538 25.3441 27.6847 25.3565 27.6178C25.3689 27.5509 25.4064 27.4913 25.4613 27.4512L26.3051 26.8474L25.7499 27.168C25.691 27.2019 25.6214 27.2121 25.5553 27.1965C25.4892 27.1809 25.4315 27.1406 25.394 27.0839C25.3566 27.0272 25.3422 26.9584 25.3538 26.8914C25.3654 26.8245 25.4022 26.7645 25.4565 26.7237L27.1968 25.4192L25.7499 26.2544C25.6906 26.2882 25.6205 26.298 25.5542 26.2817C25.4879 26.2655 25.4303 26.2244 25.3934 26.1669C25.3565 26.1095 25.343 26.0401 25.3557 25.973C25.3685 25.9059 25.4065 25.8463 25.4619 25.8064L26.2075 25.2752L25.7499 25.5392C25.6905 25.5774 25.6184 25.5906 25.5494 25.5756C25.4804 25.5607 25.4201 25.519 25.3819 25.4597C25.3436 25.4004 25.3305 25.3283 25.3454 25.2592C25.3603 25.1902 25.402 25.13 25.4613 25.0917L26.3211 24.4762L25.7499 24.8058C25.6906 24.8402 25.6204 24.8504 25.5538 24.8344C25.4872 24.8184 25.4293 24.7774 25.3921 24.7198C25.3549 24.6623 25.3413 24.5927 25.3541 24.5254C25.3669 24.4581 25.4051 24.3983 25.4608 24.3584L26.4288 23.6624L25.7499 24.0538C25.691 24.0873 25.6215 24.0971 25.5557 24.0813C25.4898 24.0654 25.4324 24.0251 25.3952 23.9684C25.358 23.9118 25.3437 23.8432 25.3553 23.7764C25.3669 23.7096 25.4035 23.6498 25.4576 23.609L27.0576 22.4202L25.7499 23.1749C25.6922 23.2079 25.6243 23.2181 25.5594 23.2036C25.4946 23.1891 25.4375 23.1509 25.3993 23.0966C25.3611 23.0422 25.3446 22.9755 25.353 22.9096C25.3615 22.8437 25.3942 22.7833 25.4448 22.7402L26.9499 21.4704L25.7499 22.1632C25.6938 22.1951 25.628 22.2056 25.5647 22.1927C25.5015 22.1799 25.445 22.1445 25.4059 22.0931C25.3668 22.0418 25.3476 21.978 25.3519 21.9136C25.3562 21.8492 25.3837 21.7886 25.4293 21.7429L26.1723 21.009L25.7504 21.2522C25.7058 21.2779 25.6548 21.2901 25.6035 21.2874C25.5521 21.2847 25.5026 21.2673 25.461 21.2371C25.4193 21.207 25.3873 21.1654 25.3687 21.1175C25.3501 21.0695 25.3458 21.0172 25.3563 20.9669L25.5269 20.1541C25.4787 20.1373 25.4363 20.1069 25.4049 20.0666C25.3734 20.0264 25.3543 19.9779 25.3497 19.927C25.3452 19.8761 25.3554 19.825 25.3792 19.7797C25.4029 19.7345 25.4392 19.6971 25.4837 19.672L25.7515 19.5173C25.796 19.4916 25.8471 19.4794 25.8984 19.4821C25.9498 19.4848 25.9992 19.5023 26.0409 19.5324C26.0825 19.5626 26.1146 19.6041 26.1332 19.6521C26.1517 19.7 26.1561 19.7523 26.1456 19.8026L26.0011 20.4922L27.7003 19.5114C27.7564 19.4795 27.8221 19.469 27.8854 19.4819C27.9487 19.4947 28.0051 19.5301 28.0442 19.5815C28.0834 19.6328 28.1026 19.6966 28.0983 19.761C28.094 19.8254 28.0664 19.886 28.0208 19.9317L27.2789 20.665L29.2853 19.5066C29.343 19.4737 29.4109 19.4634 29.4758 19.4779C29.5406 19.4924 29.5977 19.5306 29.6359 19.585C29.6741 19.6394 29.6906 19.706 29.6822 19.7719C29.6737 19.8379 29.641 19.8983 29.5904 19.9413L28.0864 21.2101L30.7851 19.6522C30.844 19.6187 30.9134 19.6089 30.9793 19.6248C31.0452 19.6407 31.1025 19.681 31.1397 19.7376C31.1769 19.7942 31.1912 19.8629 31.1796 19.9297C31.168 19.9964 31.1314 20.0563 31.0773 20.097L29.4773 21.2858L30.7851 20.5312C30.8442 20.4993 30.9132 20.4909 30.9783 20.5076C31.0434 20.5243 31.0998 20.565 31.1362 20.6214C31.1727 20.6779 31.1866 20.746 31.175 20.8122C31.1635 20.8784 31.1275 20.9378 31.0741 20.9786L30.1061 21.6746L30.7851 21.2832C30.8144 21.2642 30.8473 21.2512 30.8817 21.245C30.9161 21.2387 30.9514 21.2393 30.9855 21.2467C31.0197 21.2541 31.0521 21.2681 31.0808 21.288C31.1096 21.3079 31.1341 21.3333 31.1531 21.3626C31.172 21.392 31.185 21.4248 31.1912 21.4592C31.1975 21.4936 31.1969 21.5289 31.1895 21.5631C31.1822 21.5973 31.1681 21.6296 31.1482 21.6584C31.1283 21.6871 31.103 21.7117 31.0736 21.7306L30.2139 22.3461L30.7851 22.0165C30.8444 21.9827 30.9144 21.9729 30.9807 21.9891C31.047 22.0054 31.1046 22.0465 31.1415 22.1039C31.1784 22.1614 31.1919 22.2308 31.1792 22.2979C31.1665 22.3649 31.1285 22.4246 31.0731 22.4645L30.3275 22.9957L30.7851 22.7317C30.8439 22.6977 30.9135 22.6875 30.9797 22.7031C31.0458 22.7188 31.1035 22.759 31.1409 22.8157C31.1783 22.8724 31.1927 22.9413 31.1811 23.0082C31.1695 23.0752 31.1328 23.1352 31.0784 23.176L29.3381 24.4805L30.7851 23.6453C30.8442 23.6107 30.9145 23.6004 30.9811 23.6165C31.0478 23.6326 31.1056 23.6739 31.1424 23.7317C31.1796 23.7892 31.1932 23.8588 31.1803 23.926C31.1675 23.9933 31.1293 24.053 31.0736 24.0928L30.2261 24.6992L30.7851 24.377C30.8433 24.3444 30.9116 24.3348 30.9766 24.3501C31.0416 24.3655 31.0984 24.4046 31.136 24.4598C31.1735 24.515 31.1889 24.5823 31.1793 24.6483C31.1696 24.7143 31.1355 24.7744 31.0837 24.8165L28.6283 26.7626L30.7851 25.5178C30.8432 25.4828 30.9126 25.4713 30.979 25.4857C31.0453 25.5001 31.1037 25.5393 31.142 25.5954C31.1804 25.6514 31.1959 25.72 31.1854 25.7871C31.1748 25.8542 31.139 25.9147 31.0853 25.9562L28.4949 28.0373L30.7851 26.7152C30.8444 26.6769 30.9165 26.6638 30.9855 26.6787C31.0545 26.6936 31.1148 26.7353 31.1531 26.7946C31.1913 26.854 31.2045 26.9261 31.1895 26.9951C31.1746 27.0641 31.1329 27.1244 31.0736 27.1626L30.6917 27.4362L30.7851 27.3824C30.8413 27.3503 30.9073 27.3398 30.9708 27.3529C31.0342 27.3659 31.0907 27.4016 31.1298 27.4533C31.1688 27.5049 31.1877 27.569 31.183 27.6336C31.1782 27.6982 31.1502 27.7588 31.104 27.8042L29.7819 29.0906L30.7851 28.512C30.8385 28.4811 30.9009 28.4697 30.9618 28.4798C31.0226 28.4898 31.0781 28.5206 31.1188 28.567C31.1595 28.6133 31.1829 28.6723 31.1849 28.734C31.187 28.7956 31.1676 28.8561 31.1301 28.905L30.6853 29.4874L30.7163 29.4698C30.7466 29.4522 30.78 29.4407 30.8148 29.4361C30.8495 29.4314 30.8849 29.4337 30.9187 29.4428C30.9526 29.4518 30.9843 29.4675 31.0121 29.4889C31.0399 29.5103 31.0631 29.537 31.0805 29.5674C31.0982 29.5977 31.1097 29.6312 31.1143 29.666C31.119 29.7007 31.1167 29.736 31.1076 29.7699C31.0985 29.8038 31.0828 29.8355 31.0614 29.8633C31.04 29.891 31.0134 29.9143 30.9829 29.9317L29.7968 30.6165C29.7434 30.6473 29.6809 30.6587 29.6201 30.6487C29.5592 30.6387 29.5037 30.6078 29.463 30.5615C29.4224 30.5152 29.399 30.4561 29.3969 30.3945C29.3949 30.3328 29.4142 30.2724 29.4517 30.2234L29.8971 29.6405L28.1968 30.6218C28.1405 30.6566 28.0733 30.6691 28.0083 30.6569C27.9433 30.6448 27.8852 30.6088 27.8453 30.556C27.8055 30.5033 27.7867 30.4376 27.7927 30.3717C27.7987 30.3059 27.8291 30.2446 27.8779 30.2L29.2 28.9141L26.2283 30.6298C26.1878 30.6535 26.1418 30.6658 26.0949 30.6656L26.0933 30.665Z" fill="#DDAD33"/>
<path d="M25.6309 20.5333C25.5753 20.5336 25.521 20.5165 25.4757 20.4844C25.4303 20.4523 25.3961 20.4067 25.3779 20.3542C25.3598 20.3017 25.3585 20.2448 25.3743 20.1915C25.3901 20.1382 25.4222 20.0912 25.4661 20.057L27.2619 18.6448L25.7493 19.5178C25.6926 19.551 25.6255 19.5619 25.5611 19.5484C25.4967 19.5349 25.4397 19.498 25.4011 19.4448C25.3624 19.3918 25.3445 19.3265 25.3508 19.2612C25.3571 19.1959 25.3871 19.1352 25.4352 19.0906L26.6368 17.985L25.7493 18.497C25.6941 18.5287 25.6294 18.5396 25.5668 18.5277C25.5043 18.5158 25.448 18.482 25.4083 18.4322C25.3686 18.3825 25.3479 18.3202 25.3501 18.2566C25.3523 18.1929 25.3772 18.1322 25.4203 18.0853L25.8085 17.6677L25.7493 17.7013C25.7033 17.728 25.6504 17.7402 25.5973 17.7365C25.5442 17.7329 25.4935 17.7134 25.4516 17.6807C25.4097 17.6479 25.3785 17.6034 25.3621 17.5528C25.3457 17.5022 25.3448 17.4479 25.3595 17.3968L25.4917 16.9402C25.4495 16.918 25.414 16.8848 25.3889 16.8441C25.3638 16.8034 25.3501 16.7568 25.3492 16.709C25.3483 16.6613 25.3601 16.6142 25.3836 16.5726C25.4071 16.5309 25.4413 16.4964 25.4827 16.4725L25.7493 16.3189C25.7954 16.2919 25.8485 16.2793 25.9017 16.2829C25.955 16.2865 26.006 16.306 26.048 16.3389C26.09 16.3718 26.1212 16.4165 26.1375 16.4674C26.1537 16.5182 26.1543 16.5728 26.1392 16.624L26.0571 16.9088L27.0779 16.3194C27.1331 16.2878 27.1978 16.2769 27.2604 16.2888C27.3229 16.3006 27.3791 16.3345 27.4189 16.3842C27.4586 16.434 27.4793 16.4963 27.4771 16.5599C27.4749 16.6235 27.45 16.6843 27.4069 16.7312L27.0181 17.1493L28.4571 16.3189C28.5139 16.2858 28.581 16.275 28.6454 16.2883C28.7098 16.3017 28.767 16.3385 28.8059 16.3915C28.8449 16.4444 28.8629 16.51 28.8565 16.5754C28.8501 16.6409 28.8197 16.7017 28.7712 16.7461L27.5696 17.8517L30.2251 16.3189C30.2834 16.2838 30.353 16.2724 30.4195 16.2871C30.486 16.3017 30.5444 16.3413 30.5826 16.3977C30.6208 16.454 30.6359 16.5229 30.6249 16.5901C30.6138 16.6573 30.5774 16.7177 30.5232 16.7589L28.7285 18.1706L31.1355 16.7813C31.1938 16.7462 31.2634 16.7348 31.3299 16.7495C31.3964 16.7641 31.4548 16.8037 31.493 16.8601C31.5312 16.9164 31.5463 16.9853 31.5353 17.0525C31.5242 17.1197 31.4878 17.1801 31.4336 17.2213L30.2229 18.1754L31.3179 17.5429C31.375 17.51 31.4422 17.4994 31.5067 17.5131C31.5711 17.5269 31.6282 17.564 31.6669 17.6173C31.7056 17.6707 31.7232 17.7365 31.7162 17.802C31.7093 17.8675 31.6783 17.9282 31.6293 17.9722L30.76 18.7546L31.3179 18.4325C31.3698 18.4025 31.4303 18.3909 31.4896 18.3995C31.5489 18.4081 31.6036 18.4365 31.6448 18.48C31.6861 18.5235 31.7114 18.5796 31.7169 18.6393C31.7223 18.699 31.7074 18.7588 31.6747 18.809L31.2368 19.48C31.299 19.4653 31.3645 19.4734 31.4212 19.503C31.4779 19.5325 31.5222 19.5814 31.5458 19.6408C31.5695 19.7002 31.571 19.7662 31.5501 19.8266C31.5292 19.8871 31.4873 19.938 31.432 19.9701L30.5499 20.48C30.498 20.51 30.4375 20.5216 30.3781 20.513C30.3188 20.5044 30.2641 20.476 30.2229 20.4325C30.1816 20.389 30.1563 20.3328 30.1509 20.2731C30.1455 20.2134 30.1603 20.1537 30.1931 20.1034L30.6181 19.4522L28.8267 20.4864C28.7697 20.5195 28.7024 20.5302 28.638 20.5165C28.5735 20.5028 28.5164 20.4657 28.4779 20.4122C28.4392 20.3589 28.4216 20.2931 28.4285 20.2275C28.4354 20.1619 28.4662 20.1012 28.5152 20.057L29.3851 19.2741L27.2768 20.4912C27.2185 20.5246 27.1497 20.5347 27.0842 20.5196C27.0187 20.5045 26.9613 20.4652 26.9236 20.4096C26.8858 20.3539 26.8705 20.2861 26.8806 20.2197C26.8907 20.1532 26.9255 20.093 26.9781 20.0512L28.1899 19.097L25.7648 20.4965C25.7243 20.5201 25.6783 20.5325 25.6315 20.5322L25.6309 20.5333Z" fill="#EABB3B"/>
<path d="M10.5504 31.7173C10.4922 31.7177 10.4355 31.699 10.389 31.664C10.3424 31.6291 10.3086 31.5799 10.2927 31.524C10.2768 31.468 10.2797 31.4084 10.3009 31.3542C10.3221 31.3 10.3605 31.2543 10.4101 31.224L11.6208 30.4752L9.53066 31.6816C9.46998 31.7179 9.39734 31.7287 9.32873 31.7115C9.26011 31.6943 9.20115 31.6505 9.16479 31.5898C9.12844 31.5292 9.11768 31.4565 9.13489 31.3879C9.15209 31.3193 9.19585 31.2603 9.25653 31.224L12.1088 29.456L8.25333 31.6816C8.19303 31.7168 8.12127 31.7269 8.05359 31.7096C7.98591 31.6924 7.92776 31.6491 7.89173 31.5893C7.85569 31.5296 7.84439 31.4581 7.86023 31.3902C7.87607 31.3223 7.91779 31.2632 7.97653 31.2256L16.3717 25.8688L6.49333 31.5717C6.43306 31.6031 6.3631 31.6104 6.29767 31.592C6.23224 31.5736 6.17627 31.531 6.14114 31.4729C6.10601 31.4147 6.09436 31.3453 6.10856 31.2789C6.12276 31.2124 6.16175 31.1539 6.21759 31.1152L15.1947 25.4432L5.71306 30.9178C5.65224 30.9539 5.57958 30.9643 5.51106 30.9468C5.44255 30.9293 5.3838 30.8853 5.34773 30.8245C5.31166 30.7637 5.30123 30.691 5.31873 30.6225C5.33623 30.554 5.38024 30.4952 5.44106 30.4592L6.79733 29.6336L5.51039 30.3765C5.44964 30.4111 5.37772 30.4205 5.31012 30.4026C5.24253 30.3847 5.18467 30.341 5.149 30.2808C5.11333 30.2207 5.10271 30.1489 5.11944 30.081C5.13616 30.0131 5.17888 29.9545 5.23839 29.9178L7.12906 28.7658L5.48266 29.7162C5.42198 29.7527 5.34931 29.7635 5.28065 29.7463C5.21199 29.7292 5.15295 29.6854 5.11653 29.6248C5.0801 29.5641 5.06928 29.4914 5.08643 29.4228C5.10358 29.3541 5.14731 29.2951 5.20799 29.2586L13.0944 24.3434L5.48266 28.7381C5.42177 28.7741 5.34907 28.7844 5.28055 28.7668C5.21204 28.7492 5.15333 28.7051 5.11733 28.6442C5.08133 28.5833 5.07099 28.5106 5.0886 28.4421C5.1062 28.3736 5.1503 28.3149 5.21119 28.2789L5.44266 28.1386C5.3805 28.1625 5.31166 28.1623 5.24968 28.1379C5.18769 28.1136 5.13704 28.067 5.1077 28.0072C5.07835 27.9475 5.07242 27.8789 5.09108 27.815C5.10974 27.751 5.15163 27.6964 5.20853 27.6618L12.0213 23.4389L5.48213 27.2138C5.4213 27.25 5.34862 27.2605 5.28005 27.243C5.21149 27.2256 5.15267 27.1816 5.11653 27.1208C5.08039 27.0599 5.06989 26.9873 5.08734 26.9187C5.1048 26.8501 5.14877 26.7913 5.20959 26.7552L7.44586 25.3914L5.48159 26.5253C5.42101 26.5594 5.3495 26.5685 5.28229 26.5507C5.21509 26.5329 5.15751 26.4895 5.12183 26.4298C5.08615 26.3701 5.07519 26.2989 5.09128 26.2312C5.10738 26.1636 5.14926 26.1049 5.20799 26.0677L11.5936 22.1157L5.48159 25.6442C5.42084 25.6805 5.34816 25.6912 5.27955 25.6739C5.21094 25.6566 5.15201 25.6127 5.11573 25.552C5.07945 25.4912 5.06878 25.4185 5.08609 25.3499C5.10339 25.2813 5.14724 25.2224 5.20799 25.1861L10.6181 21.8501L5.48159 24.816C5.4207 24.852 5.34797 24.8624 5.27941 24.8449C5.21084 24.8273 5.15206 24.7833 5.11599 24.7224C5.07992 24.6615 5.06952 24.5887 5.08708 24.5202C5.10463 24.4516 5.1487 24.3928 5.20959 24.3568L5.57066 24.1381L5.48159 24.1893C5.42123 24.2211 5.35101 24.2286 5.2853 24.2102C5.2196 24.1919 5.16339 24.1491 5.12821 24.0907C5.09302 24.0323 5.08152 23.9626 5.09605 23.8959C5.11059 23.8293 5.15007 23.7707 5.20639 23.7322L13.1893 18.7365L5.48159 23.1866C5.35466 23.2602 5.19359 23.2181 5.11893 23.0928C5.04426 22.9674 5.08426 22.8053 5.20799 22.7285L10.384 19.5312L5.48159 22.3616C5.42084 22.3978 5.34819 22.4084 5.27963 22.391C5.21107 22.3737 5.1522 22.3298 5.11599 22.269C5.07978 22.2083 5.06919 22.1356 5.08654 22.0671C5.1039 21.9985 5.14777 21.9396 5.20853 21.9034L8.89973 19.6341L5.48159 21.6069C5.42105 21.6435 5.34847 21.6545 5.2798 21.6375C5.21114 21.6206 5.15202 21.577 5.11546 21.5165C5.0789 21.456 5.06788 21.3834 5.08483 21.3147C5.10178 21.246 5.14532 21.1869 5.20586 21.1504L13.2149 16.1024L5.48159 20.5669C5.42077 20.603 5.34808 20.6135 5.27952 20.5961C5.21096 20.5786 5.15213 20.5347 5.11599 20.4738C5.07985 20.413 5.06935 20.3403 5.08681 20.2718C5.10426 20.2032 5.14824 20.1444 5.20906 20.1082L5.66773 19.8288L5.48106 19.936C5.42051 19.9709 5.34868 19.9806 5.28102 19.9631C5.21336 19.9456 5.15528 19.9022 5.11928 19.8423C5.08328 19.7824 5.07224 19.7108 5.08853 19.6428C5.10482 19.5748 5.14715 19.516 5.20639 19.4789L10.9381 15.8997L5.48106 19.0501C5.42066 19.0869 5.34813 19.0982 5.27941 19.0814C5.2107 19.0647 5.15144 19.0214 5.11466 18.961C5.07788 18.9006 5.06661 18.8281 5.08331 18.7594C5.10001 18.6907 5.14333 18.6314 5.20373 18.5946L13.4923 13.289L5.48106 17.9141C5.42073 17.951 5.34821 17.9625 5.27945 17.9459C5.21068 17.9294 5.15131 17.8862 5.11439 17.8258C5.07748 17.7655 5.06603 17.693 5.08259 17.6242C5.09914 17.5555 5.14233 17.4961 5.20266 17.4592L13.4208 12.1536L5.48053 16.7376C5.41999 16.7741 5.3474 16.7851 5.27874 16.7682C5.21007 16.7512 5.15096 16.7077 5.11439 16.6472C5.07783 16.5866 5.06681 16.514 5.08376 16.4454C5.10072 16.3767 5.14425 16.3176 5.20479 16.281L10.1675 13.1514L5.48053 15.857C5.41998 15.8919 5.34815 15.9017 5.28049 15.8842C5.21283 15.8667 5.15475 15.8233 5.11875 15.7634C5.08275 15.7035 5.07171 15.6318 5.088 15.5639C5.10429 15.4959 5.14661 15.437 5.20586 15.4L8.06773 13.6112L5.47999 15.105C5.41981 15.1422 5.34734 15.1539 5.27852 15.1376C5.20971 15.1213 5.15019 15.0783 5.11306 15.0181C5.07593 14.9579 5.06423 14.8854 5.08053 14.8166C5.09684 14.7478 5.13981 14.6883 5.19999 14.6512L12.0037 10.1893L5.50613 13.9402C5.4458 13.9771 5.37328 13.9886 5.30451 13.972C5.23575 13.9555 5.17638 13.9123 5.13946 13.852C5.10254 13.7916 5.0911 13.7191 5.10765 13.6504C5.12421 13.5816 5.1674 13.5222 5.22773 13.4853L9.98559 10.4026L5.63253 12.9157C5.57199 12.9523 5.4994 12.9633 5.43074 12.9463C5.36207 12.9294 5.30296 12.8858 5.26639 12.8253C5.22983 12.7648 5.21881 12.6922 5.23576 12.6235C5.25272 12.5548 5.29625 12.4957 5.35679 12.4592L6.05226 12.0213L5.80106 12.1658C5.74087 12.203 5.66837 12.2148 5.59951 12.1985C5.53065 12.1823 5.47106 12.1394 5.43386 12.0792C5.39666 12.019 5.38489 11.9465 5.40114 11.8776C5.4174 11.8088 5.46034 11.7492 5.52053 11.712L8.74666 9.58877L6.15786 11.0832C6.12848 11.1021 6.09565 11.1151 6.06126 11.1213C6.02686 11.1276 5.99157 11.127 5.9574 11.1196C5.92323 11.1123 5.89085 11.0982 5.8621 11.0783C5.83335 11.0584 5.80881 11.0331 5.78986 11.0037C5.77091 10.9743 5.75794 10.9415 5.75168 10.9071C5.74542 10.8727 5.746 10.8374 5.75338 10.8032C5.76076 10.7691 5.77479 10.7367 5.79469 10.7079C5.81458 10.6792 5.83995 10.6546 5.86933 10.6357L9.87359 7.7653L7.02079 9.41223C6.96268 9.4451 6.89434 9.45497 6.8293 9.43989C6.76426 9.42482 6.70724 9.38589 6.66951 9.3308C6.63178 9.27572 6.61609 9.20848 6.62553 9.14239C6.63498 9.07629 6.66888 9.01614 6.72053 8.97383L8.86293 7.25276C8.81516 7.25249 8.76824 7.24012 8.72655 7.21681C8.68486 7.19349 8.64976 7.15999 8.62453 7.11943C8.60688 7.08914 8.5954 7.05566 8.59075 7.02091C8.5861 6.98616 8.58838 6.95083 8.59746 6.91697C8.60653 6.88311 8.62222 6.85137 8.64362 6.8236C8.66501 6.79583 8.6917 6.77257 8.72213 6.75517L11.4421 5.18503C11.5003 5.14997 11.5697 5.13847 11.636 5.15289C11.7024 5.1673 11.7607 5.20654 11.7991 5.26257C11.8375 5.3186 11.853 5.38718 11.8424 5.45426C11.8319 5.52135 11.7961 5.58187 11.7424 5.62343L9.76319 7.2133L14.3029 4.5925C14.3623 4.55424 14.4344 4.54111 14.5034 4.55602C14.5724 4.57092 14.6327 4.61263 14.6709 4.67197C14.7092 4.7313 14.7223 4.80341 14.7074 4.87242C14.6925 4.94144 14.6508 5.0017 14.5915 5.03996L10.5867 7.9109L16.3584 4.57863C16.4184 4.54371 16.4898 4.53364 16.5571 4.55058C16.6245 4.56752 16.6825 4.61013 16.7189 4.6693C16.7552 4.72841 16.7672 4.7993 16.7523 4.86706C16.7374 4.93481 16.6967 4.99412 16.6389 5.0325L13.4133 7.15517L17.8021 4.62183C17.8627 4.58527 17.9353 4.57425 18.0039 4.5912C18.0726 4.60816 18.1317 4.65169 18.1683 4.71223C18.2048 4.77277 18.2158 4.84536 18.1989 4.91402C18.1819 4.98268 18.1384 5.0418 18.0779 5.07837L17.392 5.5109L18.7141 4.74716C18.7745 4.71025 18.847 4.69881 18.9157 4.71536C18.9845 4.73191 19.0439 4.7751 19.0808 4.83543C19.1177 4.89576 19.1292 4.96828 19.1126 5.03705C19.096 5.10581 19.0529 5.16518 18.9925 5.2021L14.2309 8.28743L19.8587 5.03836C19.9188 5.00234 19.9907 4.99146 20.0589 5.00807C20.127 5.02469 20.1858 5.06746 20.2226 5.12713C20.2594 5.18681 20.2713 5.25858 20.2555 5.32691C20.2398 5.39524 20.1978 5.45463 20.1387 5.49223L13.3365 9.95303L21.0405 5.50503C21.1011 5.47012 21.1729 5.46037 21.2406 5.47789C21.3082 5.49541 21.3663 5.53878 21.4023 5.59869C21.4383 5.6586 21.4493 5.73024 21.4331 5.79821C21.4168 5.86617 21.3744 5.92502 21.3152 5.9621L18.4571 7.74877L21.7216 5.86396C21.7821 5.8274 21.8547 5.81638 21.9234 5.83334C21.992 5.85029 22.0512 5.89383 22.0877 5.95437C22.1243 6.01491 22.1353 6.08749 22.1184 6.15615C22.1014 6.22482 22.0579 6.28393 21.9973 6.3205L17.0277 9.4549L22.4464 6.3269C22.5067 6.28998 22.5792 6.27854 22.648 6.29509C22.7168 6.31165 22.7761 6.35484 22.8131 6.41516C22.85 6.47549 22.8614 6.54802 22.8449 6.61678C22.8283 6.68554 22.7851 6.74491 22.7248 6.78183L14.5067 12.0874L23.3056 7.00797C23.3659 6.9726 23.4378 6.96236 23.5056 6.97945C23.5734 6.99655 23.6318 7.03961 23.6682 7.09935C23.7046 7.15909 23.716 7.23073 23.7001 7.29884C23.6841 7.36694 23.642 7.42605 23.5829 7.46343L15.2939 12.7696L24.0277 7.72743C24.0883 7.69101 24.1609 7.68015 24.2295 7.69726C24.2982 7.71436 24.3572 7.75802 24.3936 7.81863C24.43 7.87924 24.4409 7.95184 24.4238 8.02045C24.4067 8.08907 24.363 8.14808 24.3024 8.1845L18.5787 11.7589L24.5296 8.32317C24.5904 8.28702 24.6631 8.27653 24.7317 8.29398C24.8002 8.31143 24.8591 8.35541 24.8952 8.41623C24.9313 8.47706 24.9418 8.54974 24.9244 8.61831C24.9069 8.68687 24.863 8.74569 24.8021 8.78183L24.3371 9.06503L24.8523 8.76797C24.9128 8.7314 24.9854 8.72038 25.054 8.73734C25.1227 8.75429 25.1818 8.79783 25.2184 8.85837C25.255 8.91891 25.266 8.99149 25.249 9.06015C25.2321 9.12882 25.1885 9.18793 25.128 9.2245L17.1179 14.273L25.3216 9.53703C25.3823 9.50082 25.455 9.49023 25.5236 9.50758C25.5921 9.52493 25.651 9.56881 25.6872 9.62957C25.7234 9.69032 25.734 9.76297 25.7166 9.83153C25.6993 9.90009 25.6554 9.95895 25.5947 9.99516L21.9093 12.2613L25.6181 10.12C25.6787 10.0845 25.7509 10.0745 25.8188 10.0921C25.8868 10.1097 25.945 10.1534 25.9808 10.2138C26.0166 10.2741 26.0273 10.346 26.0107 10.4142C25.994 10.4823 25.9513 10.5411 25.8917 10.5781L20.7184 13.7744L25.8997 10.7829C25.9603 10.7464 26.033 10.7355 26.1016 10.7525C26.1703 10.7696 26.2294 10.8132 26.2659 10.8738C26.3024 10.9344 26.3133 11.0071 26.2962 11.0757C26.2792 11.1444 26.2355 11.2035 26.1749 11.24L18.1936 16.2346L26.1739 11.6272C26.2345 11.5953 26.3051 11.5879 26.371 11.6066C26.4369 11.6253 26.4932 11.6685 26.5281 11.7275C26.563 11.7865 26.574 11.8566 26.5586 11.9234C26.5433 11.9901 26.503 12.0485 26.4459 12.0864L26.0805 12.3077L26.3067 12.1776C26.3672 12.1458 26.4376 12.1383 26.5034 12.1568C26.5692 12.1754 26.6254 12.2184 26.6604 12.2771C26.6955 12.3357 26.7067 12.4056 26.6918 12.4723C26.6769 12.5391 26.637 12.5975 26.5803 12.6357L21.1589 15.9786L26.4363 12.9322C26.4968 12.8981 26.5684 12.889 26.6356 12.9068C26.7028 12.9247 26.7603 12.968 26.796 13.0277C26.8317 13.0874 26.8427 13.1587 26.8266 13.2263C26.8105 13.2939 26.7686 13.3526 26.7099 13.3898L20.3301 17.3381L26.5061 13.7722C26.567 13.7361 26.6396 13.7256 26.7082 13.743C26.7421 13.7517 26.7741 13.7669 26.8021 13.7879C26.8302 13.8089 26.8538 13.8352 26.8717 13.8653C26.8896 13.8954 26.9014 13.9288 26.9064 13.9634C26.9114 13.9981 26.9096 14.0334 26.9009 14.0674C26.8923 14.1013 26.877 14.1332 26.8561 14.1613C26.8351 14.1894 26.8088 14.213 26.7787 14.2309L24.5461 15.592L26.5173 14.4538C26.5474 14.4358 26.5807 14.4239 26.6153 14.4188C26.65 14.4137 26.6853 14.4154 26.7193 14.4239C26.7532 14.4324 26.7852 14.4476 26.8133 14.4684C26.8415 14.4893 26.8652 14.5155 26.8832 14.5456C26.9012 14.5756 26.9131 14.6089 26.9182 14.6436C26.9234 14.6782 26.9216 14.7135 26.9131 14.7475C26.9046 14.7815 26.8895 14.8134 26.8686 14.8416C26.8477 14.8697 26.8215 14.8934 26.7915 14.9114L19.9787 19.1344L26.5179 15.3594C26.5788 15.3234 26.6515 15.3131 26.72 15.3307C26.7885 15.3483 26.8472 15.3924 26.8832 15.4533C26.9192 15.5142 26.9295 15.5869 26.9119 15.6554C26.8943 15.7239 26.8502 15.7826 26.7893 15.8186L26.5579 15.9589C26.6201 15.9346 26.6892 15.9345 26.7515 15.9587C26.8138 15.9829 26.8647 16.0296 26.8942 16.0895C26.9237 16.1495 26.9296 16.2183 26.9108 16.2824C26.892 16.3465 26.8498 16.4012 26.7925 16.4357L18.9061 21.3509L26.5179 16.9562C26.5786 16.9216 26.6505 16.9122 26.7181 16.9301C26.7857 16.948 26.8436 16.9918 26.8793 17.0519C26.9149 17.112 26.9255 17.1838 26.9088 17.2517C26.8921 17.3196 26.8494 17.3782 26.7899 17.4149L24.8928 18.5706L26.5179 17.6325C26.5786 17.5979 26.6505 17.5885 26.7181 17.6064C26.7857 17.6243 26.8436 17.668 26.8793 17.7282C26.9149 17.7883 26.9255 17.8601 26.9088 17.928C26.8921 17.9958 26.8494 18.0545 26.7899 18.0912L25.4432 18.9109L26.5184 18.2906C26.5789 18.2541 26.6515 18.243 26.7202 18.26C26.7888 18.277 26.848 18.3205 26.8845 18.381C26.9211 18.4416 26.9321 18.5142 26.9152 18.5828C26.8982 18.6515 26.8547 18.7106 26.7941 18.7472L17.8107 24.4229L26.5184 19.3957C26.5789 19.359 26.6514 19.3478 26.7201 19.3646C26.7889 19.3814 26.8481 19.4248 26.8848 19.4853C26.9215 19.5458 26.9327 19.6183 26.9159 19.6871C26.8991 19.7558 26.8557 19.815 26.7952 19.8517L18.3989 25.209L26.5189 20.5216C26.549 20.5036 26.5823 20.4917 26.6169 20.4865C26.6516 20.4814 26.6869 20.4831 26.7209 20.4917C26.7548 20.5002 26.7868 20.5153 26.8149 20.5362C26.8431 20.557 26.8668 20.5833 26.8848 20.6133C26.9028 20.6433 26.9147 20.6766 26.9198 20.7113C26.925 20.7459 26.9232 20.7813 26.9147 20.8152C26.9062 20.8492 26.8911 20.8812 26.8702 20.9093C26.8493 20.9374 26.8231 20.9612 26.7931 20.9792L23.9429 22.7461L26.5189 21.2592C26.5795 21.225 26.651 21.2159 26.7182 21.2338C26.7854 21.2516 26.843 21.295 26.8787 21.3547C26.9144 21.4143 26.9253 21.4856 26.9092 21.5532C26.8931 21.6209 26.8513 21.6796 26.7925 21.7168L25.5851 22.464L26.5189 21.9248C26.5791 21.8887 26.651 21.8779 26.7191 21.8945C26.7872 21.9111 26.8461 21.9539 26.8829 22.0135C26.9197 22.0732 26.9315 22.145 26.9158 22.2133C26.9001 22.2816 26.8581 22.341 26.7989 22.3786L20.5211 26.4912L26.5189 23.0288C26.5488 23.0105 26.582 22.9983 26.6167 22.9929C26.6513 22.9875 26.6866 22.989 26.7207 22.9972C26.7547 23.0055 26.7868 23.0203 26.8151 23.041C26.8434 23.0616 26.8673 23.0877 26.8856 23.1176C26.9038 23.1475 26.916 23.1807 26.9214 23.2153C26.9268 23.2499 26.9254 23.2852 26.9171 23.3193C26.9089 23.3533 26.894 23.3854 26.8734 23.4137C26.8527 23.442 26.8267 23.466 26.7968 23.4842L23.4485 25.6368L26.5195 23.864C26.5798 23.827 26.6523 23.8156 26.7211 23.8322C26.7898 23.8487 26.8492 23.8919 26.8861 23.9522C26.923 24.0126 26.9345 24.0851 26.9179 24.1538C26.9014 24.2226 26.8582 24.282 26.7979 24.3189L24.2608 25.96L26.5195 24.6565C26.5788 24.6227 26.6488 24.6129 26.7151 24.6291C26.7814 24.6454 26.839 24.6865 26.8759 24.7439C26.9128 24.8014 26.9263 24.8708 26.9136 24.9379C26.9008 25.0049 26.8629 25.0646 26.8075 25.1045L22.1845 28.3888L26.5195 25.8864C26.5788 25.8525 26.6488 25.8427 26.7151 25.859C26.7814 25.8753 26.839 25.9164 26.8759 25.9738C26.9128 26.0312 26.9263 26.1006 26.9136 26.1677C26.9008 26.2348 26.8629 26.2945 26.8075 26.3344L23.8603 28.4352L26.5195 26.8997C26.5793 26.8621 26.6516 26.8499 26.7205 26.8657C26.7893 26.8814 26.8491 26.9239 26.8867 26.9837C26.9242 27.0435 26.9365 27.1158 26.9207 27.1847C26.905 27.2536 26.8625 27.3133 26.8027 27.3509L26.432 27.6037L26.5195 27.553C26.5782 27.5196 26.6474 27.5097 26.7131 27.5254C26.7788 27.541 26.8361 27.581 26.8735 27.6372C26.9109 27.6935 26.9255 27.7619 26.9144 27.8285C26.9034 27.8951 26.8674 27.9551 26.8139 27.9962L25.3659 29.0944L26.5195 28.4288C26.5767 28.3939 26.6449 28.3819 26.7106 28.3952C26.7763 28.4085 26.8345 28.4461 26.8737 28.5004C26.9129 28.5547 26.9302 28.6219 26.922 28.6884C26.9139 28.7549 26.881 28.8159 26.8299 28.8592L25.6517 29.9029L26.5195 29.4026C26.5734 29.3723 26.6363 29.3617 26.6972 29.3725C26.7582 29.3834 26.8134 29.4151 26.8536 29.4622C26.8938 29.5093 26.9164 29.5689 26.9175 29.6308C26.9186 29.6927 26.8982 29.753 26.8597 29.8016L26.2912 30.5018C26.354 30.4795 26.4228 30.4815 26.4842 30.5074C26.5456 30.5333 26.595 30.5812 26.6229 30.6417C26.6507 30.7022 26.6548 30.771 26.6345 30.8344C26.6142 30.8979 26.5709 30.9514 26.5131 30.9845L25.3147 31.6762C25.2607 31.7073 25.1976 31.7185 25.1362 31.7079C25.0749 31.6973 25.0192 31.6655 24.9787 31.6182C24.9383 31.5708 24.9158 31.5108 24.915 31.4485C24.9142 31.3863 24.9352 31.3257 24.9744 31.2773L25.5349 30.5872L23.6352 31.6837C23.578 31.7168 23.5105 31.7275 23.4459 31.7136C23.3812 31.6998 23.324 31.6625 23.2854 31.6089C23.2467 31.5553 23.2293 31.4892 23.2366 31.4235C23.2439 31.3578 23.2753 31.2971 23.3248 31.2533L24.5029 30.209L21.9488 31.6837C21.8901 31.7171 21.8209 31.727 21.7552 31.7114C21.6895 31.6957 21.6321 31.6558 21.5948 31.5995C21.5574 31.5432 21.5427 31.4749 21.5538 31.4082C21.5649 31.3416 21.6008 31.2817 21.6544 31.2405L23.1029 30.1418L20.432 31.6837C20.3723 31.7173 20.302 31.7266 20.2356 31.7097C20.1692 31.6928 20.1118 31.651 20.0754 31.593C20.039 31.535 20.0263 31.4652 20.04 31.3981C20.0536 31.331 20.0926 31.2717 20.1488 31.2325L20.5195 30.9802L19.3008 31.6832C19.2415 31.717 19.1715 31.7268 19.1051 31.7105C19.0388 31.6943 18.9813 31.6532 18.9444 31.5957C18.9074 31.5383 18.8939 31.4689 18.9067 31.4018C18.9194 31.3347 18.9574 31.2751 19.0128 31.2352L21.9579 29.1354L17.5461 31.6826C17.4868 31.7165 17.4168 31.7263 17.3505 31.71C17.2842 31.6937 17.2266 31.6526 17.1897 31.5952C17.1528 31.5378 17.1393 31.4684 17.152 31.4013C17.1647 31.3342 17.2027 31.2745 17.2581 31.2346L21.8821 27.9498L15.416 31.6826C15.3557 31.7196 15.2831 31.731 15.2144 31.7144C15.1456 31.6979 15.0862 31.6547 15.0493 31.5944C15.0124 31.534 15.001 31.4615 15.0175 31.3928C15.0341 31.324 15.0773 31.2646 15.1376 31.2277L17.6731 29.5877L14.0437 31.6826C13.9833 31.7195 13.9108 31.7308 13.842 31.7142C13.7732 31.6975 13.7139 31.6542 13.6771 31.5938C13.6402 31.5334 13.6289 31.4609 13.6455 31.3921C13.6622 31.3233 13.7055 31.264 13.7659 31.2272L17.1131 29.0757L12.5973 31.6826C12.5372 31.7187 12.4653 31.7295 12.3971 31.7129C12.329 31.6963 12.2702 31.6535 12.2334 31.5939C12.1966 31.5342 12.1847 31.4624 12.2004 31.3941C12.2162 31.3258 12.2581 31.2664 12.3173 31.2288L18.5963 27.1146L10.6848 31.6821C10.6443 31.7056 10.5983 31.718 10.5515 31.7178L10.5504 31.7173Z" fill="#F4C940"/>
<path d="M9.66346 29.0507C9.60544 29.0507 9.54898 29.0319 9.50265 28.997C9.45632 28.962 9.42263 28.913 9.40671 28.8572C9.39079 28.8014 9.39349 28.7419 9.41442 28.6878C9.43534 28.6337 9.47335 28.5879 9.52266 28.5573L9.97493 28.2763L8.82293 28.9413C8.7626 28.9767 8.69075 28.9868 8.62302 28.9694C8.55529 28.952 8.49717 28.9086 8.46133 28.8485C8.42534 28.7887 8.41412 28.7173 8.43006 28.6493C8.446 28.5814 8.48784 28.5223 8.54666 28.4848L12.5685 25.9381L8.25866 28.4261C8.1984 28.4575 8.12843 28.4648 8.06301 28.4464C7.99758 28.4281 7.9416 28.3855 7.90647 28.3273C7.87134 28.2691 7.85969 28.1998 7.87389 28.1333C7.8881 28.0669 7.92709 28.0083 7.98293 27.9696L10.6224 26.3056L8.14879 27.7339C8.0888 27.7695 8.01722 27.7802 7.94942 27.7637C7.88163 27.7471 7.82301 27.7047 7.78616 27.6454C7.74931 27.5862 7.73715 27.5148 7.7523 27.4467C7.76745 27.3786 7.8087 27.3191 7.86719 27.2811L13.5205 23.5035L8.14879 26.6043C8.0889 26.6392 8.01771 26.6493 7.95044 26.6325C7.88317 26.6157 7.82516 26.5732 7.78879 26.5141C7.75237 26.4551 7.74025 26.3843 7.75497 26.3166C7.76969 26.2489 7.81011 26.1895 7.86773 26.1509L11.5152 23.7317L8.14879 25.6757C8.08904 25.7088 8.01887 25.7177 7.95275 25.7006C7.88663 25.6835 7.82959 25.6416 7.79341 25.5837C7.75723 25.5258 7.74465 25.4562 7.75828 25.3892C7.77191 25.3223 7.8107 25.2632 7.86666 25.224L10.7765 23.2608L8.14879 24.7781C8.08904 24.8128 8.01816 24.8229 7.95109 24.8064C7.88401 24.7899 7.82597 24.7479 7.7892 24.6894C7.75242 24.631 7.73978 24.5605 7.75393 24.4929C7.76808 24.4252 7.80792 24.3658 7.86506 24.3269L9.91413 22.9253L8.14879 23.944C8.09056 23.9766 8.02221 23.9862 7.95725 23.9709C7.89228 23.9556 7.83543 23.9164 7.79791 23.8612C7.76039 23.806 7.74494 23.7388 7.75461 23.6727C7.76428 23.6067 7.79836 23.5467 7.85013 23.5045L10.6853 21.2576L8.14879 22.7216C8.09102 22.759 8.021 22.7724 7.95348 22.7592C7.88597 22.746 7.82622 22.7071 7.78682 22.6507C7.74742 22.5943 7.73144 22.5248 7.74226 22.4568C7.75307 22.3889 7.78983 22.3278 7.84479 22.2864L9.39413 20.9941L8.14879 21.7131C8.09402 21.745 8.02965 21.7563 7.96727 21.745C7.9049 21.7337 7.84861 21.7004 7.80854 21.6513C7.76848 21.6022 7.74727 21.5404 7.74873 21.477C7.7502 21.4136 7.77424 21.3528 7.81653 21.3056L8.73706 20.2715L8.14879 20.6107C8.10383 20.6366 8.05228 20.6488 8.00046 20.6458C7.94865 20.6429 7.89882 20.6249 7.85709 20.594C7.81536 20.5632 7.78354 20.5208 7.76554 20.4721C7.74753 20.4234 7.74412 20.3706 7.75573 20.32L7.91733 19.6181C7.87041 19.5999 7.82963 19.5688 7.79972 19.5284C7.7698 19.4879 7.75199 19.4398 7.74836 19.3896C7.74473 19.3395 7.75542 19.2893 7.7792 19.2449C7.80298 19.2006 7.83885 19.1639 7.88266 19.1392L8.14986 18.9851C8.19483 18.9591 8.24638 18.9469 8.29819 18.9499C8.35001 18.9528 8.39984 18.9708 8.44156 19.0017C8.48329 19.0325 8.51511 19.0749 8.53312 19.1236C8.55112 19.1723 8.55453 19.2251 8.54293 19.2757L8.41279 19.8427L9.90186 18.9835C9.95664 18.9524 10.0206 18.9418 10.0825 18.9534C10.1444 18.965 10.2002 18.9982 10.24 19.047C10.2798 19.0957 10.301 19.1571 10.2999 19.22C10.2989 19.283 10.2756 19.3435 10.2341 19.3909L9.31413 20.4251L11.8149 18.9808C11.8727 18.9464 11.9414 18.9351 12.0071 18.9493C12.0728 18.9634 12.1308 19.0019 12.1693 19.057C12.2078 19.1122 12.224 19.1798 12.2146 19.2464C12.2053 19.313 12.1711 19.3736 12.1189 19.416L10.5685 20.7088L13.5653 18.9792C13.6236 18.9466 13.6919 18.937 13.7569 18.9523C13.8218 18.9676 13.8787 19.0067 13.9162 19.0619C13.9537 19.1172 13.9692 19.1844 13.9595 19.2505C13.9498 19.3165 13.9158 19.3765 13.864 19.4187L11.0283 21.6661L15.6864 18.9771C15.7461 18.9424 15.817 18.9322 15.8841 18.9488C15.9512 18.9653 16.0092 19.0073 16.046 19.0657C16.0828 19.1242 16.0954 19.1947 16.0813 19.2623C16.0671 19.3299 16.0273 19.3894 15.9701 19.4283L13.9237 20.8283L17.1328 18.9755C17.1926 18.9406 17.2636 18.9305 17.3307 18.9472C17.3979 18.964 17.4558 19.0062 17.4923 19.0651C17.5289 19.1236 17.5413 19.1942 17.5269 19.2618C17.5125 19.3294 17.4723 19.3887 17.4149 19.4272L14.504 21.3909L18.6901 18.9744C18.75 18.9394 18.8212 18.9293 18.8885 18.9462C18.9558 18.963 19.0138 19.0055 19.0501 19.0645C19.0866 19.1235 19.0987 19.1943 19.084 19.2621C19.0692 19.3298 19.0288 19.3892 18.9712 19.4277L15.3248 21.8459L20.3013 18.9728C20.3613 18.9372 20.4329 18.9265 20.5007 18.943C20.5685 18.9595 20.6271 19.002 20.664 19.0612C20.7008 19.1205 20.713 19.1918 20.6978 19.26C20.6827 19.3281 20.6414 19.3875 20.5829 19.4256L14.9296 23.2032L22.2608 18.9707C22.3213 18.9341 22.3939 18.9231 22.4626 18.94C22.5312 18.957 22.5904 19.0005 22.6269 19.0611C22.6635 19.1216 22.6745 19.1942 22.6576 19.2628C22.6406 19.3315 22.5971 19.3906 22.5365 19.4272L19.8944 21.0928L23.5717 18.9701C23.6321 18.9351 23.7039 18.9251 23.7715 18.9425C23.8392 18.9598 23.8973 19.0031 23.9333 19.0629C23.9693 19.1227 23.9805 19.1942 23.9646 19.2621C23.9487 19.3301 23.9068 19.3891 23.848 19.4267L19.8288 21.9717L23.8507 19.6496C23.9113 19.6132 23.984 19.6025 24.0526 19.6197C24.1212 19.6369 24.1802 19.6806 24.2165 19.7413C24.2529 19.802 24.2636 19.8746 24.2464 19.9433C24.2292 20.0119 24.1855 20.0708 24.1248 20.1072L23.6688 20.3909L23.8512 20.2859C23.9112 20.251 23.9825 20.241 24.0498 20.2579C24.1171 20.2748 24.1752 20.3172 24.2117 20.3762C24.2482 20.4352 24.2603 20.5062 24.2454 20.5739C24.2304 20.6417 24.1897 20.701 24.1317 20.7392L18.9493 24.1669L23.8512 21.3371C23.9108 21.2992 23.983 21.2866 24.0519 21.302C24.1209 21.3174 24.1808 21.3596 24.2187 21.4192C24.2565 21.4788 24.2691 21.551 24.2537 21.6199C24.2383 21.6888 24.1961 21.7488 24.1365 21.7867L18.9648 25.3835L23.8512 22.5627C23.9113 22.5255 23.9837 22.5137 24.0526 22.5299C24.1214 22.5461 24.1809 22.5889 24.2181 22.6491C24.2553 22.7092 24.2671 22.7816 24.2509 22.8504C24.2347 22.9192 24.1918 22.9788 24.1317 23.016L22.5211 24.0784L23.8512 23.3109C23.9108 23.2762 23.9815 23.266 24.0485 23.2823C24.1156 23.2987 24.1736 23.3404 24.2105 23.3986C24.2475 23.4569 24.2604 23.5272 24.2466 23.5948C24.2328 23.6623 24.1933 23.7219 24.1365 23.7611L21.872 25.3312L23.8512 24.1883C23.9095 24.1548 23.9783 24.1447 24.0438 24.1598C24.1093 24.1749 24.1666 24.2143 24.2044 24.2699C24.2421 24.3255 24.2575 24.3933 24.2474 24.4598C24.2373 24.5262 24.2024 24.5864 24.1499 24.6283L21.5221 26.6976L23.8512 25.3531C23.9092 25.3203 23.9774 25.3106 24.0423 25.3256C24.1073 25.3407 24.1642 25.3795 24.2019 25.4344C24.2396 25.4893 24.2554 25.5564 24.2462 25.6223C24.237 25.6883 24.2034 25.7485 24.152 25.7909L22.848 26.8437L23.8512 26.2651C23.9069 26.2329 23.9724 26.222 24.0355 26.2343C24.0987 26.2466 24.1552 26.2813 24.1948 26.332C24.2343 26.3828 24.2542 26.4461 24.2508 26.5103C24.2473 26.5746 24.2208 26.6354 24.176 26.6816L23.2917 27.5893L23.8517 27.2667C23.9066 27.2353 23.9709 27.2245 24.033 27.2361C24.0952 27.2477 24.1511 27.281 24.191 27.3301C24.2308 27.3792 24.252 27.4408 24.2506 27.504C24.2492 27.5672 24.2254 27.6279 24.1835 27.6752L23.9637 27.92C24.0137 27.9349 24.0581 27.9642 24.0915 28.0042C24.125 28.0442 24.1459 28.0931 24.1517 28.1449C24.1575 28.1967 24.1479 28.2491 24.1242 28.2955C24.1004 28.3419 24.0635 28.3803 24.0181 28.4059L22.9616 29.016C22.9067 29.0473 22.8424 29.0582 22.7803 29.0466C22.7182 29.0349 22.6622 29.0016 22.6223 28.9525C22.5825 28.9035 22.5614 28.8418 22.5627 28.7786C22.5641 28.7154 22.5879 28.6547 22.6299 28.6075L22.6651 28.5685L21.8885 29.0165C21.8328 29.0487 21.7673 29.0596 21.7042 29.0473C21.6411 29.035 21.5845 29.0003 21.5449 28.9495C21.5054 28.8988 21.4855 28.8355 21.489 28.7712C21.4924 28.707 21.519 28.6462 21.5637 28.6L22.4485 27.6917L20.1525 29.0165C20.0945 29.0492 20.0263 29.059 19.9614 29.044C19.8965 29.0289 19.8395 28.9901 19.8018 28.9352C19.7641 28.8803 19.7483 28.8132 19.7575 28.7472C19.7668 28.6812 19.8004 28.6211 19.8517 28.5787L21.1547 27.5264L18.5733 29.0165C18.515 29.0499 18.4462 29.0601 18.3807 29.045C18.3152 29.0298 18.2579 28.9905 18.2201 28.9349C18.1824 28.8793 18.167 28.8115 18.1771 28.745C18.1872 28.6786 18.2221 28.6184 18.2747 28.5765L20.9029 26.5067L16.5557 29.0165C16.4961 29.0512 16.4254 29.0615 16.3584 29.0451C16.2914 29.0287 16.2333 28.9871 16.1964 28.9288C16.1594 28.8706 16.1465 28.8003 16.1603 28.7327C16.1741 28.6651 16.2136 28.6055 16.2704 28.5664L18.5323 26.9984L15.0363 29.0165C14.9762 29.0513 14.905 29.0614 14.8377 29.0445C14.7703 29.0276 14.7123 28.9852 14.6757 28.9262C14.6392 28.8671 14.6272 28.7962 14.6421 28.7284C14.657 28.6607 14.6978 28.6014 14.7557 28.5632L16.3707 27.4976L13.7392 29.0165C13.6797 29.0512 13.6091 29.0614 13.5422 29.0449C13.4754 29.0285 13.4175 28.9868 13.3808 28.9285C13.3438 28.8705 13.3307 28.8004 13.3443 28.733C13.3579 28.6655 13.3972 28.606 13.4539 28.5669L18.6235 24.9717L11.6171 29.0165C11.557 29.0513 11.4858 29.0614 11.4185 29.0445C11.3511 29.0276 11.2931 28.9852 11.2565 28.9262C11.22 28.8671 11.2079 28.7962 11.2229 28.7284C11.2378 28.6607 11.2786 28.6014 11.3365 28.5632L16.52 25.1344L9.79626 29.016C9.75578 29.0395 9.70976 29.0519 9.66293 29.0517L9.66346 29.0507Z" fill="#DDAD33"/>
<path d="M19.7483 24.2496C19.6996 24.2495 19.6519 24.2361 19.6103 24.2108C19.5687 24.1856 19.5349 24.1495 19.5123 24.1063C19.4898 24.0632 19.4795 24.0148 19.4826 23.9662C19.4856 23.9177 19.5019 23.8709 19.5296 23.8309L19.8837 23.321L19.0389 23.8085C18.9834 23.8406 18.9181 23.8516 18.8551 23.8395C18.7921 23.8273 18.7356 23.7929 18.6959 23.7425C18.6562 23.692 18.6361 23.629 18.6391 23.5649C18.6422 23.5008 18.6682 23.44 18.7125 23.3936L19.3008 22.7792L18.816 23.0586C18.7593 23.0924 18.6921 23.1039 18.6274 23.091C18.5627 23.078 18.5051 23.0414 18.4659 22.9884C18.4266 22.9354 18.4084 22.8697 18.4149 22.804C18.4213 22.7383 18.452 22.6774 18.5008 22.633L18.8293 22.3253L18.8165 22.3328C18.7658 22.3623 18.7067 22.3742 18.6485 22.3667C18.5903 22.3592 18.5362 22.3327 18.4945 22.2913C18.4529 22.2499 18.4261 22.196 18.4183 22.1378C18.4104 22.0796 18.422 22.0205 18.4512 21.9696L19 21.0064L18.968 21.0245C18.9377 21.0421 18.9042 21.0535 18.8695 21.0581C18.8347 21.0627 18.7994 21.0604 18.7656 21.0513C18.7317 21.0423 18.7 21.0266 18.6723 21.0053C18.6445 20.9839 18.6212 20.9573 18.6037 20.9269C18.5861 20.8966 18.5746 20.8631 18.57 20.8284C18.5653 20.7936 18.5676 20.7583 18.5767 20.7244C18.5857 20.6906 18.6014 20.6588 18.6228 20.6311C18.6442 20.6033 18.6709 20.58 18.7013 20.5626L19.5851 20.0528C19.6357 20.0229 19.6948 20.0108 19.753 20.0184C19.8113 20.0259 19.8653 20.0526 19.9067 20.0944C19.992 20.1792 20.0096 20.3109 19.9504 20.416L19.4021 21.3781L20.5691 20.704C20.6257 20.6716 20.6923 20.6611 20.7562 20.6745C20.8201 20.6879 20.8768 20.7243 20.9157 20.7768C20.9545 20.8292 20.9728 20.8941 20.967 20.9591C20.9612 21.0241 20.9318 21.0848 20.8843 21.1296L20.5541 21.4389L20.6501 21.3834C20.7057 21.3513 20.7709 21.3403 20.834 21.3524C20.897 21.3646 20.9535 21.399 20.9932 21.4494C21.0328 21.4999 21.053 21.5629 21.0499 21.627C21.0469 21.6911 21.0208 21.7519 20.9765 21.7984L20.3883 22.4128L20.6501 22.2618C20.7026 22.2305 20.7642 22.2182 20.8246 22.2269C20.8851 22.2357 20.9406 22.2651 20.982 22.31C21.0233 22.355 21.0479 22.4128 21.0515 22.4738C21.0552 22.5348 21.0378 22.5952 21.0021 22.6448L20.6123 23.2064C20.6621 23.2031 20.7118 23.2138 20.7559 23.2373C20.8 23.2607 20.8367 23.296 20.8619 23.3392C20.8795 23.3694 20.891 23.4029 20.8956 23.4377C20.9003 23.4724 20.898 23.5078 20.8889 23.5416C20.8799 23.5755 20.8642 23.6072 20.8428 23.635C20.8214 23.6628 20.7947 23.686 20.7643 23.7034L19.8816 24.2133C19.8412 24.237 19.7951 24.2498 19.7483 24.2496Z" fill="#D5E1E8"/>
<path d="M13.6411 20.5173C13.5845 20.5175 13.5293 20.4997 13.4835 20.4664C13.4377 20.4332 13.4037 20.3862 13.3864 20.3324C13.3691 20.2785 13.3693 20.2205 13.3871 20.1668C13.4049 20.1131 13.4393 20.0664 13.4853 20.0336L15.0571 18.9024L12.3221 20.481C12.2628 20.5149 12.1928 20.5247 12.1265 20.5084C12.0602 20.4921 12.0026 20.451 11.9657 20.3936C11.9288 20.3362 11.9153 20.2668 11.928 20.1997C11.9407 20.1326 11.9787 20.0729 12.0341 20.033L13.3856 19.0725L10.9456 20.481C10.8869 20.5144 10.8177 20.5243 10.752 20.5087C10.6863 20.4931 10.6289 20.4531 10.5916 20.3968C10.5542 20.3406 10.5395 20.2722 10.5506 20.2056C10.5617 20.1389 10.5976 20.079 10.6512 20.0378L12.8261 18.392L9.20746 20.481C9.14864 20.5142 9.0794 20.5239 9.01373 20.508C8.94806 20.4922 8.89086 20.452 8.85369 20.3956C8.81651 20.3392 8.80213 20.2708 8.81345 20.2041C8.82476 20.1375 8.86094 20.0777 8.91466 20.0368L10.9643 18.5061L8.33546 20.0234C8.30678 20.0433 8.27447 20.0573 8.24038 20.0647C8.20628 20.072 8.17107 20.0726 8.13675 20.0664C8.06743 20.0538 8.00596 20.0142 7.96586 19.9562C7.92576 19.8983 7.91031 19.8268 7.92292 19.7575C7.93552 19.6882 7.97514 19.6267 8.03306 19.5866L10.1141 17.8816L8.1488 19.016C8.09036 19.0526 8.02 19.0651 7.95253 19.0508C7.88507 19.0366 7.82577 18.9967 7.78712 18.9396C7.74848 18.8825 7.7335 18.8126 7.74536 18.7447C7.75721 18.6767 7.79496 18.6161 7.85066 18.5754L8.4384 18.1141L8.1488 18.2805C8.092 18.313 8.02524 18.3235 7.9612 18.31C7.89717 18.2965 7.84035 18.2599 7.80155 18.2072C7.76275 18.1545 7.74468 18.0894 7.75079 18.0242C7.75689 17.959 7.78675 17.8984 7.83466 17.8538L8.27786 17.4442L8.1488 17.5189C8.03733 17.584 7.89546 17.5594 7.81226 17.4613C7.72906 17.3632 7.72746 17.2197 7.80853 17.1194L8.08533 16.7808C8.03612 16.765 7.99257 16.7353 7.96002 16.6951C7.92747 16.655 7.90732 16.6063 7.90206 16.5549C7.89679 16.5035 7.90664 16.4516 7.93038 16.4058C7.95412 16.3599 7.99073 16.3219 8.03573 16.2965L8.92 15.7861C8.97389 15.7545 9.0372 15.743 9.09877 15.7535C9.16034 15.764 9.21622 15.796 9.25653 15.8437C9.29691 15.8913 9.31939 15.9515 9.32007 16.014C9.32075 16.0764 9.2996 16.1371 9.26026 16.1856L9.1424 16.3296L10.0859 15.785C10.1427 15.7511 10.2101 15.7395 10.275 15.7525C10.3398 15.7656 10.3975 15.8023 10.4368 15.8556C10.476 15.9089 10.494 15.9749 10.4872 16.0408C10.4804 16.1066 10.4493 16.1675 10.4 16.2117L9.95733 16.6208L11.4048 15.7856C11.4632 15.7519 11.5321 15.7417 11.5978 15.7568C11.6635 15.772 11.721 15.8114 11.7587 15.8672C11.7965 15.923 11.8117 15.991 11.8014 16.0576C11.791 16.1242 11.7559 16.1844 11.7029 16.2261L11.1157 16.6869L12.6784 15.7856C12.7364 15.7505 12.8055 15.7388 12.8718 15.753C12.938 15.7672 12.9964 15.8061 13.035 15.8618C13.0735 15.9175 13.0894 15.9858 13.0793 16.0528C13.0693 16.1198 13.034 16.1804 12.9808 16.2224L10.8987 17.9285L14.6112 15.785C14.6701 15.7484 14.741 15.7363 14.8087 15.7511C14.8764 15.766 14.9357 15.8067 14.9739 15.8646C15.012 15.9225 15.0261 15.993 15.013 16.0612C15 16.1293 14.9609 16.1896 14.904 16.2293L12.8539 17.7605L16.2763 15.785C16.335 15.7483 16.4058 15.7359 16.4736 15.7505C16.5414 15.7651 16.6007 15.8056 16.6391 15.8634C16.6775 15.9211 16.6918 15.9916 16.679 16.0597C16.6662 16.1278 16.6273 16.1883 16.5707 16.2282L14.3957 17.8741L18.0144 15.785C18.0737 15.7512 18.1437 15.7414 18.2101 15.7577C18.2764 15.7739 18.3339 15.815 18.3708 15.8725C18.4078 15.9299 18.4212 15.9993 18.4085 16.0664C18.3958 16.1335 18.3578 16.1931 18.3024 16.233L16.9525 17.1925L19.3904 15.785C19.4497 15.7507 19.5199 15.7404 19.5865 15.7564C19.6531 15.7725 19.711 15.8135 19.7481 15.871C19.7853 15.9286 19.7989 15.9982 19.7861 16.0655C19.7733 16.1328 19.7351 16.1926 19.6795 16.2325L18.1077 17.3637L20.8427 15.785C20.9008 15.752 20.9693 15.742 21.0345 15.7571C21.0997 15.7722 21.1568 15.8113 21.1946 15.8665C21.2323 15.9218 21.2479 15.9892 21.2382 16.0554C21.2285 16.1216 21.1943 16.1818 21.1424 16.224L18.5995 18.257L22.8731 15.7904C22.9314 15.7569 23.0002 15.7468 23.0657 15.7619C23.1312 15.7771 23.1885 15.8164 23.2263 15.872C23.264 15.9276 23.2794 15.9954 23.2693 16.0619C23.2591 16.1283 23.2243 16.1885 23.1717 16.2304L20.6939 18.1893L23.7611 16.4192C23.8199 16.3852 23.8895 16.375 23.9556 16.3906C24.0218 16.4062 24.0795 16.4465 24.1169 16.5032C24.1543 16.5599 24.1687 16.6288 24.1571 16.6957C24.1455 16.7627 24.1087 16.8226 24.0544 16.8634L22.8123 17.7946L23.8507 17.1952C23.9071 17.163 23.9734 17.1525 24.037 17.1657C24.1006 17.1789 24.1572 17.2149 24.1961 17.2669C24.2351 17.3189 24.2537 17.3833 24.2485 17.4481C24.2434 17.5129 24.2147 17.5735 24.168 17.6186L22.8171 18.9098L23.8507 18.3136C23.9059 18.2815 23.9708 18.2703 24.0336 18.2821C24.0963 18.2938 24.1528 18.3277 24.1927 18.3775C24.2326 18.4274 24.2533 18.4899 24.251 18.5537C24.2487 18.6175 24.2236 18.6784 24.1803 18.7253L23.7989 19.1365L23.8395 19.113C23.8698 19.0954 23.9032 19.0839 23.938 19.0793C23.9727 19.0746 24.0081 19.0769 24.0419 19.086C24.0758 19.095 24.1075 19.1107 24.1353 19.1321C24.1631 19.1535 24.1863 19.1802 24.2037 19.2106C24.2214 19.2409 24.2329 19.2744 24.2375 19.3092C24.2422 19.3439 24.2399 19.3792 24.2308 19.4131C24.2217 19.447 24.206 19.4787 24.1846 19.5065C24.1632 19.5342 24.1366 19.5575 24.1061 19.5749L22.5371 20.4805C22.4818 20.5126 22.4169 20.5237 22.3542 20.512C22.2914 20.5002 22.2349 20.4664 22.195 20.4165C22.1551 20.3667 22.1344 20.3041 22.1367 20.2403C22.139 20.1765 22.1641 20.1156 22.2075 20.0688L22.5888 19.6576L21.1627 20.4805C21.1062 20.5127 21.04 20.5231 20.9764 20.5099C20.9128 20.4967 20.8562 20.4607 20.8172 20.4087C20.7782 20.3568 20.7596 20.2923 20.7648 20.2276C20.77 20.1628 20.7986 20.1022 20.8453 20.057L22.1957 18.7658L19.2261 20.4805C19.1673 20.5145 19.0977 20.5247 19.0315 20.5091C18.9654 20.4934 18.9077 20.4532 18.8703 20.3965C18.8329 20.3398 18.8185 20.2709 18.8301 20.204C18.8417 20.137 18.8784 20.077 18.9328 20.0362L20.176 19.1045L17.7915 20.4805C17.7331 20.514 17.6643 20.5244 17.5987 20.5095C17.533 20.4945 17.4754 20.4554 17.4373 20.4C17.3996 20.3441 17.3844 20.276 17.3947 20.2094C17.4049 20.1427 17.44 20.0824 17.4928 20.0405L19.9696 18.0826L15.816 20.4805C15.7578 20.5135 15.6893 20.5235 15.6241 20.5084C15.559 20.4933 15.5018 20.4542 15.4641 20.399C15.4264 20.3437 15.4108 20.2763 15.4205 20.2101C15.4301 20.1439 15.4643 20.0837 15.5163 20.0416L18.0587 18.0085L13.776 20.481C13.7355 20.5047 13.6895 20.517 13.6427 20.5168L13.6411 20.5173Z" fill="#EABB3B"/>
<path d="M7.84427 28.5045C8.26507 29.0655 8.97653 28.9866 9.5936 28.9866H22.4139C23.5051 29.0618 24.4224 28.4719 24.3856 27.3311C23.9259 25.1493 25.5477 16.0426 23.2635 15.8234C20.6677 16.3199 7.36267 14.4266 7.6128 17.2138C7.79893 20.9359 7.22027 24.881 7.84373 28.5045H7.84427ZM23.6133 27.5845C24.4992 29.7471 11.6203 28.1525 9.68373 28.6138C7.0272 28.553 8.91307 22.281 8.3536 20.329C11.7717 20.7013 15.3147 20.361 18.7691 20.4725C17.9696 21.1434 18.312 22.4421 18.3301 23.3599C18.7093 24.5039 20.4363 24.3557 21.0064 23.4634C21.2683 22.5813 21.416 21.2527 20.8677 20.4719C21.7643 20.4394 22.7648 20.5855 23.6133 20.2554C23.608 22.6981 23.632 25.1418 23.6133 27.5845ZM20.2987 20.9551C20.5328 21.6122 20.368 22.3471 20.4133 23.0357C20.4176 24.0058 19.3568 23.993 19.1104 23.1759C18.888 22.2954 18.9424 19.3109 20.2987 20.9551ZM8.38613 16.9978C8.27307 15.2575 17.4688 16.5733 19.2379 16.1861C22.2016 16.3327 24.1787 15.1765 23.6133 19.2581C23.3611 20.8831 19.6309 19.7407 18.3211 20.0613C16.3893 19.6586 8.37387 21.1034 8.33387 19.0234C8.32853 18.3439 8.33493 17.6655 8.38613 16.9978Z" fill="#262626"/>
<path d="M0.159464 19.464C0.212797 19.8154 0.41333 20.0688 0.68053 20.2314C0.711997 23.3845 0.61973 26.5541 0.713064 29.6986C1.42133 31.2901 3.75413 30.3301 5.13813 30.5754C6.6416 32.8986 10.6421 31.3082 13.0464 31.7146C16.3163 31.2165 24.9824 32.9226 26.8347 30.6304C28.3291 30.4629 31.1627 31.3264 31.3211 29.1146C31.3413 26.1253 31.3141 23.136 31.3211 20.1466C31.8416 19.793 31.8773 19.1781 31.8544 18.6101C32.5115 15.4864 28.9851 16.416 27.0555 16.3002C27.5397 11.4458 25.0779 6.47464 20.2016 5.02291C19.6875 -1.38402 12.3579 -1.19309 11.8155 5.07571C7.0208 6.54024 4.40533 11.5264 4.94453 16.3525C2.29813 16.3514 -0.555203 15.6997 0.159464 19.464ZM2.71893 30.2245C0.237864 30.632 1.912 22.3013 1.4528 20.4458C2.61653 20.4512 3.7808 20.4448 4.94453 20.4469C5.01226 23.6986 4.80693 26.9866 5.0272 30.2245H2.71893ZM29.8315 30.1696C28.8864 30.1802 27.9408 30.1717 26.9952 30.1701C27.1851 26.9632 27.0005 23.7162 27.0555 20.4992C28.2277 20.4586 29.3653 20.5861 30.5461 20.4602C30.1739 22.2592 31.4128 29.8464 29.8315 30.1696ZM28.6491 16.7664C30.9531 16.5312 31.2741 17.0853 31.0768 19.3098C30.6603 20.7856 28.2448 19.736 27.0549 20.0341C27.056 18.945 27.0549 17.8554 27.0549 16.7664H28.6491ZM14.0709 1.48798C16.576 -0.520557 19.1813 2.15944 19.3179 4.78984C18.8477 4.68811 18.371 4.6195 17.8912 4.58451C17.7739 1.68158 14.3179 1.82184 14.1381 4.60798C13.6331 4.65011 13.1307 4.72424 12.6325 4.84211C12.9019 3.65438 13.1115 2.29651 14.0709 1.48798ZM15.7413 2.91038C16.6635 2.77651 16.9189 3.84958 17.0592 4.55198C16.3392 4.54984 15.6187 4.53811 14.9019 4.56318C15.0912 3.99358 15.064 3.12744 15.7413 2.91038ZM5.72213 18.992C2.9584 2.27411 23.6624 0.391443 26.1952 13.2154C26.4139 18.2592 26.2112 23.329 26.2779 28.3813C26.5424 30.1173 26.0955 31.6277 24.0213 31.2181H7.8768C6.88693 31.2181 5.8016 31.1333 5.7216 29.8245C5.7056 26.2154 5.73226 22.6016 5.7216 18.9909L5.72213 18.992ZM0.92213 17.4538C0.939197 17.1882 1.08746 16.8282 1.3584 16.7226C2.55093 16.6981 3.75093 16.7216 4.94506 16.7136V20.0864C2.49546 19.9786 0.388264 20.9226 0.92213 17.4533V17.4538Z" fill="#262626"/>
</g>
<defs>
<clipPath id="clip0_121_1924">
<rect width="32" height="32" fill="white"/>
</clipPath>
</defs>
</svg>
