<svg width="32" height="32" viewBox="0 0 32 32" fill="none" xmlns="http://www.w3.org/2000/svg">
<g clip-path="url(#clip0_9_4661)">
<path d="M29.5514 16.1054C29.4983 16.1056 29.4465 16.09 29.4022 16.0608C29.3579 16.0316 29.3232 15.99 29.3025 15.9412C29.2818 15.8924 29.276 15.8386 29.2857 15.7865C29.2954 15.7344 29.3202 15.6863 29.3571 15.6482L30.0536 14.9293L28.9791 15.5494C28.9217 15.5844 28.8532 15.5967 28.7872 15.5838C28.7211 15.5708 28.6623 15.5337 28.6223 15.4796C28.5823 15.4256 28.5639 15.3585 28.5707 15.2916C28.5776 15.2247 28.6092 15.1628 28.6594 15.118L29.4558 14.37L28.348 15.0085C28.2906 15.0418 28.2229 15.0528 28.1579 15.0393C28.0929 15.0259 28.0351 14.9888 27.9957 14.9354C27.9563 14.8819 27.9379 14.8158 27.9442 14.7496C27.9505 14.6835 27.981 14.622 28.0298 14.5769L28.7709 13.8893L27.7387 14.4826C27.6831 14.5145 27.618 14.5256 27.555 14.5139C27.4919 14.5022 27.4352 14.4685 27.3948 14.4187C27.3544 14.3689 27.3331 14.3064 27.3346 14.2423C27.3361 14.1782 27.3604 14.1168 27.4032 14.069L28.526 12.8155L26.894 13.7605C26.8369 13.7954 26.7688 13.8078 26.703 13.7954C26.6372 13.7829 26.5784 13.7464 26.538 13.693C26.4976 13.6396 26.4786 13.5731 26.4846 13.5064C26.4906 13.4397 26.5211 13.3777 26.5704 13.3323L27.395 12.5433L26.2462 13.2067C26.1891 13.241 26.1214 13.253 26.056 13.2404C25.9907 13.2277 25.9323 13.1914 25.8921 13.1383C25.8519 13.0852 25.8328 13.0191 25.8384 12.9527C25.844 12.8863 25.8739 12.8244 25.9225 12.7788L26.7526 11.9817L25.5951 12.6499C25.5378 12.6807 25.4713 12.6897 25.4079 12.6752C25.3444 12.6608 25.2884 12.6239 25.25 12.5714C25.2116 12.5188 25.1935 12.4542 25.1991 12.3893C25.2046 12.3244 25.2335 12.2638 25.2804 12.2186L25.8736 11.6841L25.0304 12.1695C24.9724 12.2023 24.9042 12.2124 24.8391 12.1979C24.774 12.1834 24.7166 12.1452 24.6779 12.0909C24.6392 12.0365 24.622 11.9696 24.6298 11.9033C24.6375 11.837 24.6696 11.7759 24.7199 11.7319L25.112 11.3944L24.5229 11.7342C24.4654 11.7697 24.3967 11.7824 24.3304 11.7697C24.264 11.757 24.2049 11.7198 24.1646 11.6655C24.1244 11.6113 24.1059 11.5439 24.113 11.4767C24.12 11.4095 24.152 11.3474 24.2026 11.3026L24.9717 10.5755L23.9039 11.1952C23.8464 11.2291 23.7784 11.2405 23.713 11.2271C23.6476 11.2138 23.5895 11.1768 23.5499 11.1231C23.5102 11.0695 23.4919 11.0031 23.4984 10.9367C23.5049 10.8703 23.5358 10.8087 23.5851 10.7638L24.3046 10.0918L23.2975 10.6755C23.2401 10.7088 23.1724 10.7198 23.1073 10.7063C23.0423 10.6927 22.9846 10.6557 22.9452 10.6022C22.9058 10.5487 22.8874 10.4826 22.8937 10.4165C22.9 10.3504 22.9305 10.289 22.9793 10.2439L23.6804 9.59335L22.6978 10.1629C22.6394 10.1976 22.5701 10.2091 22.5037 10.1949C22.4372 10.1808 22.3786 10.1421 22.3395 10.0865C22.3004 10.031 22.2837 9.96275 22.2927 9.89543C22.3017 9.82811 22.3358 9.76668 22.3882 9.72343L22.6623 9.49159L22.2156 9.74934C22.1602 9.781 22.0953 9.792 22.0326 9.7804C21.9698 9.76879 21.9132 9.73533 21.8727 9.68595C21.8323 9.6365 21.8108 9.57431 21.8119 9.51046C21.8131 9.44661 21.8369 9.38524 21.8791 9.33731L22.9738 8.09988L21.3742 9.02274C21.3164 9.05602 21.2483 9.0667 21.1831 9.05272C21.1179 9.03873 21.0602 9.00108 21.0211 8.94702C20.982 8.89296 20.9643 8.82634 20.9715 8.76003C20.9787 8.69371 21.0102 8.6324 21.0599 8.58795L21.5954 8.10974L20.8269 8.55293C20.7684 8.58594 20.6998 8.59596 20.6344 8.58105C20.5689 8.56614 20.5114 8.52737 20.473 8.47231C20.4347 8.41725 20.4182 8.34986 20.4269 8.28331C20.4356 8.21676 20.4687 8.15584 20.5199 8.11246L20.6365 8.01518L20.3753 8.1658C20.3169 8.199 20.2483 8.20926 20.1828 8.19457C20.1173 8.17988 20.0597 8.14129 20.0211 8.08636C19.9826 8.03142 19.9659 7.96408 19.9744 7.8975C19.9828 7.83092 20.0158 7.76989 20.0669 7.72634L20.2827 7.54506L19.9049 7.76059C19.8495 7.7924 19.7845 7.80341 19.7217 7.79166C19.6588 7.7799 19.6022 7.74615 19.562 7.69644C19.5217 7.64682 19.5003 7.5845 19.5017 7.52059C19.5031 7.45668 19.5272 7.39535 19.5696 7.34755L20.6333 6.161L19.0825 7.05573C19.0266 7.08814 18.9609 7.09941 18.8974 7.0875C18.8339 7.07559 18.7768 7.04128 18.7364 6.99082C18.6962 6.9403 18.6754 6.87701 18.6778 6.81246C18.6802 6.7479 18.7057 6.68636 18.7497 6.63902L19.7654 5.54178L18.2999 6.38765C18.2424 6.42253 18.1739 6.4347 18.108 6.42177C18.042 6.40884 17.9832 6.37174 17.9431 6.31775C17.9031 6.2637 17.8847 6.19664 17.8916 6.12974C17.8984 6.06284 17.93 6.0009 17.9802 5.95609L18.6887 5.2882L17.6915 5.86374C17.6336 5.8973 17.5654 5.90815 17.4999 5.89418C17.4345 5.88022 17.3766 5.84243 17.3375 5.78817C17.2984 5.73391 17.2809 5.66705 17.2883 5.60057C17.2957 5.53409 17.3276 5.47275 17.3777 5.42845L17.8604 4.99986L17.1592 5.40551C17.1035 5.43752 17.0383 5.44865 16.9752 5.43688C16.912 5.42511 16.8552 5.39122 16.8148 5.34129C16.7745 5.29133 16.7533 5.22866 16.7551 5.16451C16.7568 5.10036 16.7813 5.03892 16.8242 4.9912L17.8587 3.8439L16.2536 4.76947C16.1702 4.82257 16.064 4.82554 15.9776 4.77737C15.9351 4.75363 15.8999 4.71887 15.8756 4.67677C15.8512 4.63466 15.8387 4.58677 15.8393 4.53814C15.84 4.48952 15.8537 4.44198 15.8792 4.40056C15.9047 4.35914 15.9409 4.32539 15.984 4.30289L19.0657 2.52304C19.1213 2.49104 19.1866 2.47993 19.2497 2.4917C19.3127 2.50346 19.3696 2.53734 19.4099 2.58724C19.4503 2.63714 19.4715 2.6998 19.4699 2.76395C19.4682 2.82811 19.4437 2.88957 19.4008 2.93728L18.3663 4.08661L19.8802 3.21279C19.938 3.17998 20.0059 3.16965 20.0708 3.1838C20.1358 3.19795 20.1932 3.23558 20.2321 3.28948C20.271 3.34337 20.2886 3.40972 20.2816 3.47581C20.2746 3.5419 20.2434 3.60307 20.194 3.64758L19.7086 4.07921L20.4184 3.66983C20.4759 3.63484 20.5443 3.62258 20.6103 3.63547C20.6763 3.64835 20.7352 3.68545 20.7752 3.73948C20.8152 3.79353 20.8336 3.86054 20.8268 3.92743C20.82 3.99432 20.7885 4.05626 20.7384 4.10114L20.0318 4.76505L21.035 4.18584C21.0909 4.15314 21.1567 4.14166 21.2204 4.1535C21.2841 4.16534 21.3414 4.1997 21.3819 4.25031C21.4223 4.30091 21.4432 4.36438 21.4407 4.42912C21.4382 4.49385 21.4125 4.55553 21.3683 4.60287L20.3528 5.69979L21.8236 4.85095C21.8791 4.81928 21.944 4.80835 22.0068 4.82011C22.0696 4.83187 22.1262 4.86556 22.1665 4.91516C22.2069 4.96473 22.2283 5.02704 22.227 5.09097C22.2256 5.15489 22.2016 5.21625 22.1591 5.26405L21.096 6.4506L22.6541 5.55094C22.7125 5.51707 22.7814 5.50632 22.8474 5.52081C22.9133 5.53529 22.9714 5.57397 23.0102 5.62919C23.049 5.68437 23.0658 5.75212 23.0571 5.81906C23.0484 5.88599 23.0149 5.94723 22.9633 5.99066L22.7474 6.17187L23.1299 5.95116C23.1883 5.91758 23.2573 5.90711 23.3231 5.92183C23.3889 5.93655 23.4468 5.97538 23.4854 6.03067C23.524 6.08599 23.5404 6.15375 23.5315 6.22059C23.5226 6.28744 23.489 6.34852 23.4373 6.39182L23.3207 6.4884L23.5856 6.33627C23.643 6.30587 23.7093 6.29718 23.7726 6.31178C23.8358 6.32639 23.8916 6.36332 23.9298 6.41578C23.968 6.46822 23.9861 6.5327 23.9806 6.59737C23.9751 6.66205 23.9465 6.72257 23.9 6.76783L23.3607 7.24781L24.1367 6.80019C24.1921 6.7684 24.257 6.75732 24.3198 6.76895C24.3827 6.78057 24.4393 6.81413 24.4797 6.86365C24.5201 6.9131 24.5416 6.9753 24.5404 7.03915C24.5392 7.103 24.5154 7.16436 24.4732 7.21229L23.379 8.44947L24.9922 7.52016C25.0505 7.48615 25.1194 7.47524 25.1854 7.48958C25.2513 7.50393 25.3095 7.54248 25.3484 7.59763C25.3872 7.65278 25.404 7.72051 25.3954 7.78744C25.3868 7.85437 25.3534 7.91563 25.3018 7.95912L25.029 8.19001L25.4793 7.93049C25.5368 7.89717 25.6045 7.88623 25.6695 7.89976C25.7345 7.91329 25.7922 7.95034 25.8316 8.00381C25.8711 8.05725 25.8894 8.12338 25.8831 8.1895C25.8767 8.25563 25.8462 8.31708 25.7973 8.36205L25.0964 9.01364L26.0855 8.44258C26.1429 8.4088 26.2108 8.39748 26.2761 8.41081C26.3414 8.42413 26.3994 8.46116 26.439 8.51474C26.4786 8.56833 26.497 8.63468 26.4905 8.70099C26.4841 8.76731 26.4534 8.8289 26.4042 8.87389L25.6858 9.5445L26.6983 8.95985C26.7557 8.92487 26.8241 8.91261 26.8901 8.92548C26.9561 8.93834 27.0149 8.97539 27.055 9.02937C27.0951 9.08343 27.1135 9.15051 27.1066 9.21745C27.0998 9.28438 27.0682 9.34634 27.018 9.39116L26.2489 10.1182L27.3276 9.49406C27.3858 9.4601 27.4545 9.44914 27.5204 9.46335C27.5862 9.47755 27.6444 9.51588 27.6834 9.57081C27.7224 9.62573 27.7395 9.69327 27.7312 9.76013C27.7229 9.82698 27.6899 9.88832 27.6387 9.93207L27.2451 10.2713L27.8416 9.92739C27.899 9.89662 27.9655 9.88762 28.029 9.90204C28.0925 9.91647 28.1486 9.95335 28.187 10.0059C28.2254 10.0585 28.2435 10.1231 28.2379 10.188C28.2323 10.2528 28.2035 10.3135 28.1567 10.3587L27.5634 10.8928L28.4107 10.4036C28.4678 10.3694 28.5354 10.3575 28.6007 10.3702C28.666 10.3828 28.7244 10.4192 28.7645 10.4722C28.8046 10.5253 28.8237 10.5913 28.8181 10.6576C28.8125 10.7238 28.7826 10.7857 28.7341 10.8313L27.9041 11.6285L29.0679 10.9564C29.125 10.9213 29.1931 10.9088 29.259 10.9212C29.3249 10.9336 29.3838 10.9701 29.4242 11.0235C29.4646 11.077 29.4837 11.1436 29.4777 11.2103C29.4716 11.2771 29.441 11.3392 29.3917 11.3846L28.5665 12.1736L29.723 11.5065C29.7785 11.4748 29.8434 11.4639 29.9062 11.4757C29.969 11.4875 30.0256 11.5212 30.0659 11.5708C30.1062 11.6204 30.1275 11.6827 30.1261 11.7466C30.1247 11.8104 30.1006 11.8718 30.0582 11.9196L28.9354 13.1726L30.576 12.226C30.6335 12.1926 30.7012 12.1815 30.7663 12.195C30.8314 12.2085 30.8892 12.2456 30.9286 12.299C30.9681 12.3525 30.9864 12.4187 30.98 12.4849C30.9737 12.551 30.9431 12.6125 30.8942 12.6575L30.1494 13.3452L31.1905 12.7454C31.2479 12.711 31.3161 12.6992 31.3818 12.7123C31.4475 12.7254 31.506 12.7625 31.5458 12.8163C31.5856 12.8701 31.604 12.9369 31.5973 13.0035C31.5907 13.0701 31.5595 13.1319 31.5098 13.1768L30.713 13.9276L31.4547 13.4999C31.511 13.4678 31.5769 13.457 31.6405 13.4696C31.7041 13.4822 31.761 13.5172 31.8008 13.5683C31.8408 13.6194 31.861 13.6831 31.8577 13.7478C31.8544 13.8126 31.8279 13.8739 31.783 13.9207L30.472 15.2754C30.4768 15.283 30.4817 15.2899 30.4861 15.2981C30.5218 15.3601 30.5315 15.4337 30.5129 15.5027C30.4944 15.5718 30.4492 15.6307 30.3873 15.6665L29.6862 16.0711C29.645 16.0941 29.5985 16.1059 29.5514 16.1054Z" fill="#EB5463"/>
<path d="M1.89616 15.7976C1.8387 15.7976 1.78273 15.7792 1.73643 15.7452C1.69012 15.7112 1.65589 15.6632 1.63872 15.6084C1.62155 15.5536 1.62234 15.4947 1.64097 15.4403C1.65961 15.386 1.69511 15.339 1.74232 15.3062L2.00456 15.1245L1.67121 15.3164C1.61098 15.3506 1.53991 15.3602 1.47272 15.3434C1.40554 15.3266 1.3474 15.2846 1.31036 15.2261C1.27331 15.1676 1.26019 15.0971 1.27373 15.0292C1.28726 14.9612 1.32641 14.9011 1.38306 14.8613L5.8662 11.768L1.0506 14.5485C0.98966 14.5832 0.917625 14.5928 0.849738 14.5753C0.781851 14.5577 0.723437 14.5145 0.686855 14.4547C0.650283 14.3949 0.638441 14.3232 0.653838 14.2548C0.669236 14.1864 0.710663 14.1267 0.769338 14.0883L9.49733 8.47266L0.568851 13.6274C0.507802 13.6604 0.436347 13.6687 0.369375 13.6504C0.302402 13.632 0.245076 13.5886 0.209341 13.5291C0.173465 13.4696 0.161937 13.3987 0.177166 13.3309C0.192395 13.2632 0.233203 13.204 0.291065 13.1656L5.27416 10.0498L3.238 11.2256C3.17696 11.2586 3.10552 11.2668 3.03856 11.2485C2.97161 11.2302 2.91429 11.1868 2.87856 11.1273C2.84279 11.0678 2.83133 10.9969 2.84655 10.9292C2.86177 10.8615 2.90251 10.8023 2.96028 10.7638L5.66401 9.07734C5.60846 9.07144 5.55611 9.04843 5.51419 9.0115C5.47228 8.97457 5.44287 8.92553 5.43003 8.87116C5.41719 8.81679 5.42154 8.75978 5.4425 8.70799C5.46346 8.65621 5.49998 8.6122 5.54701 8.58207L8.487 6.69451C8.43186 6.68853 8.3799 6.66568 8.33821 6.6291C8.29652 6.59251 8.26713 6.54396 8.25403 6.49006C8.24094 6.43616 8.24478 6.37954 8.26504 6.3279C8.28529 6.27626 8.32098 6.23213 8.36723 6.20151L11.1234 4.37299C11.082 4.3532 11.0464 4.32321 11.0199 4.28584C10.9934 4.24847 10.9768 4.20496 10.9718 4.15942C10.9668 4.11387 10.9735 4.0678 10.9912 4.02555C11.009 3.98331 11.0372 3.94628 11.0732 3.91797L14.8367 0.955232C14.8198 0.897247 14.8229 0.835282 14.8454 0.77925C14.8679 0.723217 14.9086 0.676355 14.9608 0.646159L15.9855 0.0527261C16.0444 0.0195897 16.1137 0.00980789 16.1796 0.0253177C16.2454 0.0408275 16.303 0.0804979 16.341 0.136473C16.379 0.192442 16.3945 0.260643 16.3846 0.327544C16.3746 0.394444 16.3398 0.455154 16.2872 0.497627L14.3626 2.01878L16.7995 0.611459C16.8602 0.575626 16.9326 0.565019 17.0011 0.581913C17.0695 0.598806 17.1287 0.641856 17.1658 0.701832C17.2029 0.761808 17.215 0.833935 17.1996 0.902749C17.1841 0.971563 17.1423 1.03159 17.0832 1.06995L15.8988 1.85685L17.3059 1.04258C17.3669 1.00679 17.4395 0.996408 17.5081 1.01367C17.5767 1.03093 17.6357 1.07446 17.6725 1.13486C17.7093 1.19526 17.7209 1.26771 17.7048 1.33659C17.6887 1.40547 17.6461 1.46525 17.5863 1.50303L15.5875 2.78515L17.8345 1.48748C17.8957 1.4522 17.9684 1.44236 18.0368 1.46009C18.1052 1.47782 18.164 1.5217 18.2004 1.58229C18.2368 1.64286 18.2479 1.71529 18.2314 1.784C18.2149 1.85271 18.1721 1.91219 18.1122 1.94964L16.6992 2.83103L18.3172 1.89585C18.3783 1.86137 18.4506 1.85211 18.5185 1.87005C18.5864 1.88798 18.6446 1.93169 18.6808 1.99188C18.7169 2.05208 18.7282 2.12401 18.7122 2.19238C18.6961 2.26075 18.6541 2.32017 18.5949 2.35801L13.6114 5.47339L18.9245 2.40712C18.9854 2.37241 19.0574 2.3628 19.1253 2.38033C19.1931 2.39785 19.2515 2.44113 19.2879 2.50098C19.3245 2.56075 19.3363 2.63242 19.3209 2.70077C19.3055 2.76913 19.2641 2.8288 19.2055 2.86712L10.4795 8.48126L11.4075 7.94572C11.533 7.87265 11.6935 7.91191 11.7709 8.0344C11.8484 8.15689 11.8154 8.31857 11.6962 8.4008L7.21083 11.4956L7.39374 11.3877C7.45402 11.353 7.52538 11.3429 7.59292 11.3595C7.66045 11.3762 7.71895 11.4183 7.75619 11.477C7.79343 11.5358 7.80654 11.6066 7.79278 11.6748C7.77902 11.743 7.73945 11.8032 7.68234 11.8429L5.39715 13.4266C5.41321 13.4426 5.42673 13.4607 5.43811 13.4804C5.47368 13.5423 5.48326 13.6158 5.46476 13.6847C5.44625 13.7537 5.40117 13.8125 5.33939 13.8483L2.03098 15.761C1.98998 15.7847 1.94351 15.7973 1.89616 15.7976Z" fill="#EB5463"/>
<path d="M7.70389 31.7754C7.64528 31.7755 7.58822 31.7565 7.54136 31.7213C7.4945 31.6861 7.46039 31.6366 7.44418 31.5802C7.42796 31.5239 7.43054 31.4638 7.45151 31.4091C7.47248 31.3544 7.51071 31.308 7.56041 31.2769L15.2877 26.4454L6.11883 31.7386C6.05756 31.7723 5.98559 31.7809 5.9181 31.7626C5.85062 31.7442 5.7929 31.7004 5.75712 31.6403C5.72134 31.5802 5.71029 31.5086 5.72632 31.4405C5.74234 31.3724 5.78418 31.3132 5.843 31.2754L10.3375 28.5247L4.76978 31.7371C4.70854 31.7708 4.63657 31.7795 4.56908 31.7612C4.50158 31.7429 4.44383 31.6991 4.40802 31.639C4.37221 31.579 4.36113 31.5073 4.37713 31.4393C4.39312 31.3712 4.43495 31.312 4.49376 31.2742L12.6739 26.2254L3.81507 31.3412C3.75377 31.3746 3.68188 31.3829 3.61458 31.3643C3.54727 31.3458 3.4898 31.3018 3.45429 31.2417C3.41868 31.1816 3.40779 31.11 3.42392 31.042C3.44004 30.974 3.48193 30.9149 3.54076 30.8772L5.89806 29.4501L3.78068 30.6729C3.71907 30.7093 3.64554 30.7197 3.57625 30.7019C3.50696 30.684 3.44757 30.6395 3.41112 30.5779C3.39309 30.5474 3.38125 30.5137 3.37627 30.4786C3.37129 30.4435 3.37328 30.4078 3.3821 30.3735C3.39093 30.3392 3.40643 30.307 3.42772 30.2787C3.44902 30.2504 3.47568 30.2265 3.50618 30.2085L5.09446 29.2488L3.77999 30.0073C3.7188 30.0404 3.64717 30.0486 3.58008 30.0302C3.51298 30.0117 3.45561 29.9681 3.41997 29.9083C3.38434 29.8485 3.37318 29.7773 3.38882 29.7095C3.40446 29.6417 3.44569 29.5825 3.50391 29.5444L11.5204 24.6127L3.77999 29.0817C3.74958 29.0999 3.71588 29.1119 3.68083 29.117C3.64577 29.1222 3.61005 29.1204 3.5757 29.1117C3.54135 29.103 3.50904 29.0877 3.48063 29.0665C3.45221 29.0453 3.42825 29.0188 3.41011 28.9884C3.39194 28.9579 3.37994 28.9243 3.3748 28.8892C3.36966 28.8542 3.37148 28.8184 3.38015 28.7841C3.38882 28.7498 3.40417 28.7175 3.42533 28.689C3.44649 28.6606 3.47304 28.6367 3.50347 28.6185L11.7554 23.5238L3.77948 28.1287C3.71836 28.1633 3.64615 28.1727 3.57821 28.1548C3.51028 28.137 3.45199 28.0934 3.41574 28.0332C3.37949 27.973 3.36814 27.9011 3.38411 27.8327C3.40008 27.7643 3.44211 27.7049 3.50125 27.667L14.1587 20.9754L3.77898 26.9685C3.7178 27.003 3.64558 27.0122 3.57769 26.9943C3.50979 26.9764 3.45156 26.9327 3.41539 26.8725C3.37922 26.8123 3.36795 26.7403 3.38399 26.672C3.40002 26.6036 3.44209 26.5442 3.50125 26.5064L13.3109 20.3507L3.77841 25.8538C3.7175 25.886 3.6466 25.8936 3.58025 25.8751C3.5139 25.8567 3.45713 25.8135 3.42155 25.7546C3.38598 25.6956 3.37431 25.6253 3.38892 25.558C3.40354 25.4907 3.44335 25.4315 3.50018 25.3926L12.9657 19.4355L3.77841 24.7394C3.7172 24.7742 3.64482 24.7837 3.57671 24.7658C3.5086 24.748 3.45018 24.7042 3.41392 24.6438C3.37766 24.5835 3.36643 24.5114 3.38265 24.4428C3.39886 24.3743 3.44122 24.3149 3.50068 24.2772L10.9436 19.6318L3.7779 23.7691C3.71686 23.803 3.64504 23.8118 3.57758 23.7938C3.51011 23.7758 3.45226 23.7324 3.41621 23.6726C3.38015 23.6128 3.3687 23.5413 3.38427 23.4733C3.39984 23.4052 3.44121 23.3458 3.49967 23.3077L11.571 18.228L3.77746 22.7267C3.71668 22.7589 3.6459 22.7666 3.5796 22.7484C3.51329 22.7301 3.45645 22.6872 3.42071 22.6285C3.38496 22.5697 3.373 22.4995 3.38726 22.4322C3.40153 22.365 3.44095 22.3057 3.49746 22.2665L12.621 16.4356L3.7767 21.5433C3.71553 21.5764 3.64391 21.5846 3.57682 21.5662C3.50973 21.5477 3.45238 21.5041 3.41675 21.4443C3.38108 21.3846 3.3699 21.3134 3.38555 21.2456C3.40119 21.1778 3.44245 21.1187 3.50068 21.0806L5.8516 19.6333L3.7767 20.8298C3.71581 20.8644 3.64382 20.874 3.57599 20.8565C3.50815 20.839 3.44979 20.7958 3.41327 20.736C3.3767 20.6762 3.36486 20.6045 3.38025 20.5361C3.39565 20.4677 3.43708 20.4079 3.49575 20.3696L12.0973 14.8283L3.77841 19.6286C3.7176 19.6611 3.64665 19.6691 3.58012 19.651C3.5136 19.6328 3.45654 19.5899 3.42067 19.531C3.38487 19.4721 3.37298 19.4017 3.38744 19.3342C3.40189 19.2668 3.4416 19.2075 3.49841 19.1684L10.7742 14.508L3.77569 18.5487C3.71462 18.5814 3.64331 18.5893 3.57656 18.5708C3.50981 18.5523 3.45274 18.5089 3.41719 18.4494C3.38166 18.39 3.37032 18.3192 3.38553 18.2516C3.40075 18.1841 3.44134 18.1249 3.49891 18.0865L5.22498 17.0169L3.77569 17.8541C3.71465 17.8872 3.64321 17.8954 3.57625 17.8771C3.50929 17.8588 3.45198 17.8154 3.41624 17.7559C3.38048 17.6964 3.36901 17.6254 3.38423 17.5578C3.39946 17.4901 3.44019 17.4308 3.49797 17.3924L6.67472 15.4049L3.77569 17.0769C3.74548 17.0954 3.71192 17.1078 3.67692 17.1133C3.64193 17.1188 3.6062 17.1174 3.57176 17.1091C3.53732 17.1008 3.50486 17.0857 3.47622 17.0649C3.44759 17.044 3.42334 17.0178 3.40487 16.9875C3.38638 16.9573 3.37403 16.9238 3.36852 16.8888C3.36301 16.8538 3.36444 16.818 3.37274 16.7836C3.38104 16.7492 3.39604 16.7167 3.41689 16.6881C3.43773 16.6594 3.46402 16.6352 3.49424 16.6167L10.0839 12.3434L3.77518 15.9878C3.71469 16.0204 3.64401 16.0287 3.57761 16.011C3.51121 15.9932 3.4541 15.9508 3.41795 15.8923C3.38177 15.8339 3.36929 15.7638 3.38306 15.6965C3.39683 15.6292 3.43581 15.5697 3.49203 15.5301L10.4718 10.9228L5.36745 13.8692C5.30679 13.9038 5.2351 13.9134 5.16746 13.8962C5.09983 13.8789 5.04153 13.8361 5.00484 13.7767C4.96815 13.7173 4.95592 13.646 4.97074 13.5778C4.98556 13.5096 5.02627 13.4498 5.08429 13.411L9.44544 10.5485L8.81162 10.9142C8.75109 10.9493 8.67923 10.9596 8.61129 10.9426C8.54335 10.9257 8.48467 10.883 8.44769 10.8236C8.41064 10.7642 8.39812 10.6928 8.41277 10.6244C8.42742 10.556 8.46809 10.4959 8.52619 10.4569L11.4119 8.51533C11.3662 8.49961 11.3255 8.47188 11.2942 8.43506C11.2628 8.39823 11.2419 8.35366 11.2337 8.30599C11.2255 8.25836 11.2302 8.20938 11.2474 8.1642C11.2646 8.11902 11.2936 8.07929 11.3314 8.04919L14.8643 5.23384C14.8458 5.17532 14.8479 5.11224 14.8702 5.05505C14.8924 4.99787 14.9335 4.94999 14.9867 4.91934L15.9904 4.33785C16.0492 4.30462 16.1184 4.29468 16.1842 4.31001C16.2501 4.32534 16.3077 4.36481 16.3458 4.42062C16.3839 4.47643 16.3997 4.54452 16.39 4.6114C16.3803 4.67828 16.3459 4.73909 16.2935 4.7818L14.486 6.2256L16.7898 4.89563C16.8502 4.86215 16.9212 4.85314 16.988 4.87045C17.0549 4.88776 17.1126 4.93008 17.1492 4.98866C17.1857 5.04725 17.1984 5.11765 17.1846 5.18532C17.1708 5.25299 17.1315 5.31278 17.0749 5.35235L15.3042 6.54485L17.3413 5.36917C17.402 5.33605 17.473 5.32746 17.5397 5.34515C17.6065 5.36285 17.664 5.4055 17.7002 5.46429C17.7365 5.52309 17.7488 5.59356 17.7346 5.66116C17.7204 5.72877 17.6809 5.78836 17.6241 5.82766L13.2666 8.68617L18.0129 5.94465C18.0736 5.91077 18.145 5.90159 18.2123 5.91901C18.2795 5.93644 18.3375 5.97912 18.3741 6.03819C18.4106 6.09736 18.4229 6.16833 18.4084 6.23632C18.3938 6.30431 18.3536 6.36406 18.2961 6.40314L11.3126 11.014L18.8489 6.6631C18.8791 6.6441 18.9128 6.63128 18.948 6.6254C18.9832 6.61951 19.0192 6.62067 19.054 6.62881C19.0887 6.63695 19.1215 6.65191 19.1504 6.67281C19.1794 6.69372 19.2038 6.72016 19.2225 6.7506C19.2411 6.78104 19.2535 6.81488 19.2589 6.85015C19.2644 6.88542 19.2628 6.92142 19.2542 6.95606C19.2457 6.99071 19.2303 7.02331 19.209 7.05197C19.1878 7.08064 19.161 7.10479 19.1304 7.12305L12.5407 11.3958L19.6088 7.31519C19.6701 7.27827 19.7436 7.2672 19.813 7.28442C19.8825 7.30164 19.9423 7.34574 19.9792 7.40703C20.0161 7.46835 20.0271 7.54183 20.0099 7.61129C19.9926 7.68075 19.9484 7.7405 19.8871 7.77741L16.7202 9.75744L20.1493 7.77836C20.2105 7.7447 20.2823 7.73606 20.3497 7.75425C20.4171 7.77243 20.4748 7.81603 20.5108 7.87588C20.5466 7.93579 20.5579 8.00725 20.5422 8.07528C20.5265 8.14331 20.485 8.20262 20.4266 8.24077L18.6859 9.31949L20.6337 8.19488C20.6947 8.15914 20.7673 8.14878 20.8359 8.16604C20.9044 8.1833 20.9635 8.22679 21.0003 8.28716C21.0371 8.34754 21.0487 8.41999 21.0326 8.48887C21.0165 8.55775 20.974 8.61754 20.9142 8.65533L13.6454 13.31L21.3877 8.84001C21.4486 8.80654 21.52 8.79782 21.5871 8.81567C21.6542 8.83352 21.7118 8.87657 21.7479 8.93585C21.7841 8.99512 21.796 9.06606 21.7811 9.13389C21.7663 9.20172 21.7258 9.2612 21.6682 9.29996L13.0681 14.8435L22.2252 9.55771C22.2866 9.52388 22.3587 9.51522 22.4263 9.53356C22.4939 9.5519 22.5518 9.5958 22.5876 9.65599C22.6234 9.7162 22.6343 9.78795 22.6181 9.85609C22.602 9.92422 22.56 9.9834 22.501 10.0211L20.1451 11.4709L22.7224 9.98213C22.7834 9.94809 22.8553 9.93904 22.9228 9.95686C22.9903 9.97468 23.0483 10.018 23.0846 10.0777C23.1208 10.1374 23.1325 10.2087 23.1172 10.2768C23.1019 10.3449 23.0607 10.4044 23.0024 10.4428L13.8772 16.2727L23.5461 10.691C23.607 10.6584 23.6781 10.6504 23.7447 10.6688C23.8114 10.6871 23.8684 10.7303 23.9041 10.7895C23.9398 10.8486 23.9515 10.9193 23.9367 10.9868C23.9218 11.0543 23.8816 11.1135 23.8244 11.1522L15.7499 16.2345L24.2715 11.3139C24.3327 11.2791 24.4051 11.2696 24.4732 11.2874C24.5413 11.3053 24.5997 11.3491 24.636 11.4094C24.6722 11.4698 24.6834 11.5419 24.6672 11.6104C24.651 11.6789 24.6087 11.7384 24.5492 11.7761L17.109 16.4194L24.949 11.8926C25.0101 11.8574 25.0826 11.8475 25.151 11.8651C25.2193 11.8827 25.278 11.9264 25.3145 11.9868C25.351 12.0472 25.3624 12.1195 25.3462 12.1882C25.33 12.2569 25.2876 12.3165 25.228 12.3543L15.7573 18.3158L25.7266 12.5605C25.7876 12.5279 25.8588 12.5199 25.9254 12.5383C25.9921 12.5567 26.0491 12.5999 26.0848 12.6592C26.1204 12.7184 26.132 12.7891 26.117 12.8566C26.1021 12.924 26.0618 12.9832 26.0044 13.0219L16.2039 19.1702L26.5056 13.2237C26.5462 13.1993 26.5925 13.1859 26.6399 13.1851C26.6872 13.1842 26.734 13.1958 26.7755 13.2188C26.8169 13.2417 26.8516 13.2752 26.876 13.3158C26.9004 13.3564 26.9137 13.4028 26.9145 13.4501C26.9153 13.4975 26.9037 13.5442 26.8808 13.5856C26.8578 13.6271 26.8244 13.6617 26.7839 13.6862L16.1171 20.3832L27.3125 13.9197C27.3532 13.8953 27.3995 13.8821 27.4469 13.8814C27.4943 13.8806 27.541 13.8924 27.5824 13.9155C27.6238 13.9386 27.6584 13.9722 27.6826 14.0129C27.7069 14.0536 27.72 14.1 27.7206 14.1473C27.7213 14.1947 27.7096 14.2414 27.6865 14.2827C27.6635 14.324 27.6299 14.3586 27.5893 14.3828L19.3462 19.4716L27.9759 14.489C28.0371 14.4569 28.1082 14.4494 28.1748 14.4681C28.2413 14.4869 28.298 14.5304 28.3334 14.5898C28.3687 14.6492 28.3799 14.7198 28.3646 14.7872C28.3494 14.8546 28.3089 14.9135 28.2514 14.9519L20.235 19.8842L28.2887 15.2329C28.3501 15.1993 28.4221 15.1909 28.4896 15.2094C28.557 15.2279 28.6146 15.2719 28.6503 15.3321C28.6859 15.3923 28.6967 15.464 28.6805 15.5321C28.6643 15.6001 28.6222 15.6592 28.5633 15.6968L26.9797 16.6536L28.2888 15.8986C28.3501 15.8652 28.422 15.8569 28.4893 15.8755C28.5567 15.894 28.6142 15.938 28.6498 15.9981C28.6852 16.0581 28.6961 16.1296 28.68 16.1975C28.6639 16.2654 28.6221 16.3244 28.5634 16.3622L26.1848 17.8014L28.2883 16.5872C28.3498 16.5506 28.4232 16.5399 28.4925 16.5574C28.5618 16.575 28.6213 16.6193 28.6579 16.6807C28.6945 16.7422 28.7052 16.8157 28.6877 16.885C28.6701 16.9543 28.6258 17.0139 28.5644 17.0505L20.3825 22.1025L28.2888 17.5382C28.3502 17.5036 28.4226 17.4945 28.4907 17.5127C28.5587 17.5309 28.617 17.575 28.6529 17.6356C28.6888 17.6962 28.6997 17.7684 28.683 17.8369C28.6664 17.9053 28.6236 17.9645 28.5639 18.0018L24.0667 20.7525L28.2893 18.3152C28.3503 18.2833 28.4211 18.2759 28.4873 18.2945C28.5535 18.3132 28.6101 18.3564 28.6455 18.4153C28.6809 18.4743 28.6925 18.5446 28.6778 18.6118C28.6631 18.679 28.6233 18.738 28.5666 18.7769L20.8397 23.61L28.2893 19.3094C28.3504 19.2758 28.4222 19.2672 28.4896 19.2854C28.5569 19.3035 28.6146 19.3471 28.6505 19.407C28.6864 19.4668 28.6977 19.5382 28.682 19.6062C28.6664 19.6742 28.625 19.7335 28.5666 19.7716L22.7717 23.3852L28.2893 20.2002C28.3504 20.1681 28.4216 20.1606 28.4881 20.1793C28.5546 20.1981 28.6114 20.2416 28.6468 20.3009C28.6821 20.3603 28.6932 20.431 28.678 20.4983C28.6628 20.5657 28.6223 20.6247 28.5649 20.6631L27.5736 21.2737L28.2893 20.8604C28.3508 20.8237 28.4242 20.813 28.4936 20.8306C28.563 20.8481 28.6225 20.8925 28.6592 20.9539C28.6958 21.0154 28.7064 21.0888 28.6889 21.1582C28.6714 21.2275 28.627 21.2871 28.5656 21.3238L27.738 21.8329L28.2893 21.5152C28.3504 21.4803 28.4227 21.4706 28.4908 21.4883C28.5588 21.506 28.6173 21.5495 28.6537 21.6097C28.6901 21.6698 28.7016 21.7418 28.6858 21.8103C28.6699 21.8788 28.6279 21.9383 28.5688 21.9763L23.7684 25.0329L28.2915 22.422C28.3522 22.3869 28.4241 22.3769 28.4921 22.394C28.56 22.4111 28.6186 22.454 28.6554 22.5136C28.6924 22.5732 28.7046 22.6448 28.6896 22.7132C28.6747 22.7816 28.6336 22.8415 28.5752 22.8802L22.5317 26.8829L28.2893 23.5595C28.3498 23.5242 28.4217 23.5139 28.4898 23.5308C28.5578 23.5476 28.6165 23.5903 28.6536 23.6497C28.6907 23.7092 28.7033 23.7807 28.6885 23.8492C28.6738 23.9177 28.633 23.9778 28.5747 24.0167L23.6751 27.3068L28.2893 24.6428C28.3496 24.6086 28.4208 24.5989 28.4881 24.6158C28.5554 24.6326 28.6136 24.6748 28.6506 24.7335C28.6876 24.7922 28.7006 24.8629 28.6868 24.9308C28.673 24.9988 28.6336 25.0589 28.5767 25.0986L24.5316 27.8861L28.2903 25.7156C28.3506 25.6816 28.4216 25.6721 28.4887 25.689C28.5558 25.7059 28.6138 25.7479 28.6508 25.8064C28.6878 25.8648 28.701 25.9353 28.6875 26.0031C28.6741 26.071 28.635 26.1311 28.5784 26.1709L26.0483 27.9161L28.2903 26.6217C28.3503 26.587 28.4213 26.5767 28.4887 26.5929C28.5561 26.6091 28.6146 26.6506 28.6522 26.7089C28.6898 26.767 28.7035 26.8374 28.6905 26.9054C28.6776 26.9735 28.6389 27.0339 28.5826 27.0742L26.5331 28.5462L28.2893 27.53C28.3478 27.4968 28.4166 27.4867 28.4822 27.5017C28.5478 27.5166 28.6054 27.5555 28.6438 27.6108C28.6822 27.666 28.6985 27.7336 28.6896 27.8003C28.6807 27.867 28.6472 27.9279 28.5957 27.9712L26.5522 29.6605L28.2888 28.6579C28.3458 28.6235 28.4136 28.6115 28.479 28.6241C28.5443 28.6367 28.6027 28.6731 28.6429 28.7262C28.683 28.7793 28.7022 28.8453 28.6966 28.9117C28.691 28.978 28.661 29.0399 28.6125 29.0854L27.4933 30.1609L28.291 29.7005C28.3467 29.6683 28.4121 29.6571 28.4754 29.6689C28.5387 29.6808 28.5956 29.7148 28.6359 29.765C28.6763 29.8152 28.6973 29.8781 28.6953 29.9424C28.6932 30.0068 28.6683 30.0682 28.6248 30.1157L28.348 30.4182C28.4114 30.3992 28.4795 30.4041 28.5394 30.432C28.5994 30.4599 28.647 30.5089 28.6732 30.5696C28.6995 30.6303 28.7025 30.6986 28.6817 30.7614C28.6609 30.8242 28.6178 30.8771 28.5606 30.9102L27.1249 31.7371C27.0692 31.7691 27.0039 31.7802 26.9407 31.7684C26.8775 31.7565 26.8206 31.7225 26.7803 31.6724C26.74 31.6224 26.7188 31.5597 26.7207 31.4955C26.7225 31.4313 26.7473 31.3699 26.7904 31.3223L27.0509 31.0369L25.8373 31.7381C25.7803 31.7724 25.7126 31.7845 25.6472 31.7718C25.5818 31.7592 25.5234 31.7228 25.4833 31.6697C25.4431 31.6166 25.424 31.5506 25.4296 31.4843C25.4352 31.4179 25.4651 31.356 25.5136 31.3104L26.6328 30.2355L24.0315 31.7371C23.973 31.7709 23.9038 31.7815 23.8378 31.7668C23.7718 31.7521 23.7137 31.7131 23.6751 31.6576C23.6365 31.602 23.6202 31.534 23.6296 31.4669C23.6389 31.3999 23.6731 31.3389 23.7254 31.2959L25.7672 29.6081L22.0791 31.7371C22.0191 31.7718 21.9482 31.7821 21.8808 31.7659C21.8135 31.7497 21.755 31.7082 21.7174 31.65C21.6798 31.5918 21.6661 31.5214 21.679 31.4534C21.6919 31.3854 21.7305 31.3249 21.7868 31.2845L23.8397 29.812L20.5041 31.7371C20.444 31.7698 20.3737 31.7785 20.3074 31.7613C20.2411 31.7441 20.1839 31.7023 20.1472 31.6445C20.1106 31.5867 20.0974 31.517 20.1102 31.4498C20.123 31.3825 20.1609 31.3227 20.2162 31.2823L22.7457 29.5365L18.9341 31.7371C18.8739 31.7704 18.8032 31.7794 18.7366 31.7622C18.67 31.7451 18.6124 31.7032 18.5757 31.645C18.539 31.5868 18.5259 31.5168 18.5391 31.4493C18.5523 31.3818 18.5908 31.3219 18.6468 31.2818L22.6919 28.4956L17.0768 31.7371C17.0163 31.7721 16.9445 31.7822 16.8767 31.7653C16.8089 31.7484 16.7503 31.7059 16.7132 31.6466C16.6761 31.5874 16.6635 31.5161 16.678 31.4477C16.6925 31.3793 16.7329 31.3192 16.7908 31.2801L21.693 27.9863L15.1964 31.7371C15.1358 31.7704 15.0648 31.7793 14.9979 31.7618C14.931 31.7443 14.8734 31.7018 14.8369 31.643C14.8005 31.5842 14.7881 31.5136 14.8022 31.4459C14.8163 31.3782 14.8559 31.3185 14.9128 31.2791L20.9535 27.2772L13.2301 31.7371C13.1692 31.77 13.0979 31.7783 13.0311 31.7602C12.9642 31.7421 12.9069 31.699 12.8709 31.6398C12.835 31.5806 12.8232 31.5098 12.8381 31.4422C12.8529 31.3745 12.8932 31.3151 12.9506 31.2764L17.7508 28.2221L11.6594 31.7371C11.5982 31.7702 11.5266 31.7785 11.4595 31.76C11.3924 31.7416 11.335 31.6979 11.2994 31.6381C11.2637 31.5783 11.2526 31.5071 11.2682 31.4392C11.2839 31.3714 11.3251 31.3123 11.3834 31.2742L12.2144 30.7624L10.5251 31.7371C10.4639 31.7702 10.3923 31.7784 10.3252 31.76C10.2581 31.7415 10.2008 31.6979 10.1652 31.6381C10.1294 31.5783 10.1182 31.5071 10.1339 31.4392C10.1495 31.3714 10.1908 31.3123 10.2491 31.2742L11.2386 30.6668L9.38401 31.7371C9.32307 31.7688 9.25232 31.7761 9.18619 31.7574C9.12006 31.7388 9.06355 31.6956 9.02817 31.6367C8.99279 31.5778 8.98122 31.5076 8.99582 31.4405C9.01042 31.3734 9.05009 31.3143 9.10673 31.2754L14.9053 27.6574L7.83643 31.7371C7.79642 31.7614 7.75068 31.7746 7.70389 31.7754Z" fill="#FAB153"/>
<path d="M10.8876 31.7867C10.8315 31.7866 10.7769 31.7691 10.7312 31.7365C10.6856 31.704 10.6512 31.658 10.6328 31.605C10.6145 31.5521 10.6131 31.4947 10.6289 31.4409C10.6447 31.3872 10.6769 31.3396 10.7209 31.305L13.3854 29.2188L9.1741 31.6502C9.11348 31.6846 9.04189 31.6942 8.97434 31.677C8.90679 31.6597 8.84853 31.6171 8.81178 31.5578C8.77503 31.4986 8.76264 31.4274 8.77721 31.3593C8.79178 31.2911 8.83218 31.2312 8.88993 31.1922L9.20596 30.9818L9.1741 31.0003C9.11429 31.0349 9.0435 31.0452 8.97631 31.0292C8.90912 31.0131 8.85066 30.9718 8.81297 30.914C8.77527 30.8561 8.76122 30.7859 8.77371 30.718C8.78619 30.65 8.82426 30.5895 8.88007 30.5487L12.289 28.0678L9.1741 29.8659C9.11372 29.8999 9.04254 29.9094 8.97535 29.8924C8.90816 29.8753 8.85011 29.8331 8.81326 29.7743C8.77642 29.7156 8.7636 29.645 8.77748 29.577C8.79136 29.5091 8.83086 29.4492 8.88778 29.4096L10.3926 28.385L9.1741 29.0862C9.11365 29.1196 9.04269 29.1286 8.97582 29.1113C8.90896 29.0939 8.85127 29.0516 8.81465 28.9931C8.77813 28.9345 8.76546 28.8641 8.77924 28.7964C8.79301 28.7287 8.8322 28.6689 8.88873 28.6292L9.75186 28.0499L9.17416 28.3838C9.11417 28.4191 9.04285 28.4298 8.97515 28.4136C8.90744 28.3975 8.84859 28.3558 8.81092 28.2973C8.77325 28.2388 8.75965 28.168 8.77296 28.0997C8.78627 28.0314 8.82546 27.9708 8.88235 27.9307L11.8892 25.781L9.1741 27.351C9.11418 27.3853 9.04338 27.3954 8.97628 27.3791C8.90918 27.3627 8.85089 27.3213 8.81342 27.2633C8.77595 27.2053 8.76216 27.1351 8.77487 27.0673C8.78759 26.9994 8.82585 26.939 8.88178 26.8985L11.9858 24.6714L9.1741 26.295C9.11434 26.33 9.04343 26.3406 8.97605 26.3247C8.90867 26.3088 8.84999 26.2676 8.81214 26.2097C8.77429 26.1517 8.76018 26.0814 8.77273 26.0133C8.78528 25.9452 8.82354 25.8846 8.87957 25.8439L12.4393 23.2308L9.17366 25.1186C9.11331 25.152 9.04245 25.161 8.97565 25.1438C8.90886 25.1266 8.85119 25.0844 8.81452 25.026C8.77785 24.9676 8.76495 24.8973 8.77849 24.8297C8.79202 24.762 8.83095 24.7021 8.88728 24.6623L10.4395 23.6041L9.17366 24.3349C9.11398 24.3686 9.0437 24.3783 8.97712 24.3621C8.91054 24.3458 8.85265 24.3048 8.8152 24.2474C8.77776 24.19 8.76357 24.1205 8.77553 24.053C8.78748 23.9855 8.82468 23.9251 8.87957 23.8841L12.3855 21.3157L9.17138 23.1711C9.11161 23.205 9.04113 23.2149 8.97433 23.1986C8.90753 23.1824 8.84945 23.1413 8.81194 23.0837C8.77445 23.026 8.76043 22.9561 8.77273 22.8884C8.78503 22.8207 8.82273 22.7603 8.87811 22.7195L11.4762 20.8253L9.17138 22.1561C9.11132 22.1901 9.04049 22.1998 8.9735 22.1831C8.90651 22.1665 8.84844 22.1248 8.81126 22.0666C8.77408 22.0085 8.76061 21.9383 8.77364 21.8705C8.78666 21.8027 8.82519 21.7425 8.88127 21.7022L9.51383 21.2559L9.17138 21.4531C9.11268 21.4867 9.04351 21.497 8.97759 21.4819C8.91167 21.4669 8.8538 21.4276 8.81547 21.3719C8.77714 21.3162 8.76113 21.2481 8.77063 21.1812C8.78012 21.1142 8.81443 21.0533 8.86674 21.0105L10.1071 20.0039L9.16873 20.5434C9.1133 20.5751 9.04842 20.5861 8.98562 20.5745C8.92283 20.5629 8.86619 20.5294 8.82578 20.4799C8.78541 20.4304 8.7639 20.3683 8.76507 20.3044C8.76624 20.2406 8.79001 20.1792 8.83216 20.1313L9.73334 19.1163L9.17366 19.4397C9.12236 19.4694 9.06273 19.4814 9.00396 19.4738C8.9452 19.4662 8.89056 19.4395 8.84847 19.3978C8.80648 19.356 8.77939 19.3016 8.77136 19.2429C8.76333 19.1843 8.77481 19.1246 8.80404 19.0731L9.03341 18.6697C8.97964 18.659 8.9304 18.6322 8.89223 18.5928C8.85407 18.5535 8.82879 18.5035 8.81976 18.4494C8.81073 18.3953 8.81838 18.3398 8.84168 18.2902C8.86499 18.2406 8.90285 18.1992 8.95023 18.1717L9.55807 17.8211C9.60935 17.7919 9.66878 17.7803 9.72727 17.7881C9.78577 17.7958 9.84011 17.8225 9.882 17.8641C9.92379 17.9057 9.95082 17.9598 9.95897 18.0182C9.96712 18.0766 9.95594 18.136 9.92713 18.1875L9.7652 18.4766L10.8994 17.8218C10.9548 17.7904 11.0194 17.7795 11.082 17.7912C11.1446 17.8029 11.201 17.8363 11.2414 17.8855C11.2817 17.9348 11.3033 17.9967 11.3023 18.0603C11.3013 18.124 11.2778 18.1852 11.236 18.2332L10.3392 19.2452L12.8082 17.8218C12.8669 17.7881 12.9361 17.7778 13.0021 17.7928C13.0681 17.8078 13.1261 17.847 13.1644 17.9028C13.2029 17.9585 13.2189 18.0267 13.2094 18.0937C13.1999 18.1607 13.1655 18.2217 13.1131 18.2645L11.8682 19.2726L14.3821 17.8218C14.4422 17.788 14.5128 17.7785 14.5797 17.7952C14.6465 17.8119 14.7044 17.8535 14.7415 17.9115C14.7786 17.9695 14.7921 18.0396 14.7793 18.1072C14.7664 18.1749 14.7281 18.2351 14.6723 18.2754L14.0407 18.7208L15.5983 17.8218C15.6581 17.7869 15.729 17.7763 15.7964 17.7923C15.8638 17.8082 15.9224 17.8495 15.9602 17.9075C15.998 17.9655 16.012 18.0358 15.9994 18.1039C15.9868 18.1719 15.9484 18.2325 15.8924 18.2731L13.2943 20.1664L16.4225 18.3606C16.4822 18.3262 16.5528 18.316 16.6198 18.3321C16.6867 18.3481 16.745 18.3892 16.7827 18.4469C16.8204 18.5045 16.8346 18.5744 16.8224 18.6422C16.8101 18.71 16.7724 18.7705 16.717 18.8114L13.2111 21.3788L16.4252 19.5234C16.4856 19.4896 16.5566 19.4803 16.6236 19.4974C16.6906 19.5146 16.7485 19.5568 16.7853 19.6154C16.8221 19.674 16.8349 19.7444 16.8212 19.8122C16.8075 19.88 16.7682 19.94 16.7116 19.9796L15.1544 21.041L16.4261 20.307C16.4858 20.2724 16.5566 20.2619 16.6238 20.2778C16.691 20.2938 16.7495 20.3349 16.7873 20.3927C16.8251 20.4505 16.8392 20.5207 16.8268 20.5886C16.8144 20.6565 16.7764 20.7171 16.7207 20.7579L13.161 23.3705L16.4274 21.4827C16.4872 21.4483 16.558 21.4381 16.6251 21.4542C16.6922 21.4704 16.7505 21.5117 16.7881 21.5696C16.8258 21.6277 16.8397 21.6981 16.827 21.7661C16.8142 21.8342 16.7758 21.8947 16.7197 21.9353L13.6167 24.1623L16.4284 22.5395C16.4884 22.5047 16.5595 22.4945 16.6268 22.5107C16.6942 22.527 16.7527 22.5686 16.7903 22.6269C16.8278 22.6852 16.8415 22.7556 16.8284 22.8237C16.8154 22.8918 16.7766 22.9522 16.7202 22.9925L13.7101 25.1445L16.4294 23.5749C16.4898 23.5415 16.5608 23.5325 16.6277 23.5498C16.6945 23.5671 16.7522 23.6094 16.7889 23.668C16.8255 23.7265 16.8382 23.7969 16.8244 23.8646C16.8106 23.9323 16.7714 23.9921 16.7148 24.0317L15.8561 24.6077L16.4306 24.2761C16.491 24.241 16.5627 24.2308 16.6305 24.2475C16.6984 24.2642 16.7571 24.3066 16.7943 24.3657C16.8314 24.4249 16.8442 24.4961 16.8299 24.5645C16.8156 24.6329 16.7753 24.6931 16.7175 24.7324L15.2127 25.7572L16.4311 25.056C16.4909 25.0223 16.5612 25.0127 16.6278 25.029C16.6944 25.0453 16.7523 25.0864 16.7897 25.144C16.8271 25.2015 16.8411 25.2711 16.829 25.3386C16.8168 25.4061 16.7795 25.4664 16.7244 25.5073L13.3148 27.9884L16.4326 26.1885C16.5146 26.138 16.6173 26.1348 16.7022 26.1801C16.7872 26.2255 16.8415 26.313 16.8444 26.4093C16.8459 26.4566 16.8349 26.5035 16.8126 26.5452C16.7902 26.5869 16.7572 26.6221 16.717 26.647L16.4079 26.8519L16.4338 26.8369C16.493 26.8025 16.563 26.7919 16.6297 26.8071C16.6964 26.8224 16.7548 26.8625 16.793 26.9192C16.8313 26.9759 16.8466 27.0451 16.8358 27.1126C16.8249 27.1802 16.7889 27.2411 16.7348 27.2831L14.0693 29.3698L16.4348 28.0039C16.4938 27.9703 16.5633 27.9601 16.6295 27.9755C16.6957 27.9909 16.7536 28.0306 16.7917 28.0868C16.8299 28.143 16.8455 28.2115 16.8353 28.2787C16.8252 28.3458 16.7901 28.4067 16.737 28.4491L15.5154 29.4117L16.4366 28.8804C16.4918 28.8491 16.5562 28.8381 16.6187 28.8496C16.6811 28.8611 16.7376 28.8942 16.778 28.9431C16.8184 28.9922 16.8402 29.0539 16.8396 29.1175C16.8389 29.181 16.8159 29.2423 16.7745 29.2905L15.75 30.4732L16.4393 30.0751C16.4846 30.0489 16.5366 30.0365 16.5889 30.0394C16.6411 30.0423 16.6914 30.0604 16.7336 30.0915C16.7758 30.1224 16.8081 30.165 16.8265 30.214C16.8449 30.263 16.8486 30.3164 16.8372 30.3675L16.6753 31.0993C16.7228 31.1178 16.7641 31.1493 16.7945 31.1902C16.8248 31.2312 16.843 31.2798 16.8469 31.3307C16.8507 31.3814 16.84 31.4323 16.8162 31.4772C16.7923 31.5222 16.7562 31.5596 16.7121 31.5849L16.4425 31.7407C16.3971 31.767 16.345 31.7794 16.2926 31.7765C16.2403 31.7736 16.1899 31.7555 16.1476 31.7244C16.1054 31.6934 16.0731 31.6507 16.0548 31.6016C16.0365 31.5524 16.0329 31.499 16.0445 31.4479L16.1788 30.8506L14.6303 31.7445C14.575 31.7766 14.5101 31.788 14.4471 31.7768C14.3842 31.7655 14.3273 31.7323 14.2866 31.683C14.2459 31.6337 14.2241 31.5715 14.225 31.5076C14.2259 31.4437 14.2494 31.3822 14.2915 31.3341L15.3161 30.1512L12.5489 31.7489C12.4899 31.7826 12.4204 31.7928 12.3542 31.7774C12.288 31.7621 12.23 31.7224 12.1919 31.6661C12.1537 31.6099 12.1381 31.5414 12.1483 31.4742C12.1585 31.407 12.1937 31.3461 12.2468 31.3037L13.4674 30.3416L11.0241 31.7521C10.9825 31.7757 10.9354 31.7877 10.8876 31.7867Z" fill="#937661"/>
<path d="M15.9353 15.0387C15.8807 15.0388 15.8272 15.0223 15.7822 14.9913C15.7371 14.9603 15.7025 14.9164 15.683 14.8653C15.6635 14.8142 15.6599 14.7584 15.6728 14.7053C15.6857 14.6521 15.7145 14.6042 15.7553 14.5678L16.559 13.8496L15.0314 14.7312C14.9729 14.7652 14.9036 14.7758 14.8376 14.7611C14.7715 14.7464 14.7133 14.7073 14.6747 14.6517C14.6362 14.596 14.6199 14.5279 14.6293 14.4608C14.6386 14.3937 14.6728 14.3326 14.7251 14.2896L15.8993 13.3264L14.3211 14.2367C14.2614 14.2712 14.1908 14.2815 14.1237 14.2655C14.0566 14.2495 13.9982 14.2085 13.9604 14.1508C13.9228 14.093 13.9086 14.023 13.9209 13.9552C13.9332 13.8873 13.9711 13.8267 14.0266 13.7859L14.293 13.5906L13.9405 13.794C13.8808 13.8273 13.8107 13.8366 13.7444 13.8202C13.678 13.8038 13.6204 13.7628 13.5831 13.7056C13.5458 13.6484 13.5316 13.5791 13.5433 13.5118C13.5551 13.4445 13.5919 13.3841 13.6464 13.3429L13.8827 13.1708L13.6782 13.2879C13.6191 13.3219 13.5492 13.3323 13.4827 13.3168C13.4162 13.3013 13.3581 13.2612 13.32 13.2046C13.2819 13.1479 13.2668 13.079 13.2776 13.0116C13.2884 12.9442 13.3244 12.8834 13.3783 12.8415L14.2592 12.1586L13.5284 12.5803C13.4701 12.6141 13.4013 12.6249 13.3354 12.6104C13.2696 12.596 13.2116 12.5575 13.1728 12.5025C13.1339 12.4474 13.1171 12.3798 13.1256 12.313C13.1342 12.2461 13.1674 12.1849 13.2188 12.1413L14.2705 11.247L13.6017 11.6327C13.5442 11.6676 13.4757 11.6799 13.4097 11.667C13.3437 11.654 13.2849 11.6169 13.2448 11.5629C13.2047 11.5088 13.1863 11.4418 13.1931 11.3748C13.1999 11.3079 13.2315 11.2459 13.2817 11.2011L13.9696 10.5498C13.9195 10.5271 13.8776 10.4894 13.8498 10.4419C13.8321 10.4112 13.8206 10.3774 13.8159 10.3423C13.8113 10.3072 13.8136 10.2715 13.8228 10.2373C13.8319 10.2031 13.8477 10.171 13.8693 10.1429C13.8908 10.1148 13.9177 10.0912 13.9484 10.0735L15.3211 9.28175C15.3782 9.24918 15.4452 9.2386 15.5096 9.252C15.574 9.2654 15.6312 9.30186 15.6706 9.35451C15.71 9.40717 15.7287 9.4724 15.7234 9.53793C15.718 9.60346 15.6889 9.66478 15.6415 9.71035L15.3125 10.0222L16.5709 9.30002C16.6291 9.26693 16.6975 9.25669 16.7629 9.27129C16.8283 9.2859 16.8858 9.3243 16.9244 9.37903C16.9631 9.43371 16.9799 9.50082 16.9718 9.56727C16.9637 9.63372 16.9311 9.69478 16.8804 9.73854L15.8292 10.6328L17.4548 9.69429C17.514 9.66104 17.5835 9.65132 17.6495 9.66706C17.7155 9.68281 17.7732 9.72286 17.811 9.77924C17.8487 9.83561 17.8639 9.90416 17.8534 9.97121C17.8428 10.0383 17.8074 10.0989 17.7542 10.141L16.8719 10.8236L17.9661 10.192C18.0258 10.1579 18.0963 10.1479 18.1632 10.1641C18.23 10.1802 18.2882 10.2213 18.3257 10.279C18.3633 10.3366 18.3774 10.4064 18.3652 10.4741C18.353 10.5418 18.3154 10.6022 18.2601 10.6431L18.028 10.813L18.2638 10.6769C18.3235 10.6425 18.3941 10.6322 18.4612 10.6482C18.5282 10.6642 18.5866 10.7053 18.6243 10.763C18.662 10.8207 18.6762 10.8907 18.6639 10.9585C18.6517 11.0264 18.6139 11.0869 18.5584 11.1278L18.2919 11.3236L18.4746 11.2157C18.5332 11.1821 18.6023 11.1716 18.6683 11.1865C18.7342 11.2014 18.7922 11.2404 18.8307 11.296C18.8692 11.3515 18.8855 11.4195 18.8763 11.4865C18.8671 11.5534 18.8331 11.6145 18.7811 11.6576L17.6059 12.6225L18.547 12.0793C18.6048 12.0461 18.6729 12.0354 18.7381 12.0494C18.8033 12.0633 18.861 12.101 18.9001 12.1551C18.9392 12.2091 18.9569 12.2757 18.9497 12.342C18.9425 12.4084 18.911 12.4697 18.8613 12.5141L18.0594 13.2313L18.2292 13.1331C18.3129 13.08 18.4189 13.077 18.5053 13.1252C18.5478 13.1489 18.5831 13.1836 18.6074 13.2257C18.6318 13.2679 18.6442 13.3158 18.6436 13.3644C18.6429 13.4131 18.6291 13.4606 18.6036 13.502C18.5782 13.5434 18.5419 13.5772 18.4988 13.5997L16.0719 15.0021C16.0306 15.0265 15.9833 15.0392 15.9353 15.0387ZM21.5964 22.6064C21.5399 22.6064 21.4847 22.5885 21.4389 22.5554C21.393 22.5223 21.3587 22.4756 21.3408 22.422C21.3229 22.3683 21.3223 22.3103 21.3392 22.2563C21.356 22.2023 21.3894 22.155 21.4346 22.121L22.4314 21.3766L20.3639 22.5682C20.3052 22.6014 20.2361 22.6114 20.1703 22.5961C20.1046 22.5808 20.0469 22.5414 20.0088 22.4857C19.9706 22.43 19.9548 22.362 19.9643 22.2952C19.9739 22.2283 20.0082 22.1675 20.0605 22.1248L22.6677 20.0212L18.9213 22.1835C18.8618 22.2174 18.7916 22.2274 18.725 22.2114C18.6583 22.1955 18.6003 22.1548 18.5626 22.0976C18.5249 22.0404 18.5104 21.971 18.5221 21.9035C18.5337 21.836 18.5706 21.7754 18.6252 21.7341L20.179 20.5747L18.8846 21.3233C18.8259 21.3572 18.7567 21.3679 18.6906 21.3531C18.6245 21.3383 18.5664 21.2992 18.5278 21.2436C18.4892 21.1879 18.4729 21.1198 18.4823 21.0527C18.4917 20.9856 18.526 20.9245 18.5783 20.8816L19.7615 19.9063L18.8845 20.4123C18.8271 20.4448 18.7597 20.4552 18.6951 20.4413C18.6306 20.4275 18.5733 20.3905 18.5343 20.3373C18.4952 20.2841 18.477 20.2184 18.4831 20.1527C18.4893 20.0869 18.5193 20.0257 18.5675 19.9807L19.0771 19.5131L18.8845 19.6242C18.8345 19.6532 18.7765 19.6653 18.7191 19.6589C18.6617 19.6524 18.6078 19.6277 18.5655 19.5884C18.5232 19.5489 18.4947 19.497 18.4841 19.4401C18.4736 19.3833 18.4816 19.3245 18.507 19.2726L18.8006 18.6712C18.7534 18.6669 18.7078 18.6527 18.6666 18.6295C18.6254 18.6062 18.5896 18.5745 18.5616 18.5364C18.5438 18.5057 18.5322 18.4718 18.5275 18.4366C18.5228 18.4014 18.5252 18.3657 18.5343 18.3314C18.5435 18.2971 18.5594 18.265 18.581 18.2369C18.6026 18.2088 18.6296 18.1852 18.6604 18.1675L19.2687 17.8169C19.3187 17.7878 19.3768 17.7756 19.4343 17.782C19.4918 17.7885 19.5458 17.8133 19.5881 17.8528C19.6304 17.8923 19.659 17.9443 19.6694 18.0013C19.6799 18.0582 19.6717 18.117 19.6462 18.169L19.3765 18.7161L20.9342 17.8218C20.9916 17.7894 21.0589 17.7791 21.1234 17.7929C21.1879 17.8068 21.2451 17.8438 21.2841 17.8969C21.3231 17.9501 21.3413 18.0156 21.3352 18.0813C21.3291 18.1469 21.2993 18.208 21.2512 18.2532L20.7409 18.7225L22.3003 17.8218C22.3588 17.7881 22.4279 17.7776 22.4938 17.7924C22.5597 17.8071 22.6177 17.8461 22.6563 17.9015C22.6949 17.957 22.7112 18.0249 22.7021 18.0918C22.6931 18.1588 22.6592 18.2199 22.6072 18.263L21.4206 19.2393L23.8785 17.8218C23.9379 17.7882 24.008 17.7784 24.0744 17.7944C24.1408 17.8104 24.1987 17.8511 24.2362 17.9082C24.2738 17.9653 24.2884 18.0344 24.2769 18.1018C24.2655 18.1691 24.2289 18.2296 24.1745 18.271L22.6212 19.4302L25.408 17.8218C25.4667 17.7884 25.5359 17.7783 25.6018 17.7934C25.6677 17.8086 25.7254 17.848 25.7637 17.9038C25.8019 17.9595 25.8177 18.0276 25.8081 18.0945C25.7985 18.1615 25.7641 18.2223 25.7117 18.265L23.1044 20.3686L26.1313 18.6216C26.1909 18.5877 26.261 18.5777 26.3277 18.5936C26.3943 18.6096 26.4523 18.6503 26.49 18.7075C26.5277 18.7647 26.5422 18.8341 26.5306 18.9016C26.5189 18.9691 26.482 19.0297 26.4274 19.071L25.4289 19.812L26.1301 19.4069C26.2506 19.3366 26.405 19.3696 26.4859 19.4832C26.5669 19.5968 26.5476 19.7533 26.442 19.8444L25.4588 20.6977L26.1301 20.3098C26.184 20.279 26.2468 20.2678 26.3079 20.278C26.3691 20.2881 26.4249 20.3191 26.4659 20.3656C26.507 20.412 26.5308 20.4712 26.5333 20.5331C26.5359 20.5951 26.5169 20.656 26.4798 20.7056L25.9291 21.4354L26.1318 21.3184C26.1935 21.2863 26.2651 21.2792 26.3319 21.2986C26.3986 21.318 26.4553 21.3624 26.4901 21.4226C26.5248 21.4828 26.535 21.5541 26.5185 21.6216C26.502 21.6891 26.4601 21.7476 26.4015 21.785L25.0418 22.5682C24.9879 22.5989 24.9251 22.6101 24.8639 22.6C24.8027 22.5898 24.7469 22.5589 24.7059 22.5124C24.6648 22.4659 24.6411 22.4067 24.6386 22.3447C24.6361 22.2827 24.655 22.2218 24.6922 22.1721L25.2445 21.4423L23.2948 22.5682C23.2368 22.6014 23.1684 22.6119 23.1031 22.5975C23.0377 22.5832 22.9801 22.5451 22.9413 22.4906C22.9024 22.4362 22.8852 22.3692 22.8929 22.3028C22.9007 22.2364 22.9329 22.1752 22.9832 22.1312L23.9664 21.2779L21.7312 22.5682C21.6904 22.5924 21.6439 22.6056 21.5964 22.6064Z" fill="#F4F6F8"/>
<path d="M27.0375 9.59505C26.997 9.59501 26.957 9.58584 26.9205 9.56822C26.8841 9.5506 26.8521 9.52499 26.8269 9.49328C26.8016 9.46166 26.7838 9.42476 26.7748 9.38531C26.7658 9.34586 26.7658 9.30488 26.7748 9.26543L26.9451 8.51044L26.34 8.85934C26.2851 8.8905 26.221 8.90141 26.1588 8.89015C26.0967 8.8789 26.0405 8.84619 26 8.79775C25.9595 8.7493 25.9373 8.68818 25.9373 8.62504C25.9372 8.56189 25.9593 8.50074 25.9998 8.45223L26.1401 8.2855L25.8546 8.45046C25.8009 8.48161 25.738 8.49323 25.6767 8.48337C25.6153 8.47351 25.5593 8.44277 25.518 8.39635C25.4767 8.34992 25.4527 8.29066 25.4501 8.22859C25.4474 8.16652 25.4663 8.10544 25.5035 8.05568L26.3481 6.92317L24.9777 7.71419C24.9192 7.74785 24.8503 7.75838 24.7844 7.7437C24.7186 7.72901 24.6606 7.69018 24.622 7.63486C24.5834 7.57954 24.567 7.51176 24.5759 7.4449C24.5849 7.37804 24.6185 7.31695 24.6703 7.27371L24.7532 7.20412L24.5268 7.3347C24.4697 7.36977 24.4016 7.38231 24.3357 7.36987C24.2698 7.35744 24.211 7.32093 24.1706 7.26745C24.1301 7.21398 24.1111 7.14737 24.1171 7.08061C24.1231 7.01386 24.1538 6.95174 24.2031 6.90636L25.5363 5.6324L23.7404 6.66909C23.6826 6.7028 23.6143 6.7138 23.5489 6.69996C23.4834 6.68612 23.4254 6.64842 23.3862 6.59421C23.3469 6.53999 23.3293 6.47312 23.3366 6.4066C23.3439 6.34008 23.3758 6.27867 23.4259 6.2343L25.1989 4.65518L23.1973 5.80944C23.1384 5.84299 23.069 5.85314 23.0029 5.83785C22.9369 5.82257 22.879 5.78298 22.8408 5.72695C22.8026 5.67091 22.7869 5.60252 22.7969 5.53543C22.8068 5.46833 22.8417 5.40747 22.8946 5.36498L24.3347 4.21989L23.1968 4.87735C23.1376 4.9112 23.0678 4.92137 23.0014 4.90584C22.9351 4.8903 22.877 4.8502 22.839 4.79361C22.801 4.73702 22.7858 4.66813 22.7966 4.60081C22.8073 4.53349 22.8431 4.47272 22.8968 4.43074L23.8893 3.65844L23.1968 4.05821C23.1414 4.08996 23.0766 4.10106 23.0138 4.08951C22.951 4.07797 22.8944 4.04455 22.8539 3.99518C22.8135 3.94581 22.7918 3.88369 22.7929 3.81987C22.7939 3.75606 22.8175 3.69467 22.8595 3.64662L23.9664 2.39042L23.1968 2.83481C23.1463 2.86393 23.0877 2.8759 23.0299 2.86895C22.972 2.86199 22.9179 2.83647 22.8758 2.79621C22.8336 2.75596 22.8057 2.70313 22.7961 2.64564C22.7865 2.58815 22.7957 2.5291 22.8225 2.47732L23.0921 1.95462C23.034 1.95152 22.9785 1.9297 22.9338 1.89241C22.8891 1.85512 22.8577 1.80437 22.8442 1.74775C22.8308 1.69115 22.8359 1.6317 22.859 1.5783C22.8821 1.52489 22.9219 1.48039 22.9724 1.45144L23.5807 1.10084C23.6312 1.07024 23.6903 1.05707 23.749 1.06336C23.8077 1.06966 23.8627 1.09506 23.9056 1.13567C23.9485 1.17628 23.9768 1.22985 23.9864 1.28815C23.9959 1.34645 23.986 1.40626 23.9582 1.4584L23.7259 1.90778L25.1238 1.09863C25.1791 1.06714 25.2438 1.05623 25.3063 1.06783C25.3689 1.07943 25.4254 1.11279 25.4657 1.16201C25.5061 1.21122 25.5277 1.27312 25.5268 1.33676C25.5259 1.40039 25.5025 1.46166 25.4608 1.50972L24.3542 2.76643L27.0143 1.23073C27.0733 1.19782 27.1426 1.18832 27.2084 1.2041C27.2741 1.21988 27.3316 1.2598 27.3693 1.31593C27.407 1.37205 27.4223 1.44032 27.4121 1.50717C27.4018 1.57403 27.3668 1.63459 27.314 1.67683L26.3163 2.45286L27.21 1.93736C27.269 1.90287 27.3389 1.89206 27.4055 1.90714C27.4722 1.92222 27.5306 1.96205 27.569 2.01858C27.6075 2.07507 27.623 2.14405 27.6125 2.21157C27.602 2.2791 27.5663 2.34011 27.5125 2.38226L26.0753 3.52457L27.2079 2.86977C27.2657 2.83638 27.3338 2.82562 27.3991 2.83959C27.4643 2.85355 27.5221 2.89124 27.5612 2.94536C27.6003 2.99944 27.6179 3.06609 27.6108 3.13244C27.6036 3.19879 27.5721 3.26013 27.5224 3.30462L25.7495 4.88544L27.2101 4.04279C27.2672 4.01034 27.3341 3.99981 27.3984 4.01318C27.4627 4.02655 27.52 4.06289 27.5594 4.11541C27.5988 4.16801 27.6176 4.23316 27.6124 4.29866C27.6072 4.36417 27.5783 4.42551 27.531 4.47119L26.2015 5.74023L27.2101 5.1583C27.2685 5.12539 27.337 5.11541 27.4024 5.13028C27.4677 5.14515 27.5252 5.18382 27.5636 5.23876C27.602 5.29374 27.6185 5.36104 27.61 5.42755C27.6015 5.49405 27.5685 5.555 27.5175 5.59852L27.3212 5.7602C27.363 5.75706 27.405 5.7635 27.444 5.77904C27.4829 5.79457 27.5179 5.81878 27.5461 5.84982C27.5874 5.89613 27.6114 5.95527 27.6142 6.01725C27.6169 6.07924 27.5982 6.14027 27.5612 6.19006L26.7165 7.32522L27.2101 7.04017C27.265 7.00829 27.3295 6.99685 27.3921 7.00788C27.4546 7.01891 27.5113 7.0517 27.5521 7.10045C27.5928 7.1492 27.615 7.21078 27.6148 7.27432C27.6146 7.33786 27.5919 7.39927 27.5507 7.44771L27.3431 7.69314C27.3835 7.69323 27.4234 7.7024 27.4599 7.71997C27.4963 7.73754 27.5283 7.76306 27.5535 7.79465C27.5788 7.82623 27.5966 7.86309 27.6056 7.90249C27.6147 7.94188 27.6148 7.98281 27.6059 8.02225L27.4123 8.88519C27.4462 8.89436 27.478 8.91019 27.5058 8.93176C27.5335 8.95333 27.5567 8.98022 27.574 9.01084C27.5918 9.04143 27.6034 9.07522 27.6081 9.11029C27.6128 9.14536 27.6106 9.18101 27.6015 9.21522C27.5925 9.24942 27.5768 9.28151 27.5553 9.30965C27.5339 9.33778 27.5071 9.36142 27.4765 9.3792L27.1696 9.55674C27.1295 9.58064 27.084 9.59382 27.0375 9.59498V9.59505Z" fill="#D94452"/>
<path d="M2.12654 16.1062C2.32694 16.1228 2.52858 16.0971 2.71839 16.0307C2.90821 15.9644 3.08197 15.8589 3.22839 15.721C2.69336 19.5746 3.23263 23.8856 3.23263 27.7755C3.23263 29.4507 2.55633 31.6266 4.60804 31.8206C8.24657 32.1642 12.0813 31.8206 15.7337 31.8206C19.5091 31.8206 23.3563 32.0413 27.1249 31.8206C29.6647 31.6717 28.8366 29.0909 28.8366 27.0432V15.8462C28.9726 15.935 29.1222 16.0008 29.2795 16.0412C30.4908 16.2953 31.2329 14.7275 31.8771 13.9308C31.8951 13.9066 31.9097 13.8797 31.9201 13.8511C31.9319 13.836 31.942 13.8195 31.9504 13.802C32.2006 12.9622 31.4519 12.6003 30.8717 12.1094L27.7532 9.48125V4.51598C27.7532 3.50046 28.2665 1.34732 26.9224 1.17199C26.1296 1.06732 23.5347 0.750346 22.8541 1.5157C22.446 1.97469 22.6573 3.00374 22.6573 3.54022V5.18482L17.6209 0.940151C16.3805 -0.107411 15.8474 -0.131113 14.5853 0.931555C11.5818 3.46146 8.5795 5.99279 5.57836 8.52553L1.46459 11.993C1.0762 12.3204 0.0730688 12.8894 0.00297434 13.4918C-0.0762849 14.1742 1.43274 15.988 2.12654 16.1062ZM9.41358 30.139V23.3432C9.41358 22.1867 8.88677 19.585 9.41358 18.546C9.67728 18.0273 10.1686 18.1885 10.9841 18.1885H14.5579C16.3797 18.1885 16.1835 18.9171 16.1835 20.5111V31.2226H9.52154C9.41529 30.8719 9.37862 30.5038 9.41358 30.139V30.139ZM27.7347 31.2226C27.2547 31.5505 25.3769 31.2226 24.8115 31.2226H16.9644V20.4948C16.9644 19.5741 17.3049 18.3233 16.3578 17.893C15.1986 17.3666 12.7739 17.888 11.4967 17.888C8.90775 17.888 8.63269 18.1169 8.63269 20.7041V31.2213H7.32042C6.6447 31.2213 5.02607 31.5493 4.45103 31.2213C3.80862 30.8552 4.02661 30.0916 4.02661 29.2916V17.7678C4.02661 17.0666 3.78662 15.8144 3.99476 15.1023C3.99476 15.2312 4.32709 14.8182 4.47695 14.677C4.96236 14.2184 5.49689 13.802 6.00323 13.3674L14.6781 5.92432C15.5411 5.18583 15.6065 4.80243 16.5146 5.24682C16.5723 5.27495 16.6301 5.31496 16.6874 5.34656C16.8163 5.46855 16.9676 5.61645 17.1701 5.79171L19.9649 8.18959C20.0921 8.30835 20.2177 8.42408 20.3424 8.52837L27.3394 14.5349C27.5519 14.7404 27.7924 14.9843 28.0406 15.2188V23.8086C28.0428 25.0616 28.7526 30.5279 27.7347 31.2225L27.7347 31.2226ZM23.4368 1.88184C23.5584 1.27716 23.2701 1.60779 23.7814 1.46753C24.1685 1.42211 24.5596 1.42211 24.9468 1.46753C25.6183 1.46753 26.683 1.20808 26.9706 2.00699C27.0358 2.47815 27.0358 2.95605 26.9706 3.42721V8.82227L26.7279 8.61787L23.4377 5.84278C23.4323 4.58879 23.1914 3.09753 23.4368 1.87963V1.88184ZM1.0865 13.0302C1.42256 12.2939 3.04219 11.3814 3.66186 10.8594L12.2052 3.65797C13.1873 2.71592 14.2286 1.83768 15.3228 1.02864C16.2126 0.460803 15.6808 0.538798 16.5351 0.957532C17.696 1.52537 18.8344 2.89591 19.8252 3.73142L24.8073 7.93133L29.28 11.7019C29.7859 12.1285 31.3599 12.9882 31.171 13.8361C30.238 15.0172 30.0815 15.7643 28.8006 14.8259C28.7898 14.8123 28.7771 14.8005 28.7628 14.7908C28.7532 14.7799 28.7509 14.7686 28.7386 14.7577L21.1337 8.23149C19.938 7.20688 17.2197 3.64716 15.4067 4.47174C15.0077 4.6737 14.6412 4.93425 14.3194 5.24474C12.6528 6.41555 11.0787 8.06242 9.57337 9.47904L7.60883 11.1646C6.39263 12.2082 4.28171 13.3607 3.50985 14.8586C3.36467 14.9065 3.24495 14.9811 3.24028 15.0744C3.12766 15.1576 3.004 15.2248 2.87287 15.2739C1.98951 15.5598 0.653482 13.9799 1.0865 13.0302Z" fill="#262626"/>
<path d="M19.1258 12.0685C19.124 12.0545 19.1207 12.0407 19.1158 12.0275C19.1158 12.0179 19.1225 12.0098 19.122 12.0001C18.9149 8.14681 12.9442 8.39028 12.9452 12.1754C12.9469 16.077 18.9245 15.804 19.1258 12.0685ZM15.8816 14.5226C14.6463 14.3463 13.7328 13.2817 13.7461 12.0339C13.7345 11.6956 13.7991 11.3589 13.9353 11.0489C14.0714 10.7389 14.2756 10.4636 14.5326 10.2432C14.7897 10.0229 15.093 9.86319 15.4201 9.776C15.7473 9.68882 16.0899 9.67637 16.4225 9.73958C17.5367 10.0193 18.3224 11.0147 18.3349 12.1635C18.2552 13.4627 17.3096 14.6811 15.8816 14.5226ZM25.3427 17.8602H21.941C20.9757 17.8602 18.643 17.3931 18.3409 18.7139C18.1878 19.7109 18.1878 20.7254 18.3409 21.7223C18.4347 22.3697 18.6968 22.4872 19.3117 22.5313C21.3802 22.6739 23.503 22.5313 25.5774 22.5313C25.5872 22.5313 25.6001 22.5277 25.6109 22.5265C25.6682 22.5228 25.7247 22.5131 25.7803 22.498C26.5067 22.3015 26.6501 21.964 26.6711 21.2574C26.696 20.4528 26.8992 19.2489 26.6711 18.4744C26.4753 17.7992 25.9257 17.8607 25.3428 17.8602H25.3427ZM20.3916 22.1749C19.5432 22.1749 19.205 22.1749 19.122 21.258C19.0739 20.7387 19.122 20.1901 19.122 19.6692C19.122 19.4296 18.9865 18.5742 19.122 18.3623C19.3458 18.015 20.8402 18.2176 21.3273 18.2176H24.6206C25.4561 18.2176 25.8072 18.2176 25.8902 19.1346C25.9225 19.4921 26.1136 21.874 25.7517 22.1749H20.3916ZM5.93585 28.3897V29.4684C5.93585 29.5684 6.71681 29.4659 6.71681 29.2593V28.1806C6.71681 28.0809 5.93585 28.1833 5.93585 28.3897ZM5.93585 19.7602V26.2324C5.93585 26.3561 6.71681 26.2464 6.71681 26.0232V19.5509C6.71681 19.4275 5.93585 19.5368 5.93585 19.7602ZM5.93585 16.5242V17.6029C5.93585 17.8224 6.71681 17.6826 6.71681 17.3935V16.3148C6.71681 16.0959 5.93585 16.2351 5.93585 16.5242ZM14.0261 24.075V25.1537C14.0261 25.3549 14.8071 25.2211 14.8071 24.9446V23.8659C14.8071 23.6647 14.0261 23.7982 14.0261 24.075Z" fill="#262626"/>
</g>
<defs>
<clipPath id="clip0_9_4661">
<rect width="32" height="32" fill="white"/>
</clipPath>
</defs>
</svg>
