<svg width="111" height="94" viewBox="0 0 111 94" fill="none" xmlns="http://www.w3.org/2000/svg">
<path d="M26.4393 1.79774C23.5919 0.208598 19.7365 1.7686 18.7422 5.64803C12.6976 5.1646 13.1416 5.20231 12.8485 5.30174C11.705 4.9846 10.9885 5.91374 10.2633 6.82917C9.82962 7.37774 10.169 5.24688 7.56333 33.2086C5.96219 43.7069 4.73819 54.2172 2.6399 64.628C1.51362 70.2097 0.642758 77.216 0.320472 81.9492C0.236472 82.2097 0.166186 82.4755 0.126758 82.748C-0.154385 84.7452 -0.178385 86.9395 2.41533 86.6463C5.6999 86.276 9.72847 86.288 12.7833 87.5172C13.3833 87.7572 14.0433 87.8 14.6433 88.1086C15.3188 88.4549 15.9033 88.9709 16.4193 89.5212C17.3502 90.5189 18.1576 91.6743 19.3268 92.3789C20.6725 93.1897 22.3473 93.2892 23.8885 92.9857C27.3582 93.008 30.8382 92.4612 34.277 91.9075C46.733 89.9052 86.2422 83.9017 91.349 81.8703L93.0565 81.6149C93.3805 81.5664 93.6737 81.396 93.8764 81.1386C94.079 80.8811 94.1757 80.5561 94.1468 80.2297C93.821 76.544 93.4765 72.5755 93.1388 68.972C96.2365 69.4709 98.1805 69.6886 99.0445 68.5435C100.56 66.5377 97.6028 63.9886 96.9136 63.0046C95.7273 61.2903 94.793 59.2469 93.8948 57.3337C88.3247 45.4768 85.4217 32.5429 85.3902 19.4429C85.5629 19.3985 85.7242 19.3179 85.8633 19.2063C87.4748 17.8692 88.4999 16.3692 88.9113 14.7457C89.5799 12.1143 87.5742 10.4737 86.8199 9.8566C86.3982 9.51374 86.2285 9.57203 78.2073 9.20003C78.2622 8.42174 78.2176 7.69146 78.0119 7.08631C77.3811 5.21774 76.4176 3.91488 75.1508 3.20345C73.5856 2.32917 71.5473 2.41831 69.9616 3.43317C68.3005 4.4926 67.5033 7.11031 67.2925 8.49031C67.2822 8.55888 67.301 8.6206 67.301 8.68745C65.4942 8.59831 63.701 8.49545 61.8976 8.40288C61.9508 7.59374 61.9062 6.84631 61.7073 6.25488C61.0748 4.38631 60.1113 3.08174 58.8445 2.37545C57.2776 1.50117 55.241 1.58688 53.6553 2.60174C52.0028 3.65774 51.1988 6.31146 50.9862 7.71031C50.981 7.75146 50.9948 7.78917 50.993 7.83031C48.8382 7.71031 46.6919 7.56974 44.5422 7.44117C44.6176 6.66803 44.5953 5.93774 44.393 5.33603C43.7588 3.46917 42.7988 2.1646 41.5302 1.45488C39.965 0.580598 37.9285 0.671454 36.341 1.68288C34.9148 2.59145 33.4302 4.93317 33.1628 6.69031C33.161 6.70403 33.1662 6.71603 33.1628 6.72974L29.4753 6.4726C29.2062 4.78231 28.0833 2.71488 26.4393 1.79774ZM41.3348 9.81717C40.301 12.7486 39.7336 12.788 39.605 13.52L28.2273 13.0297C28.8298 11.7702 29.2417 10.4281 29.4496 9.04745C33.4028 9.32688 37.3696 9.57203 41.3348 9.81717ZM25.3988 12.908C13.9953 12.5086 14.6039 12.2292 13.985 12.6852C13.9211 12.643 13.8534 12.6069 13.7828 12.5772C13.7673 10.8097 13.7553 9.13146 13.769 7.84403C18.1353 8.21431 22.5068 8.53317 26.8816 8.85031C26.4565 11.4097 25.565 12.428 25.3988 12.908ZM91.4776 79.2509C85.0285 80.216 38.8833 87.1023 38.6948 87.1315C35.9108 87.5549 32.9485 87.9903 30.0102 88.2457C29.2593 88.316 28.5033 88.3657 27.7508 88.412C26.2353 88.5097 24.6805 88.6075 23.1342 88.8852C22.9113 85.7652 22.5445 81.3115 22.2256 77.348C23.9742 77.8726 25.7742 77.2023 27.4713 76.5406C42.0325 70.8492 46.7708 71.2537 67.469 69.5635C75.125 68.9395 83.4822 68.2469 90.7868 71.4697C91.0319 74.1612 91.2668 76.844 91.4776 79.2509ZM19.5753 76.4446C19.5822 76.5183 20.2833 85.256 20.4479 87.4332C18.7456 85.8475 16.9079 84.1932 14.7702 83.1732L15.209 72.5909C15.2776 70.928 12.7113 70.7223 12.6376 72.4829L12.2296 82.3572C10.7176 82.0709 5.5199 82.1909 4.33704 82.2646C7.00104 71.9463 8.06904 63.0063 12.9565 29.756C15.245 41.2435 16.5736 38.0086 18.293 58.4909C19.5668 73.7309 19.4862 75.9097 19.5753 76.4446ZM25.1862 4.04346C25.829 4.40346 26.3588 5.15774 26.7685 6.26346C24.9582 6.13146 23.1496 5.98746 21.3393 5.84688C22.0662 3.94746 23.9279 3.3406 25.1862 4.04346ZM91.5685 58.4292L91.7348 58.784C95.1873 66.1452 95.2542 64.508 96.6839 66.8069C96.4868 66.8035 66.173 62.0995 28.313 72.0543C27.6839 72.2206 27.0068 72.4623 26.3176 72.7126C23.8096 73.6143 23.8748 73.4395 22.8239 73.6092C22.6782 73.1206 22.1056 72.1297 21.7388 69.1692C21.5159 65.2503 21.5725 65.5349 21.4096 65.1749C21.2485 62.4869 21.2759 63.2737 20.8559 58.2749C20.2748 51.3663 19.6748 44.2212 17.561 37.4137C14.9845 29.12 13.961 21.5857 14.4788 14.9737C15.0685 15.0869 7.62676 14.6823 82.8942 17.9566C82.8453 18.078 82.8164 18.2065 82.8085 18.3372C82.6852 32.189 85.6791 45.8911 91.5685 58.4292ZM85.4982 12.1143C86.4496 12.9715 86.5679 13.5269 86.4188 14.1115C86.2645 14.72 85.9593 15.2652 85.6062 15.752C84.9428 15.2412 84.9685 15.572 76.3953 15.1006C76.8753 14.2057 77.3725 13.0092 77.7325 11.7509C80.3211 11.8709 82.8959 11.996 85.4982 12.1143ZM71.345 5.5966C72.1336 5.09603 73.157 5.03431 73.8959 5.44745C74.5902 5.83488 75.1542 6.66288 75.5759 7.90745C75.6736 8.19374 75.6839 8.61031 75.6445 9.07831C73.7142 8.98917 71.7736 8.90003 69.8468 8.80745C70.0696 7.46003 70.757 5.97203 71.345 5.5966ZM75.0856 11.6257C74.2525 14.1869 73.6902 14.3635 73.5599 14.9806L60.209 14.4046C60.6771 13.436 61.1313 12.2189 61.4588 10.9537C65.9845 11.1852 70.5308 11.4115 75.0856 11.6257ZM55.0388 4.7686C55.8273 4.2646 56.8525 4.2046 57.593 4.61945C58.2856 5.00517 58.8496 5.83146 59.2713 7.07774C59.3656 7.35545 59.3725 7.7806 59.3348 8.26746C57.4062 8.16631 55.4776 8.0686 53.5542 7.96231C53.789 6.60288 54.4662 5.13545 55.0388 4.7686ZM58.8308 10.8149C58.2685 12.7606 57.7816 13.5406 57.3633 14.2829L42.4268 13.6383C42.9462 12.7057 43.5496 11.3772 43.9919 9.98174C48.9239 10.2766 53.8731 10.556 58.8308 10.8149ZM37.7228 3.84974C38.5096 3.34917 39.5365 3.28746 40.2753 3.69888C40.9679 4.08803 41.5336 4.91603 41.9553 6.1606C42.041 6.41774 42.0359 6.81888 41.9793 7.28174C39.9016 7.15317 37.8222 7.02803 35.7462 6.89088C35.9879 5.85888 36.9633 4.3366 37.7228 3.84974ZM110.288 68.3429L105.852 66.14C105.546 65.9884 105.193 65.9643 104.87 66.0732C104.547 66.182 104.28 66.4148 104.128 66.7203C103.977 67.0258 103.953 67.3791 104.061 67.7023C104.17 68.0256 104.403 68.2924 104.708 68.444C109.294 70.6674 109.183 70.7789 109.714 70.7789C111.068 70.7789 111.499 68.9463 110.288 68.3429ZM102.446 61.5595C102.491 61.7222 102.569 61.8743 102.673 62.0071C102.778 62.1399 102.907 62.2508 103.055 62.3335C103.202 62.4161 103.365 62.4688 103.532 62.4887C103.7 62.5086 103.87 62.4951 104.033 62.4492L107.597 61.4463C107.76 61.4004 107.911 61.3229 108.044 61.2183C108.177 61.1136 108.287 60.9839 108.37 60.8365C108.452 60.6891 108.505 60.5269 108.525 60.3592C108.544 60.1914 108.531 60.0214 108.485 59.8589C108.439 59.6963 108.362 59.5444 108.257 59.4118C108.152 59.2793 108.023 59.1686 107.875 59.0861C107.728 59.0037 107.566 58.951 107.398 58.9313C107.23 58.9115 107.06 58.925 106.898 58.9709L103.334 59.9737C103.006 60.0664 102.728 60.2855 102.561 60.5828C102.395 60.8801 102.353 61.2314 102.446 61.5595ZM102.896 52.5063C102.744 52.4336 102.579 52.3916 102.41 52.3827C102.242 52.3738 102.073 52.3983 101.914 52.4546C101.754 52.511 101.608 52.5981 101.482 52.7111C101.357 52.8241 101.255 52.9607 101.182 53.1132L99.845 55.9177C99.7723 56.0701 99.7303 56.2354 99.7215 56.404C99.7126 56.5727 99.7371 56.7414 99.7934 56.9006C99.8498 57.0598 99.9369 57.2063 100.05 57.3318C100.163 57.4573 100.299 57.5593 100.452 57.632C100.604 57.7047 100.77 57.7467 100.938 57.7556C101.107 57.7644 101.276 57.74 101.435 57.6836C101.594 57.6273 101.74 57.5401 101.866 57.4272C101.991 57.3142 102.093 57.1776 102.166 57.0252L103.503 54.2189C103.576 54.0665 103.618 53.9012 103.627 53.7326C103.636 53.564 103.611 53.3952 103.555 53.236C103.499 53.0768 103.411 52.9303 103.299 52.8048C103.186 52.6793 103.049 52.5773 102.896 52.5046V52.5063Z" fill="#C2CDC8"/>
<path d="M62.2114 78.3527C58.9868 76.5372 54.6703 79.1412 56.2971 80.8795C56.5306 81.1279 56.8532 81.2735 57.194 81.2841C57.5348 81.2947 57.8658 81.1695 58.1143 80.9361C58.8394 80.2555 60.0857 80.1064 60.9463 80.5932C61.0934 80.6763 61.2554 80.7296 61.4231 80.75C61.5909 80.7705 61.7609 80.7577 61.9237 80.7124C62.0865 80.6671 62.2387 80.5902 62.3718 80.4861C62.5048 80.382 62.6161 80.2526 62.6991 80.1055C62.7822 79.9584 62.8355 79.7964 62.8559 79.6287C62.8764 79.4609 62.8636 79.2908 62.8183 79.1281C62.773 78.9653 62.6961 78.8131 62.592 78.68C62.4878 78.547 62.3585 78.4357 62.2114 78.3527ZM33.6703 47.5127C34.5497 47.5127 35.7754 47.7149 36.276 46.8818C36.5983 46.3401 36.4868 46.1275 36.2486 40.4481C36.2451 40.3847 36.2554 40.3127 36.264 40.2407C36.3994 38.8761 35.7411 38.2349 34.3783 38.3841C33.3754 38.4989 32.304 38.5178 30.7817 38.5624C26.6726 38.7287 27.7028 38.4887 26.9331 38.8761C26.4428 39.2824 26.5286 39.9201 26.5766 40.2887C26.7651 49.1172 25.668 47.8898 33.6703 47.5127ZM28.4503 46.0555C28.3268 45.2464 28.3868 44.2521 28.3646 43.3778L28.2943 40.3452C29.1 40.3367 33.2451 40.2372 34.5548 40.0915C34.5034 40.6264 34.5377 40.1978 34.7948 45.8207C34.428 45.8292 33.6977 45.7967 33.5897 45.8018C31.4846 45.8995 29.136 46.1104 28.4503 46.0555ZM48.9274 46.8904C50.412 46.9692 51.4834 46.8098 51.4166 45.2447C51.1937 39.5429 51.1714 39.9544 51.2057 39.6081C51.3428 38.2367 50.6914 37.6127 49.32 37.7532C48.3188 37.8681 47.2508 37.8869 45.7234 37.9315C41.5577 38.0995 42.6823 37.8544 41.8766 38.2435C41.388 38.6515 41.4703 39.2875 41.5183 39.6578L41.592 42.7949C41.6194 43.7721 41.5286 45.1229 41.7806 46.0847C41.8628 46.9195 42.648 47.1544 43.8548 47.1544C44.7977 47.1544 47.9623 46.8544 48.9274 46.8904ZM43.392 45.4247C43.296 44.7852 43.3526 45.1915 43.236 39.7144C44.208 39.7041 48.3514 39.5875 49.4983 39.4589C49.4434 39.9989 49.4811 39.6132 49.7331 45.1898C49.4074 45.2069 48.6788 45.1607 48.5331 45.1692C46.1674 45.2807 44.1188 45.4881 43.392 45.4247ZM64.2188 46.8904C65.7068 46.9692 66.7748 46.8081 66.7097 45.2447L66.4817 39.8155C66.4714 39.5309 66.7817 38.2864 65.6794 37.8441C65.0417 37.5887 64.9491 37.8218 61.9766 37.9007L61.0166 37.9315C57.5246 38.0721 57.744 37.9041 57.2966 38.1544L57.168 38.2435C56.6794 38.6515 56.7617 39.2875 56.8114 39.6578C56.928 45.0904 56.8594 45.2704 57.072 46.0847C57.2588 47.9652 61.092 46.7721 64.2188 46.8904ZM58.6834 45.4247C58.5634 44.6138 58.6217 43.6247 58.5977 42.7435L58.5291 39.7144C59.688 39.7024 63.5863 39.5944 64.7897 39.4589C64.7366 39.9989 64.7743 39.6132 65.0263 45.1898C64.3783 45.2224 65.1017 45.0835 61.1297 45.3201C60.5434 45.3544 59.364 45.4864 58.6834 45.4247ZM79.1966 46.2201C80.1017 46.2407 81.312 46.4138 81.8006 45.5892C82.1211 45.0492 82.0166 44.9412 81.7748 39.1555C81.7714 39.0938 81.7834 39.0235 81.7903 38.9481C81.9291 37.5561 81.2314 36.9441 79.9046 37.0932C78.9034 37.2064 77.8337 37.2252 76.308 37.2698C71.0194 37.4841 72.2006 36.4967 72.1817 42.9475C72.18 43.7721 72.1766 44.7081 72.3634 45.4229C72.4474 46.2578 73.2343 46.4909 74.4497 46.4909C74.7926 46.4909 77.3606 46.3075 79.1966 46.2201ZM73.9766 44.7647C73.8548 43.9538 73.9131 42.9647 73.8908 42.0835L73.8206 39.0527C74.772 39.0441 78.9411 38.9275 80.0811 38.7989C80.0297 39.3372 80.0674 38.9532 80.3177 44.5281C79.9646 44.5521 79.3663 44.4938 79.116 44.5092C77.196 44.5984 74.5697 44.8161 73.9766 44.7647ZM37.4314 52.5252C36.8211 52.2749 36.9737 52.4875 32.7686 52.6109C28.5668 52.7824 29.7566 52.5321 28.9148 52.9247C28.2703 53.4715 28.6543 53.8795 28.6406 58.2887C28.6303 61.8475 28.9063 62.0567 32.6983 61.7309C35.1017 61.5938 35.3931 61.5492 35.9708 61.5715C37.4468 61.6367 38.5337 61.4978 38.46 59.9258L38.2337 54.4967C38.2234 54.2121 38.5337 52.9658 37.4314 52.5252ZM35.5748 59.8504C33.0086 59.9704 31.1674 60.1641 30.4354 60.1041C30.3154 59.2932 30.3737 58.3058 30.3497 57.4247L30.2811 54.3938C31.3028 54.3835 35.4103 54.2652 36.5417 54.1401C36.4886 54.6784 36.5263 54.2944 36.7783 59.8709C36.5297 59.8795 35.6297 59.8452 35.5748 59.8504ZM53.1908 53.6584C53.2286 53.2795 53.3297 52.2767 52.3714 51.8927C52.1314 51.7967 44.232 52.0727 44.004 52.1944L43.8583 52.2938C43.3714 52.7035 43.4554 53.3395 43.5051 53.7064C43.6954 62.6207 42.6754 61.3041 50.5988 60.9304C52.1126 60.9304 53.4788 61.0949 53.4017 59.2949L53.1754 53.8658C53.1737 53.8041 53.1823 53.7321 53.1908 53.6584ZM50.5166 59.2195C48.612 59.3087 45.996 59.5281 45.3788 59.4732C45.2554 58.6641 45.3154 57.6732 45.2914 56.7938L45.2211 53.7629C46.3817 53.7527 50.28 53.6429 51.4834 53.5092C51.4303 54.0441 51.4663 53.6155 51.7217 59.2401C51.2726 59.2521 50.7668 59.2058 50.5166 59.2195ZM68.484 53.6584C68.5217 53.2795 68.6211 52.2767 67.6646 51.8927C67.3577 51.7692 63.1731 51.9664 63.0017 51.9801C57.7543 52.1927 58.8943 51.1572 58.8754 57.6544C58.8617 62.0807 59.2903 61.2424 65.8903 60.9287C67.4057 60.9287 68.7703 61.0949 68.6948 59.2949C68.472 53.5915 68.448 54.0029 68.484 53.6584ZM65.8097 59.2195C63.612 59.3224 61.2634 59.5247 60.6703 59.4732C60.5468 58.6641 60.6068 57.6732 60.5846 56.7938L60.5126 53.7629C61.4863 53.7544 65.628 53.6361 66.7748 53.5092C66.7234 54.0441 66.7577 53.6155 67.0148 59.2401C66.564 59.2521 66.0566 59.2075 65.8097 59.2195ZM74.5748 51.5429L74.4463 51.6321C73.956 52.0384 74.04 52.6778 74.0897 53.0447L74.1617 56.1818C74.3108 61.3452 73.6388 60.6287 81.1817 60.2687C81.9548 60.2687 83.2748 60.4967 83.7874 59.6378C84.1046 59.1064 84.0051 59.0961 83.76 53.2041C83.7566 53.1424 83.7686 53.0721 83.7771 52.9967C83.8131 52.6195 83.9143 51.6149 82.956 51.2309C82.6903 51.1247 74.9194 51.3509 74.5748 51.5412V51.5429ZM77.9126 58.7447C76.8154 58.8389 76.2531 58.8389 75.9634 58.8132C75.84 58.0024 75.9 57.0098 75.876 56.1338L75.8057 53.1012C76.7777 53.0927 80.9211 52.9761 82.068 52.8475C82.0131 53.3858 82.0509 52.9984 82.3046 58.5784C81.516 58.6229 82.7211 58.4378 77.9126 58.7447ZM31.6543 32.8127C31.728 32.8041 31.8343 32.8144 31.9628 32.8212C33.4611 32.9001 34.5291 32.7372 34.4623 31.1755C34.2377 25.4755 34.2154 25.8869 34.2514 25.5407C34.2891 25.1635 34.3886 24.1572 33.432 23.7749C33.1114 23.6464 28.9423 23.8487 28.7691 23.8641C23.4788 24.0732 24.6617 23.0909 24.6428 29.5384C24.6291 33.8824 24.8846 33.1367 31.6543 32.8127ZM26.4377 31.3555C26.3383 30.7092 26.3983 31.1652 26.28 25.6452C27.3 25.6366 31.416 25.5184 32.5423 25.3915C32.4908 25.9264 32.5251 25.4995 32.7806 31.1207C32.1343 31.1618 32.9074 31.0024 28.5943 31.2715C28.4228 31.2818 27.0994 31.4121 26.4377 31.3555ZM46.9046 32.1904C48.3806 32.2624 49.476 32.1218 49.4023 30.5447C49.1794 24.8446 49.1571 25.2561 49.1931 24.9098C49.3303 23.5281 48.6308 22.8938 47.3091 23.0549C44.964 23.3207 40.5154 23.1749 40.0063 23.4458L39.8588 23.5452C39.3737 23.9567 39.4577 24.5892 39.5057 24.9578C39.624 30.3887 39.5537 30.5721 39.7663 31.3829C39.9548 33.2909 43.9697 32.0378 46.9046 32.1904ZM41.3794 30.7264C41.256 29.9138 41.316 28.9281 41.2937 28.0435L41.2217 25.0161C42.2366 25.0058 46.3577 24.8858 47.484 24.7607C47.4326 25.2989 47.4703 24.9149 47.7206 30.4898C47.4908 30.5018 46.56 30.4658 46.5171 30.4692C44.3091 30.5789 42.0103 30.7812 41.3794 30.7264ZM62.1977 32.1904C63.6806 32.2624 64.7691 32.1218 64.6954 30.5447C64.4726 24.8446 64.4503 25.2561 64.4846 24.9098C64.5223 24.5327 64.6217 23.5281 63.6668 23.1441C63.0497 22.8921 62.9948 23.1149 59.9983 23.2007C55.3097 23.3807 55.6611 23.1835 55.152 23.5452C54.6651 23.9549 54.7491 24.5892 54.7971 24.9578C54.7971 25.1464 54.8708 30.6715 55.0594 31.3829C55.248 33.2858 59.2183 32.0344 62.1977 32.1904ZM56.6708 30.7264C56.628 30.4418 56.5166 25.1875 56.5148 25.0161C57.5297 25.0058 61.6508 24.8858 62.7771 24.7607C62.724 25.2989 62.76 24.9149 63.012 30.4898C62.772 30.5018 62.4446 30.4864 62.2766 30.4795C61.1331 30.4195 57.5383 30.8018 56.6708 30.7264ZM77.4977 31.5304C78.9891 31.5989 80.0554 31.4498 79.9886 29.8847C79.7657 24.1829 79.7417 24.5944 79.7777 24.2481C79.9097 22.9144 79.2977 22.2492 77.892 22.3932C75.444 22.6709 71.1308 22.4978 70.5891 22.7858L70.4451 22.8835C69.7697 23.4509 70.2291 30.2601 70.3508 30.7247C70.5394 32.6069 74.424 31.4121 77.4977 31.5304ZM71.964 30.0647C71.9211 29.7801 71.808 24.5258 71.8063 24.3544C72.828 24.3441 76.9388 24.2258 78.0686 24.0989C78.0154 24.6389 78.0531 24.2532 78.3051 29.8298C77.9931 29.8418 77.2097 29.8041 77.1034 29.8109C75.1834 29.9001 72.5863 30.1195 71.964 30.0647Z" fill="#C2CDC8"/>
</svg>
